<svg width="80" height="80" viewBox="0 0 80 80" fill="none" xmlns="http://www.w3.org/2000/svg">
<path d="M60 68.3335C60 71.0949 57.7614 73.3335 55 73.3335H13.3333C10.5719 73.3335 8.33333 71.0949 8.33333 68.3335V48.9743C8.33333 46.8043 9.73308 44.882 11.7983 44.2158L55.6433 30.0722C57.7957 29.3779 60 30.983 60 33.2446V68.3335Z" fill="#BCFA30"/>
<g style="mix-blend-mode:overlay">
<path d="M21.667 11.6665C21.667 8.90508 23.9056 6.6665 26.667 6.6665H68.3337C71.0951 6.6665 73.3337 8.90508 73.3337 11.6665V39.6924C73.3337 41.8624 71.9339 43.7847 69.8687 44.4509L26.0237 58.5945C23.8713 59.2888 21.667 57.6837 21.667 55.4221V11.6665Z" fill="url(#paint0_linear_898_6751)"/>
</g>
<defs>
<linearGradient id="paint0_linear_898_6751" x1="47.5003" y1="6.6665" x2="47.5003" y2="59.9998" gradientUnits="userSpaceOnUse">
<stop stop-color="#F2F2F2"/>
<stop offset="1" stop-color="white"/>
</linearGradient>
</defs>
</svg>
