<svg width="80" height="80" viewBox="0 0 80 80" fill="none" xmlns="http://www.w3.org/2000/svg">
<path d="M68.333 16.6665C68.333 13.9051 66.0944 11.6665 63.333 11.6665H52.5414C50.9442 11.6665 49.4431 12.4296 48.5018 13.72L31.4822 37.0533C30.2016 38.809 30.2016 41.1907 31.4822 42.9463L48.5018 66.2797C49.4431 67.5701 50.9442 68.3332 52.5414 68.3332H63.333C66.0944 68.3332 68.333 66.0946 68.333 63.3332V16.6665Z" fill="#BCFA30"/>
<g style="mix-blend-mode:overlay">
<path d="M13.333 16.6665C13.333 13.9051 15.5716 11.6665 18.333 11.6665H29.1246C30.7218 11.6665 32.2229 12.4296 33.1642 13.72L50.1838 37.0533C51.4644 38.809 51.4644 41.1907 50.1838 42.9463L33.1642 66.2797C32.2229 67.5701 30.7218 68.3332 29.1246 68.3332H18.333C15.5716 68.3332 13.333 66.0946 13.333 63.3332V16.6665Z" fill="url(#paint0_linear_898_6740)"/>
</g>
<defs>
<linearGradient id="paint0_linear_898_6740" x1="30.833" y1="11.6665" x2="30.833" y2="68.3332" gradientUnits="userSpaceOnUse">
<stop stop-color="#F2F2F2"/>
<stop offset="1" stop-color="white"/>
</linearGradient>
</defs>
</svg>
