<svg width="80" height="80" viewBox="0 0 80 80" fill="none" xmlns="http://www.w3.org/2000/svg">
<rect width="80" height="80" fill="white"/>
<path d="M26.667 40L51.667 40" stroke="#D1FC54" stroke-width="21.6667" stroke-linecap="round"/>
<g style="mix-blend-mode:hard-light">
<path d="M28.2241 68.0276H21.8711C18.5345 67.9793 15.3532 66.6105 13.0239 64.221C10.6946 61.8316 9.40737 58.6164 9.44413 55.2797V26.0814C9.40737 22.7448 10.6946 19.5295 13.0239 17.1401C15.3532 14.7506 18.5345 13.3818 21.8711 13.3335H28.2241C28.6875 13.3331 29.1463 13.4264 29.5728 13.6078C29.9992 13.7892 30.3847 14.0549 30.7059 14.389C31.0271 14.723 31.2775 15.1186 31.442 15.5519C31.6065 15.9851 31.6818 16.4472 31.6633 16.9103V64.4509C31.6818 64.914 31.6065 65.376 31.442 65.8093C31.2775 66.2425 31.0271 66.6381 30.7059 66.9722C30.3847 67.3062 29.9992 67.5719 29.5728 67.7533C29.1463 67.9347 28.6875 68.028 28.2241 68.0276Z" fill="url(#paint0_linear_1605_23063)"/>
</g>
<g style="mix-blend-mode:hard-light">
<path d="M51.7759 68.0276H58.1289C61.4655 67.9793 64.6468 66.6105 66.9761 64.221C69.3054 61.8316 70.5926 58.6164 70.5559 55.2797V26.0814C70.5926 22.7448 69.3054 19.5295 66.9761 17.1401C64.6468 14.7506 61.4655 13.3818 58.1289 13.3335H51.7759C51.3125 13.3331 50.8537 13.4264 50.4272 13.6078C50.0008 13.7892 49.6153 14.0549 49.2941 14.389C48.9729 14.723 48.7225 15.1186 48.558 15.5519C48.3935 15.9851 48.3182 16.4472 48.3367 16.9103V64.4509C48.3182 64.914 48.3935 65.376 48.558 65.8093C48.7225 66.2425 48.9729 66.6381 49.2941 66.9722C49.6153 67.3062 50.0008 67.5719 50.4272 67.7533C50.8537 67.9347 51.3125 68.028 51.7759 68.0276Z" fill="url(#paint1_linear_1605_23063)"/>
</g>
<path d="M58.7505 25.8593C58.4736 25.8578 58.1997 25.8012 57.9449 25.6926C57.6958 25.5772 57.4698 25.4172 57.2783 25.2204C57.0835 25.0331 56.9318 24.8056 56.8338 24.5537C56.726 24.3085 56.6693 24.0438 56.6672 23.7759C56.662 23.3618 56.7803 22.9555 57.0072 22.609C57.234 22.2624 57.5589 21.9913 57.9405 21.8303C58.3221 21.6693 58.7431 21.6257 59.1496 21.7051C59.5561 21.7845 59.9297 21.9832 60.2227 22.2759C60.6152 22.6765 60.8346 23.2152 60.8338 23.7759C60.8317 24.0438 60.775 24.3085 60.6672 24.5537C60.5692 24.8056 60.4175 25.0331 60.2227 25.2204C59.8352 25.6189 59.3062 25.8484 58.7505 25.8593Z" fill="#BCFA30"/>
<path d="M58.7505 35.8593C58.4736 35.8578 58.1997 35.8012 57.9449 35.6926C57.6958 35.5772 57.4698 35.4172 57.2783 35.2204C57.0835 35.0331 56.9318 34.8056 56.8338 34.5537C56.726 34.3085 56.6693 34.0438 56.6672 33.7759C56.662 33.3618 56.7803 32.9555 57.0072 32.609C57.234 32.2624 57.5589 31.9913 57.9405 31.8303C58.3221 31.6693 58.7431 31.6257 59.1496 31.7051C59.5561 31.7845 59.9297 31.9832 60.2227 32.2759C60.6152 32.6765 60.8346 33.2152 60.8338 33.7759C60.8317 34.0438 60.775 34.3085 60.6672 34.5537C60.5692 34.8056 60.4175 35.0331 60.2227 35.2204C59.8352 35.6189 59.3062 35.8484 58.7505 35.8593Z" fill="#BCFA30"/>
<path d="M63.7505 30.8593C63.4736 30.8578 63.1997 30.8012 62.9449 30.6926C62.6958 30.5772 62.4698 30.4172 62.2783 30.2204C62.0835 30.0331 61.9318 29.8056 61.8338 29.5537C61.726 29.3085 61.6693 29.0438 61.6672 28.7759C61.662 28.3618 61.7803 27.9555 62.0072 27.609C62.234 27.2624 62.5589 26.9913 62.9405 26.8303C63.3221 26.6693 63.7431 26.6257 64.1496 26.7051C64.5561 26.7845 64.9297 26.9832 65.2227 27.2759C65.6152 27.6765 65.8346 28.2152 65.8338 28.7759C65.8317 29.0438 65.775 29.3085 65.6672 29.5537C65.5692 29.8056 65.4175 30.0331 65.2227 30.2204C64.8352 30.6189 64.3062 30.8484 63.7505 30.8593Z" fill="#BCFA30"/>
<path d="M53.7505 30.8593C53.4736 30.8578 53.1997 30.8012 52.9449 30.6926C52.6958 30.5772 52.4698 30.4172 52.2783 30.2204C52.0835 30.0331 51.9318 29.8056 51.8338 29.5537C51.726 29.3085 51.6693 29.0438 51.6672 28.7759C51.662 28.3618 51.7803 27.9555 52.0072 27.609C52.234 27.2624 52.5589 26.9913 52.9405 26.8303C53.3221 26.6693 53.7431 26.6257 54.1496 26.7051C54.5561 26.7845 54.9297 26.9832 55.2227 27.2759C55.6152 27.6765 55.8346 28.2152 55.8338 28.7759C55.8317 29.0438 55.775 29.3085 55.6672 29.5537C55.5692 29.8056 55.4175 30.0331 55.2227 30.2204C54.8352 30.6189 54.3062 30.8484 53.7505 30.8593Z" fill="#BCFA30"/>
<path d="M21.6671 63.3335C20.3411 63.3335 19.0693 62.8075 18.1317 61.8713C17.194 60.935 16.6673 59.6652 16.6673 58.3412C16.6604 57.6847 16.7868 57.0337 17.0388 56.4273C17.2909 55.821 17.6634 55.2719 18.1339 54.8133C18.5936 54.3418 19.1358 53.9582 19.7338 53.6817C20.9808 53.2174 22.3535 53.2174 23.6004 53.6817C24.1984 53.9582 24.7407 54.3418 25.2004 54.8133C26.1383 55.7486 26.6658 57.0176 26.667 58.3412C26.667 59.6652 26.1402 60.935 25.2026 61.8713C24.2649 62.8075 22.9932 63.3335 21.6671 63.3335Z" fill="#BCFA30"/>
<defs>
<linearGradient id="paint0_linear_1605_23063" x1="25.987" y1="13.3335" x2="-6.25618" y2="36.7982" gradientUnits="userSpaceOnUse">
<stop stop-color="#0B4BAB"/>
<stop offset="1" stop-color="#0B1DAB"/>
</linearGradient>
<linearGradient id="paint1_linear_1605_23063" x1="54.013" y1="13.3335" x2="86.2562" y2="36.7982" gradientUnits="userSpaceOnUse">
<stop stop-color="#0B4BAB"/>
<stop offset="1" stop-color="#0B1DAB"/>
</linearGradient>
</defs>
</svg>
