<svg width="1280" height="800" viewBox="0 0 1280 800" fill="none" xmlns="http://www.w3.org/2000/svg">
<rect width="1280" height="800" fill="white"/>
<rect x="47" y="298" width="447" height="319" fill="#0000B1"/>
<rect x="404" y="202" width="483" height="189" fill="#D1FC54"/>
<rect x="821" y="350" width="377" height="228" fill="#D1D5DB"/>
<path d="M50.15 91V56H58.05V91H50.15ZM64.059 91V55.6H71.409V91H64.059ZM77.0961 91V55.6H84.4461V91H77.0961ZM88.5832 79.65V73.4H105.383V79.65H88.5832ZM120.118 91.4C116.451 91.4 113.551 90.2333 111.418 87.9C109.318 85.5333 108.268 82.3667 108.268 78.4C108.268 74.4333 109.318 71.2833 111.418 68.95C113.518 66.5833 116.385 65.4 120.018 65.4C123.018 65.4 125.285 66.3333 126.818 68.2V55.6H134.168V91H126.818V88.5C125.418 90.4333 123.185 91.4 120.118 91.4ZM121.318 85.15C123.118 85.15 124.551 84.5333 125.618 83.3C126.718 82.0667 127.268 80.4333 127.268 78.4C127.268 76.3667 126.718 74.7333 125.618 73.5C124.551 72.2667 123.118 71.65 121.318 71.65C119.551 71.65 118.118 72.2667 117.018 73.5C115.951 74.7333 115.418 76.3667 115.418 78.4C115.418 80.4333 115.951 82.0667 117.018 83.3C118.118 84.5333 119.551 85.15 121.318 85.15ZM164.089 77.75C164.089 78.85 164.056 79.7667 163.989 80.5H145.889C146.622 83.7 148.589 85.3 151.789 85.3C154.489 85.3 156.122 84.2167 156.689 82.05L163.589 83.9C162.856 86.2667 161.422 88.1167 159.289 89.45C157.156 90.75 154.589 91.4 151.589 91.4C147.522 91.4 144.339 90.1 142.039 87.5C139.772 84.8667 138.639 81.8333 138.639 78.4C138.639 76.2 139.056 74.15 139.889 72.25C140.722 70.35 142.106 68.7333 144.039 67.4C146.006 66.0667 148.372 65.4 151.139 65.4C153.306 65.4 155.239 65.7833 156.939 66.55C158.672 67.2833 160.039 68.2667 161.039 69.5C162.039 70.7333 162.789 72.05 163.289 73.45C163.822 74.85 164.089 76.2833 164.089 77.75ZM145.989 75.3H156.239C156.106 73.9667 155.606 72.9 154.739 72.1C153.906 71.2667 152.706 70.85 151.139 70.85C148.406 70.85 146.689 72.3333 145.989 75.3ZM170.064 91V71.9H166.114V65.8H170.064V64.05C170.064 61.1167 170.947 58.8167 172.714 57.15C174.514 55.4833 176.831 54.65 179.664 54.65C181.164 54.65 182.497 54.8667 183.664 55.3L183.164 61.2C182.231 60.8333 181.397 60.65 180.664 60.65C179.664 60.65 178.864 60.9667 178.264 61.6C177.697 62.2333 177.414 63.1 177.414 64.2V65.8H183.164V71.9H177.414V91H170.064ZM187.249 55.6H194.999V62.65H187.249V55.6ZM187.399 91V65.8H194.749V91H187.399ZM200.436 91V65.8H207.786V69.15C209.486 66.65 212.053 65.4 215.486 65.4C218.253 65.4 220.486 66.2333 222.186 67.9C223.886 69.5667 224.736 71.7833 224.736 74.55V91H217.436V76.5C217.436 75.1333 217.036 74.0333 216.236 73.2C215.469 72.3333 214.419 71.9 213.086 71.9C209.553 71.9 207.786 74.5833 207.786 79.95V91H200.436ZM254.616 77.75C254.616 78.85 254.583 79.7667 254.516 80.5H236.416C237.15 83.7 239.116 85.3 242.316 85.3C245.016 85.3 246.65 84.2167 247.216 82.05L254.116 83.9C253.383 86.2667 251.95 88.1167 249.816 89.45C247.683 90.75 245.116 91.4 242.116 91.4C238.05 91.4 234.866 90.1 232.566 87.5C230.3 84.8667 229.166 81.8333 229.166 78.4C229.166 76.2 229.583 74.15 230.416 72.25C231.25 70.35 232.633 68.7333 234.566 67.4C236.533 66.0667 238.9 65.4 241.666 65.4C243.833 65.4 245.766 65.7833 247.466 66.55C249.2 67.2833 250.566 68.2667 251.566 69.5C252.566 70.7333 253.316 72.05 253.816 73.45C254.35 74.85 254.616 76.2833 254.616 77.75ZM236.516 75.3H246.766C246.633 73.9667 246.133 72.9 245.266 72.1C244.433 71.2667 243.233 70.85 241.666 70.85C238.933 70.85 237.216 72.3333 236.516 75.3ZM269.679 91.4C266.012 91.4 263.112 90.2333 260.979 87.9C258.879 85.5333 257.829 82.3667 257.829 78.4C257.829 74.4333 258.879 71.2833 260.979 68.95C263.079 66.5833 265.945 65.4 269.579 65.4C272.579 65.4 274.845 66.3333 276.379 68.2V55.6H283.729V91H276.379V88.5C274.979 90.4333 272.745 91.4 269.679 91.4ZM270.879 85.15C272.679 85.15 274.112 84.5333 275.179 83.3C276.279 82.0667 276.829 80.4333 276.829 78.4C276.829 76.3667 276.279 74.7333 275.179 73.5C274.112 72.2667 272.679 71.65 270.879 71.65C269.112 71.65 267.679 72.2667 266.579 73.5C265.512 74.7333 264.979 76.3667 264.979 78.4C264.979 80.4333 265.512 82.0667 266.579 83.3C267.679 84.5333 269.112 85.15 270.879 85.15ZM312.013 91.4C308.346 91.4 305.446 90.2333 303.313 87.9C301.213 85.5333 300.163 82.3667 300.163 78.4C300.163 74.4333 301.213 71.2833 303.313 68.95C305.413 66.5833 308.279 65.4 311.913 65.4C314.913 65.4 317.179 66.3333 318.713 68.2V55.6H326.063V91H318.713V88.5C317.313 90.4333 315.079 91.4 312.013 91.4ZM313.213 85.15C315.013 85.15 316.446 84.5333 317.513 83.3C318.613 82.0667 319.163 80.4333 319.163 78.4C319.163 76.3667 318.613 74.7333 317.513 73.5C316.446 72.2667 315.013 71.65 313.213 71.65C311.446 71.65 310.013 72.2667 308.913 73.5C307.846 74.7333 307.313 76.3667 307.313 78.4C307.313 80.4333 307.846 82.0667 308.913 83.3C310.013 84.5333 311.446 85.15 313.213 85.15ZM341.634 65.4C345.167 65.4 347.967 66.3167 350.034 68.15C352.1 69.95 353.134 72.5833 353.134 76.05V91H346.034V87.8C345.3 88.9 344.284 89.7833 342.984 90.45C341.684 91.0833 340.334 91.4 338.934 91.4C336.5 91.4 334.5 90.6833 332.934 89.25C331.367 87.8167 330.584 86.0333 330.584 83.9C330.584 79.0333 334.217 76.2167 341.484 75.45L346.034 75V74.85C346.034 73.6167 345.634 72.65 344.834 71.95C344.067 71.2167 343 70.85 341.634 70.85C340.434 70.85 339.434 71.2 338.634 71.9C337.834 72.6 337.367 73.55 337.234 74.75L330.834 73.55C331.234 71.1167 332.45 69.15 334.484 67.65C336.517 66.15 338.9 65.4 341.634 65.4ZM340.734 86.15C342.334 86.15 343.6 85.6 344.534 84.5C345.5 83.4 346 82.0833 346.034 80.55V80.5V80.35V80.15L341.334 80.7C340.134 80.8333 339.2 81.1667 338.534 81.7C337.9 82.2333 337.584 82.8833 337.584 83.65C337.584 84.3833 337.85 84.9833 338.384 85.45C338.95 85.9167 339.734 86.15 340.734 86.15ZM373.948 90.75C372.648 91.1833 371.282 91.4 369.848 91.4C366.982 91.4 364.665 90.6333 362.898 89.1C361.132 87.5667 360.248 85.3333 360.248 82.4V71.9H356.248V65.8H360.248V58.5H367.598V65.8H373.698V71.9H367.598V81.45C367.598 82.55 367.865 83.4167 368.398 84.05C368.965 84.6833 369.698 85 370.598 85C371.732 85 372.682 84.8 373.448 84.4L373.948 90.75ZM387.532 65.4C391.065 65.4 393.865 66.3167 395.932 68.15C397.999 69.95 399.032 72.5833 399.032 76.05V91H391.932V87.8C391.199 88.9 390.182 89.7833 388.882 90.45C387.582 91.0833 386.232 91.4 384.832 91.4C382.399 91.4 380.399 90.6833 378.832 89.25C377.265 87.8167 376.482 86.0333 376.482 83.9C376.482 79.0333 380.115 76.2167 387.382 75.45L391.932 75V74.85C391.932 73.6167 391.532 72.65 390.732 71.95C389.965 71.2167 388.899 70.85 387.532 70.85C386.332 70.85 385.332 71.2 384.532 71.9C383.732 72.6 383.265 73.55 383.132 74.75L376.732 73.55C377.132 71.1167 378.349 69.15 380.382 67.65C382.415 66.15 384.799 65.4 387.532 65.4ZM386.632 86.15C388.232 86.15 389.499 85.6 390.432 84.5C391.399 83.4 391.899 82.0833 391.932 80.55V80.5V80.35V80.15L387.232 80.7C386.032 80.8333 385.099 81.1667 384.432 81.7C383.799 82.2333 383.482 82.8833 383.482 83.65C383.482 84.3833 383.749 84.9833 384.282 85.45C384.849 85.9167 385.632 86.15 386.632 86.15ZM426.546 65.4C430.079 65.4 432.879 66.3167 434.946 68.15C437.012 69.95 438.046 72.5833 438.046 76.05V91H430.946V87.8C430.212 88.9 429.196 89.7833 427.896 90.45C426.596 91.0833 425.246 91.4 423.846 91.4C421.412 91.4 419.412 90.6833 417.846 89.25C416.279 87.8167 415.496 86.0333 415.496 83.9C415.496 79.0333 419.129 76.2167 426.396 75.45L430.946 75V74.85C430.946 73.6167 430.546 72.65 429.746 71.95C428.979 71.2167 427.912 70.85 426.546 70.85C425.346 70.85 424.346 71.2 423.546 71.9C422.746 72.6 422.279 73.55 422.146 74.75L415.746 73.55C416.146 71.1167 417.362 69.15 419.396 67.65C421.429 66.15 423.812 65.4 426.546 65.4ZM425.646 86.15C427.246 86.15 428.512 85.6 429.446 84.5C430.412 83.4 430.912 82.0833 430.946 80.55V80.5V80.35V80.15L426.246 80.7C425.046 80.8333 424.112 81.1667 423.446 81.7C422.812 82.2333 422.496 82.8833 422.496 83.65C422.496 84.3833 422.762 84.9833 423.296 85.45C423.862 85.9167 424.646 86.15 425.646 86.15ZM443.746 91V65.8H451.096V69.15C452.796 66.65 455.363 65.4 458.796 65.4C461.563 65.4 463.796 66.2333 465.496 67.9C467.196 69.5667 468.046 71.7833 468.046 74.55V91H460.746V76.5C460.746 75.1333 460.346 74.0333 459.546 73.2C458.78 72.3333 457.73 71.9 456.396 71.9C452.863 71.9 451.096 74.5833 451.096 79.95V91H443.746ZM483.577 65.4C487.11 65.4 489.91 66.3167 491.977 68.15C494.044 69.95 495.077 72.5833 495.077 76.05V91H487.977V87.8C487.244 88.9 486.227 89.7833 484.927 90.45C483.627 91.0833 482.277 91.4 480.877 91.4C478.444 91.4 476.444 90.6833 474.877 89.25C473.31 87.8167 472.527 86.0333 472.527 83.9C472.527 79.0333 476.16 76.2167 483.427 75.45L487.977 75V74.85C487.977 73.6167 487.577 72.65 486.777 71.95C486.01 71.2167 484.944 70.85 483.577 70.85C482.377 70.85 481.377 71.2 480.577 71.9C479.777 72.6 479.31 73.55 479.177 74.75L472.777 73.55C473.177 71.1167 474.394 69.15 476.427 67.65C478.46 66.15 480.844 65.4 483.577 65.4ZM482.677 86.15C484.277 86.15 485.544 85.6 486.477 84.5C487.444 83.4 487.944 82.0833 487.977 80.55V80.5V80.35V80.15L483.277 80.7C482.077 80.8333 481.144 81.1667 480.477 81.7C479.844 82.2333 479.527 82.8833 479.527 83.65C479.527 84.3833 479.794 84.9833 480.327 85.45C480.894 85.9167 481.677 86.15 482.677 86.15ZM500.778 91V55.6H508.128V91H500.778ZM530.265 65.8H537.765L524.465 100.1H516.965L520.965 89.75L511.265 65.8H519.215L524.615 80.4L530.265 65.8ZM556.614 90.75C555.314 91.1833 553.948 91.4 552.514 91.4C549.648 91.4 547.331 90.6333 545.564 89.1C543.798 87.5667 542.914 85.3333 542.914 82.4V71.9H538.914V65.8H542.914V58.5H550.264V65.8H556.364V71.9H550.264V81.45C550.264 82.55 550.531 83.4167 551.064 84.05C551.631 84.6833 552.364 85 553.264 85C554.398 85 555.348 84.8 556.114 84.4L556.614 90.75ZM560.491 55.6H568.241V62.65H560.491V55.6ZM560.641 91V65.8H567.991V91H560.641ZM585.328 91.4C581.528 91.4 578.428 90.2 576.028 87.8C573.628 85.3667 572.428 82.2333 572.428 78.4C572.428 74.5667 573.628 71.45 576.028 69.05C578.428 66.6167 581.528 65.4 585.328 65.4C588.695 65.4 591.478 66.2 593.678 67.8C595.878 69.4 597.178 71.5833 597.578 74.35L590.478 75.75C590.278 74.4833 589.745 73.4833 588.878 72.75C588.011 72.0167 586.928 71.65 585.628 71.65C583.895 71.65 582.511 72.2667 581.478 73.5C580.478 74.7 579.978 76.3333 579.978 78.4C579.978 80.4333 580.495 82.0667 581.528 83.3C582.561 84.5333 583.928 85.15 585.628 85.15C588.228 85.15 589.811 83.8833 590.378 81.35L597.528 82.8C597.061 85.4667 595.745 87.5667 593.578 89.1C591.411 90.6333 588.661 91.4 585.328 91.4ZM610.803 91.4C607.936 91.4 605.52 90.6667 603.553 89.2C601.62 87.7333 600.286 85.95 599.553 83.85L605.453 81.55C605.753 82.7833 606.386 83.8167 607.353 84.65C608.32 85.45 609.47 85.85 610.803 85.85C611.77 85.85 612.553 85.6333 613.153 85.2C613.753 84.7667 614.053 84.2 614.053 83.5C614.053 82.8 613.586 82.2333 612.653 81.8C611.753 81.3667 610.636 81 609.303 80.7C608.003 80.3667 606.703 79.9667 605.403 79.5C604.103 79 602.986 78.1833 602.053 77.05C601.153 75.8833 600.703 74.4167 600.703 72.65C600.703 70.6167 601.52 68.9 603.153 67.5C604.82 66.1 607.003 65.4 609.703 65.4C612.27 65.4 614.52 65.9667 616.453 67.1C618.42 68.2333 619.686 69.7167 620.253 71.55L614.353 74C614.053 72.9333 613.47 72.1167 612.603 71.55C611.77 70.95 610.886 70.65 609.953 70.65C609.12 70.65 608.436 70.8167 607.903 71.15C607.403 71.4833 607.153 71.9167 607.153 72.45C607.153 73.05 607.486 73.55 608.153 73.95C608.82 74.3167 609.653 74.6 610.653 74.8C611.653 74.9667 612.736 75.2333 613.903 75.6C615.103 75.9667 616.203 76.4 617.203 76.9C618.203 77.3667 619.036 78.1667 619.703 79.3C620.37 80.4 620.703 81.75 620.703 83.35C620.703 85.5833 619.77 87.4833 617.903 89.05C616.07 90.6167 613.703 91.4 610.803 91.4ZM653.813 72.85C652.946 72.45 651.88 72.25 650.613 72.25C648.78 72.25 647.246 73.0333 646.013 74.6C644.78 76.1333 644.163 78.5667 644.163 81.9V91H636.813V65.8H644.163V70.15C644.73 68.8167 645.73 67.7 647.163 66.8C648.596 65.8667 650.063 65.4 651.563 65.4C652.63 65.4 653.53 65.5333 654.263 65.8L653.813 72.85ZM668.931 91.4C665.031 91.4 661.831 90.1833 659.331 87.75C656.865 85.2833 655.631 82.1667 655.631 78.4C655.631 74.6333 656.865 71.5333 659.331 69.1C661.831 66.6333 665.031 65.4 668.931 65.4C672.765 65.4 675.931 66.6333 678.431 69.1C680.965 71.5333 682.231 74.6333 682.231 78.4C682.231 82.1667 680.965 85.2833 678.431 87.75C675.931 90.1833 672.765 91.4 668.931 91.4ZM668.931 85.15C670.698 85.15 672.131 84.5333 673.231 83.3C674.331 82.0333 674.881 80.4 674.881 78.4C674.881 76.4 674.331 74.7833 673.231 73.55C672.131 72.2833 670.698 71.65 668.931 71.65C667.131 71.65 665.681 72.2833 664.581 73.55C663.481 74.7833 662.931 76.4 662.931 78.4C662.931 80.4 663.481 82.0333 664.581 83.3C665.681 84.5333 667.131 85.15 668.931 85.15ZM686.618 91V55.6H693.968V91H686.618ZM723.855 77.75C723.855 78.85 723.821 79.7667 723.755 80.5H705.655C706.388 83.7 708.355 85.3 711.555 85.3C714.255 85.3 715.888 84.2167 716.455 82.05L723.355 83.9C722.621 86.2667 721.188 88.1167 719.055 89.45C716.921 90.75 714.355 91.4 711.355 91.4C707.288 91.4 704.105 90.1 701.805 87.5C699.538 84.8667 698.405 81.8333 698.405 78.4C698.405 76.2 698.821 74.15 699.655 72.25C700.488 70.35 701.871 68.7333 703.805 67.4C705.771 66.0667 708.138 65.4 710.905 65.4C713.071 65.4 715.005 65.7833 716.705 66.55C718.438 67.2833 719.805 68.2667 720.805 69.5C721.805 70.7333 722.555 72.05 723.055 73.45C723.588 74.85 723.855 76.2833 723.855 77.75ZM705.755 75.3H716.005C715.871 73.9667 715.371 72.9 714.505 72.1C713.671 71.2667 712.471 70.85 710.905 70.85C708.171 70.85 706.455 72.3333 705.755 75.3Z" fill="black"/>
<rect x="164" y="158" width="329" height="100" fill="#D1D5DB"/>
<rect x="844" y="291" width="388" height="100" fill="#93C5FD"/>
<path d="M236.061 217H233.357L228.313 208.888H224.283V217H221.917L221.917 198.8H228.469C230.202 198.8 231.589 199.259 232.629 200.178C233.669 201.097 234.189 202.319 234.189 203.844C234.189 204.953 233.885 205.924 233.279 206.756C232.689 207.571 231.866 208.16 230.809 208.524L236.061 217ZM224.283 200.906V206.756H228.209C229.335 206.756 230.211 206.505 230.835 206.002C231.459 205.482 231.771 204.763 231.771 203.844C231.771 202.925 231.459 202.206 230.835 201.686C230.211 201.166 229.335 200.906 228.209 200.906H224.283ZM249.436 209.85C249.436 210.214 249.419 210.552 249.384 210.864H239.036C239.105 212.181 239.521 213.247 240.284 214.062C241.064 214.859 242.043 215.258 243.222 215.258C244.227 215.258 245.059 215.033 245.718 214.582C246.377 214.131 246.801 213.499 246.992 212.684L249.072 213.178C248.743 214.443 248.058 215.431 247.018 216.142C245.995 216.853 244.73 217.208 243.222 217.208C241.298 217.208 239.747 216.558 238.568 215.258C237.407 213.958 236.826 212.355 236.826 210.448C236.826 208.524 237.398 206.921 238.542 205.638C239.703 204.338 241.246 203.688 243.17 203.688C245.059 203.688 246.576 204.286 247.72 205.482C248.864 206.661 249.436 208.117 249.436 209.85ZM239.166 209.018H247.096C246.992 207.978 246.593 207.137 245.9 206.496C245.207 205.855 244.297 205.534 243.17 205.534C242.147 205.534 241.281 205.846 240.57 206.47C239.859 207.077 239.391 207.926 239.166 209.018ZM256.548 217.208C255.092 217.208 253.896 216.835 252.96 216.09C252.042 215.345 251.418 214.443 251.088 213.386L252.986 212.554C253.576 214.409 254.763 215.336 256.548 215.336C257.328 215.336 257.961 215.145 258.446 214.764C258.949 214.365 259.2 213.889 259.2 213.334C259.2 212.727 258.94 212.251 258.42 211.904C257.9 211.557 257.268 211.297 256.522 211.124C255.794 210.951 255.058 210.76 254.312 210.552C253.584 210.327 252.96 209.937 252.44 209.382C251.92 208.827 251.66 208.091 251.66 207.172C251.66 206.132 252.076 205.291 252.908 204.65C253.74 204.009 254.858 203.688 256.262 203.688C257.424 203.688 258.455 203.991 259.356 204.598C260.258 205.187 260.847 205.959 261.124 206.912L259.278 207.718C259.105 207.059 258.724 206.531 258.134 206.132C257.562 205.716 256.921 205.508 256.21 205.508C255.465 205.508 254.876 205.655 254.442 205.95C254.009 206.227 253.792 206.626 253.792 207.146C253.792 207.579 253.974 207.935 254.338 208.212C254.72 208.489 255.188 208.689 255.742 208.81C256.314 208.914 256.93 209.07 257.588 209.278C258.247 209.469 258.854 209.685 259.408 209.928C259.963 210.171 260.422 210.587 260.786 211.176C261.168 211.748 261.358 212.459 261.358 213.308C261.358 214.452 260.916 215.388 260.032 216.116C259.148 216.844 257.987 217.208 256.548 217.208ZM275.919 209.85C275.919 210.214 275.901 210.552 275.867 210.864H265.519C265.588 212.181 266.004 213.247 266.767 214.062C267.547 214.859 268.526 215.258 269.705 215.258C270.71 215.258 271.542 215.033 272.201 214.582C272.859 214.131 273.284 213.499 273.475 212.684L275.555 213.178C275.225 214.443 274.541 215.431 273.501 216.142C272.478 216.853 271.213 217.208 269.705 217.208C267.781 217.208 266.229 216.558 265.051 215.258C263.889 213.958 263.309 212.355 263.309 210.448C263.309 208.524 263.881 206.921 265.025 205.638C266.186 204.338 267.729 203.688 269.653 203.688C271.542 203.688 273.059 204.286 274.203 205.482C275.347 206.661 275.919 208.117 275.919 209.85ZM265.649 209.018H273.579C273.475 207.978 273.076 207.137 272.383 206.496C271.689 205.855 270.779 205.534 269.653 205.534C268.63 205.534 267.763 205.846 267.053 206.47C266.342 207.077 265.874 207.926 265.649 209.018ZM283.525 203.688C285.137 203.688 286.437 204.13 287.425 205.014C288.413 205.898 288.907 207.094 288.907 208.602V217H286.723V214.764C286.341 215.509 285.752 216.107 284.955 216.558C284.175 216.991 283.308 217.208 282.355 217.208C281.055 217.208 279.989 216.853 279.157 216.142C278.342 215.414 277.935 214.478 277.935 213.334C277.935 210.873 280.015 209.434 284.175 209.018L286.723 208.732V208.472C286.723 207.571 286.428 206.86 285.839 206.34C285.267 205.803 284.495 205.534 283.525 205.534C282.623 205.534 281.878 205.785 281.289 206.288C280.699 206.791 280.361 207.484 280.275 208.368L278.221 207.978C278.411 206.678 278.992 205.638 279.963 204.858C280.951 204.078 282.138 203.688 283.525 203.688ZM282.693 215.388C283.958 215.388 284.946 214.998 285.657 214.218C286.367 213.438 286.723 212.389 286.723 211.072V210.448L284.175 210.734C281.488 211.029 280.145 211.887 280.145 213.308C280.145 213.915 280.379 214.417 280.847 214.816C281.332 215.197 281.947 215.388 282.693 215.388ZM300.17 206.054C299.685 205.846 299.121 205.742 298.48 205.742C297.371 205.742 296.461 206.279 295.75 207.354C295.057 208.411 294.71 209.963 294.71 212.008V217H292.5V203.896H294.71V206.548C295.091 205.716 295.663 205.031 296.426 204.494C297.189 203.957 297.977 203.688 298.792 203.688C299.364 203.688 299.867 203.766 300.3 203.922L300.17 206.054ZM307.59 217.208C305.648 217.208 304.08 216.593 302.884 215.362C301.688 214.114 301.09 212.476 301.09 210.448C301.09 208.42 301.688 206.791 302.884 205.56C304.08 204.312 305.648 203.688 307.59 203.688C309.115 203.688 310.389 204.078 311.412 204.858C312.452 205.621 313.093 206.652 313.336 207.952L311.152 208.394C311.013 207.597 310.623 206.947 309.982 206.444C309.34 205.924 308.56 205.664 307.642 205.664C306.359 205.664 305.328 206.106 304.548 206.99C303.785 207.857 303.404 209.009 303.404 210.448C303.404 211.887 303.785 213.048 304.548 213.932C305.328 214.799 306.359 215.232 307.642 215.232C308.578 215.232 309.358 214.989 309.982 214.504C310.623 214.019 311.03 213.343 311.204 212.476L313.362 212.918C313.084 214.27 312.426 215.327 311.386 216.09C310.363 216.835 309.098 217.208 307.59 217.208ZM316.113 217V198.592H318.323V206.47C319.277 204.615 320.767 203.688 322.795 203.688C324.286 203.688 325.473 204.113 326.357 204.962C327.259 205.811 327.709 206.947 327.709 208.368V217H325.499V208.784C325.499 207.813 325.213 207.059 324.641 206.522C324.087 205.967 323.307 205.69 322.301 205.69C321.088 205.69 320.117 206.201 319.389 207.224C318.679 208.247 318.323 209.633 318.323 211.384V217H316.113ZM343.444 217.208C341.694 217.208 340.177 216.697 338.894 215.674C337.612 214.634 336.823 213.282 336.528 211.618L338.764 210.89C338.938 212.155 339.466 213.178 340.35 213.958C341.234 214.721 342.283 215.102 343.496 215.102C344.744 215.102 345.741 214.833 346.486 214.296C347.232 213.741 347.604 213.013 347.604 212.112C347.604 211.367 347.344 210.743 346.824 210.24C346.322 209.72 345.689 209.347 344.926 209.122C344.164 208.879 343.332 208.611 342.43 208.316C341.529 208.021 340.697 207.718 339.934 207.406C339.172 207.094 338.53 206.591 338.01 205.898C337.508 205.205 337.256 204.355 337.256 203.35C337.256 201.946 337.828 200.802 338.972 199.918C340.116 199.034 341.59 198.592 343.392 198.592C345.056 198.592 346.478 199.008 347.656 199.84C348.835 200.655 349.537 201.738 349.762 203.09L347.604 203.922C347.414 202.934 346.946 202.154 346.2 201.582C345.472 200.993 344.536 200.698 343.392 200.698C342.231 200.698 341.312 200.941 340.636 201.426C339.978 201.894 339.648 202.535 339.648 203.35C339.648 203.905 339.839 204.373 340.22 204.754C340.602 205.135 341.096 205.43 341.702 205.638C342.326 205.846 343.002 206.045 343.73 206.236C344.476 206.427 345.212 206.652 345.94 206.912C346.686 207.172 347.362 207.501 347.968 207.9C348.592 208.281 349.095 208.827 349.476 209.538C349.858 210.249 350.048 211.098 350.048 212.086C350.048 213.629 349.442 214.868 348.228 215.804C347.032 216.74 345.438 217.208 343.444 217.208ZM358.549 217.208C356.607 217.208 355.039 216.593 353.843 215.362C352.647 214.114 352.049 212.476 352.049 210.448C352.049 208.42 352.647 206.791 353.843 205.56C355.039 204.312 356.607 203.688 358.549 203.688C360.074 203.688 361.348 204.078 362.371 204.858C363.411 205.621 364.052 206.652 364.295 207.952L362.111 208.394C361.972 207.597 361.582 206.947 360.941 206.444C360.299 205.924 359.519 205.664 358.601 205.664C357.318 205.664 356.287 206.106 355.507 206.99C354.744 207.857 354.363 209.009 354.363 210.448C354.363 211.887 354.744 213.048 355.507 213.932C356.287 214.799 357.318 215.232 358.601 215.232C359.537 215.232 360.317 214.989 360.941 214.504C361.582 214.019 361.989 213.343 362.163 212.476L364.321 212.918C364.043 214.27 363.385 215.327 362.345 216.09C361.322 216.835 360.057 217.208 358.549 217.208ZM366.916 198.592H369.464V201.4H366.916V198.592ZM367.072 217V203.896H369.282V217H367.072ZM384.717 209.85C384.717 210.214 384.7 210.552 384.665 210.864H374.317C374.387 212.181 374.803 213.247 375.565 214.062C376.345 214.859 377.325 215.258 378.503 215.258C379.509 215.258 380.341 215.033 380.999 214.582C381.658 214.131 382.083 213.499 382.273 212.684L384.353 213.178C384.024 214.443 383.339 215.431 382.299 216.142C381.277 216.853 380.011 217.208 378.503 217.208C376.579 217.208 375.028 216.558 373.849 215.258C372.688 213.958 372.107 212.355 372.107 210.448C372.107 208.524 372.679 206.921 373.823 205.638C374.985 204.338 376.527 203.688 378.451 203.688C380.341 203.688 381.857 204.286 383.001 205.482C384.145 206.661 384.717 208.117 384.717 209.85ZM374.447 209.018H382.377C382.273 207.978 381.875 207.137 381.181 206.496C380.488 205.855 379.578 205.534 378.451 205.534C377.429 205.534 376.562 205.846 375.851 206.47C375.141 207.077 374.673 207.926 374.447 209.018ZM387.563 217V203.896H389.773V206.366C390.241 205.551 390.865 204.901 391.645 204.416C392.425 203.931 393.3 203.688 394.271 203.688C395.64 203.688 396.758 204.113 397.625 204.962C398.509 205.811 398.951 206.929 398.951 208.316V217H396.741V208.732C396.741 207.831 396.472 207.103 395.935 206.548C395.397 205.976 394.678 205.69 393.777 205.69C392.546 205.69 391.567 206.193 390.839 207.198C390.128 208.186 389.773 209.538 389.773 211.254V217H387.563ZM409.029 216.896C408.457 217.104 407.772 217.208 406.975 217.208C405.796 217.208 404.851 216.87 404.141 216.194C403.447 215.501 403.101 214.461 403.101 213.074V205.846H400.657V203.896H403.101V199.918H405.311V203.896H408.821V205.846H405.311V213.152C405.311 213.828 405.484 214.339 405.831 214.686C406.177 215.033 406.645 215.206 407.235 215.206C407.876 215.206 408.422 215.093 408.873 214.868L409.029 216.896ZM411.451 198.592H413.999V201.4H411.451V198.592ZM411.607 217V203.896H413.817V217H411.607ZM421.791 217.208C420.335 217.208 419.139 216.835 418.203 216.09C417.284 215.345 416.66 214.443 416.331 213.386L418.229 212.554C418.818 214.409 420.005 215.336 421.791 215.336C422.571 215.336 423.203 215.145 423.689 214.764C424.191 214.365 424.443 213.889 424.443 213.334C424.443 212.727 424.183 212.251 423.663 211.904C423.143 211.557 422.51 211.297 421.765 211.124C421.037 210.951 420.3 210.76 419.555 210.552C418.827 210.327 418.203 209.937 417.683 209.382C417.163 208.827 416.903 208.091 416.903 207.172C416.903 206.132 417.319 205.291 418.151 204.65C418.983 204.009 420.101 203.688 421.505 203.688C422.666 203.688 423.697 203.991 424.599 204.598C425.5 205.187 426.089 205.959 426.367 206.912L424.521 207.718C424.347 207.059 423.966 206.531 423.377 206.132C422.805 205.716 422.163 205.508 421.453 205.508C420.707 205.508 420.118 205.655 419.685 205.95C419.251 206.227 419.035 206.626 419.035 207.146C419.035 207.579 419.217 207.935 419.581 208.212C419.962 208.489 420.43 208.689 420.985 208.81C421.557 208.914 422.172 209.07 422.831 209.278C423.489 209.469 424.096 209.685 424.651 209.928C425.205 210.171 425.665 210.587 426.029 211.176C426.41 211.748 426.601 212.459 426.601 213.308C426.601 214.452 426.159 215.388 425.275 216.116C424.391 216.844 423.229 217.208 421.791 217.208ZM436.197 216.896C435.625 217.104 434.94 217.208 434.143 217.208C432.964 217.208 432.019 216.87 431.309 216.194C430.615 215.501 430.269 214.461 430.269 213.074V205.846H427.825V203.896H430.269V199.918H432.479V203.896H435.989V205.846H432.479V213.152C432.479 213.828 432.652 214.339 432.999 214.686C433.345 215.033 433.813 215.206 434.403 215.206C435.044 215.206 435.59 215.093 436.041 214.868L436.197 216.896Z" fill="black"/>
<path d="M880.086 350V331.8H882.946L889.082 346.568L895.218 331.8H898.078V350H895.738V336.272L890.07 350H888.094L882.4 336.272V350H880.086ZM906.63 336.688C908.242 336.688 909.542 337.13 910.53 338.014C911.518 338.898 912.012 340.094 912.012 341.602V350H909.828V347.764C909.447 348.509 908.858 349.107 908.06 349.558C907.28 349.991 906.414 350.208 905.46 350.208C904.16 350.208 903.094 349.853 902.262 349.142C901.448 348.414 901.04 347.478 901.04 346.334C901.04 343.873 903.12 342.434 907.28 342.018L909.828 341.732V341.472C909.828 340.571 909.534 339.86 908.944 339.34C908.372 338.803 907.601 338.534 906.63 338.534C905.729 338.534 904.984 338.785 904.394 339.288C903.805 339.791 903.467 340.484 903.38 341.368L901.326 340.978C901.517 339.678 902.098 338.638 903.068 337.858C904.056 337.078 905.244 336.688 906.63 336.688ZM905.798 348.388C907.064 348.388 908.052 347.998 908.762 347.218C909.473 346.438 909.828 345.389 909.828 344.072V343.448L907.28 343.734C904.594 344.029 903.25 344.887 903.25 346.308C903.25 346.915 903.484 347.417 903.952 347.816C904.438 348.197 905.053 348.388 905.798 348.388ZM921.352 350.208C919.41 350.208 917.842 349.593 916.646 348.362C915.45 347.114 914.852 345.476 914.852 343.448C914.852 341.42 915.45 339.791 916.646 338.56C917.842 337.312 919.41 336.688 921.352 336.688C922.877 336.688 924.151 337.078 925.174 337.858C926.214 338.621 926.855 339.652 927.098 340.952L924.914 341.394C924.775 340.597 924.385 339.947 923.744 339.444C923.102 338.924 922.322 338.664 921.404 338.664C920.121 338.664 919.09 339.106 918.31 339.99C917.547 340.857 917.166 342.009 917.166 343.448C917.166 344.887 917.547 346.048 918.31 346.932C919.09 347.799 920.121 348.232 921.404 348.232C922.34 348.232 923.12 347.989 923.744 347.504C924.385 347.019 924.792 346.343 924.966 345.476L927.124 345.918C926.846 347.27 926.188 348.327 925.148 349.09C924.125 349.835 922.86 350.208 921.352 350.208ZM929.875 350V331.592H932.085V339.47C933.038 337.615 934.529 336.688 936.557 336.688C938.048 336.688 939.235 337.113 940.119 337.962C941.02 338.811 941.471 339.947 941.471 341.368V350H939.261V341.784C939.261 340.813 938.975 340.059 938.403 339.522C937.848 338.967 937.068 338.69 936.063 338.69C934.85 338.69 933.879 339.201 933.151 340.224C932.44 341.247 932.085 342.633 932.085 344.384V350H929.875ZM944.903 331.592H947.451V334.4H944.903V331.592ZM945.059 350V336.896H947.269V350H945.059ZM950.848 350V336.896H953.058V339.366C953.526 338.551 954.15 337.901 954.93 337.416C955.71 336.931 956.585 336.688 957.556 336.688C958.925 336.688 960.043 337.113 960.91 337.962C961.794 338.811 962.236 339.929 962.236 341.316V350H960.026V341.732C960.026 340.831 959.757 340.103 959.22 339.548C958.682 338.976 957.963 338.69 957.062 338.69C955.831 338.69 954.852 339.193 954.124 340.198C953.413 341.186 953.058 342.538 953.058 344.254V350H950.848ZM977.684 342.85C977.684 343.214 977.667 343.552 977.632 343.864H967.284C967.354 345.181 967.77 346.247 968.532 347.062C969.312 347.859 970.292 348.258 971.47 348.258C972.476 348.258 973.308 348.033 973.966 347.582C974.625 347.131 975.05 346.499 975.24 345.684L977.32 346.178C976.991 347.443 976.306 348.431 975.266 349.142C974.244 349.853 972.978 350.208 971.47 350.208C969.546 350.208 967.995 349.558 966.816 348.258C965.655 346.958 965.074 345.355 965.074 343.448C965.074 341.524 965.646 339.921 966.79 338.638C967.952 337.338 969.494 336.688 971.418 336.688C973.308 336.688 974.824 337.286 975.968 338.482C977.112 339.661 977.684 341.117 977.684 342.85ZM967.414 342.018H975.344C975.24 340.978 974.842 340.137 974.148 339.496C973.455 338.855 972.545 338.534 971.418 338.534C970.396 338.534 969.529 338.846 968.818 339.47C968.108 340.077 967.64 340.926 967.414 342.018ZM986.905 350V331.8H989.271V347.868H998.293V350H986.905ZM1012.32 342.85C1012.32 343.214 1012.3 343.552 1012.26 343.864H1001.92C1001.99 345.181 1002.4 346.247 1003.16 347.062C1003.94 347.859 1004.92 348.258 1006.1 348.258C1007.11 348.258 1007.94 348.033 1008.6 347.582C1009.26 347.131 1009.68 346.499 1009.87 345.684L1011.95 346.178C1011.62 347.443 1010.94 348.431 1009.9 349.142C1008.88 349.853 1007.61 350.208 1006.1 350.208C1004.18 350.208 1002.63 349.558 1001.45 348.258C1000.29 346.958 999.707 345.355 999.707 343.448C999.707 341.524 1000.28 339.921 1001.42 338.638C1002.58 337.338 1004.13 336.688 1006.05 336.688C1007.94 336.688 1009.46 337.286 1010.6 338.482C1011.74 339.661 1012.32 341.117 1012.32 342.85ZM1002.05 342.018H1009.98C1009.87 340.978 1009.47 340.137 1008.78 339.496C1008.09 338.855 1007.18 338.534 1006.05 338.534C1005.03 338.534 1004.16 338.846 1003.45 339.47C1002.74 340.077 1002.27 340.926 1002.05 342.018ZM1019.92 336.688C1021.54 336.688 1022.84 337.13 1023.82 338.014C1024.81 338.898 1025.31 340.094 1025.31 341.602V350H1023.12V347.764C1022.74 348.509 1022.15 349.107 1021.35 349.558C1020.57 349.991 1019.71 350.208 1018.75 350.208C1017.45 350.208 1016.39 349.853 1015.56 349.142C1014.74 348.414 1014.33 347.478 1014.33 346.334C1014.33 343.873 1016.41 342.434 1020.57 342.018L1023.12 341.732V341.472C1023.12 340.571 1022.83 339.86 1022.24 339.34C1021.67 338.803 1020.89 338.534 1019.92 338.534C1019.02 338.534 1018.28 338.785 1017.69 339.288C1017.1 339.791 1016.76 340.484 1016.67 341.368L1014.62 340.978C1014.81 339.678 1015.39 338.638 1016.36 337.858C1017.35 337.078 1018.54 336.688 1019.92 336.688ZM1019.09 348.388C1020.36 348.388 1021.34 347.998 1022.06 347.218C1022.77 346.438 1023.12 345.389 1023.12 344.072V343.448L1020.57 343.734C1017.89 344.029 1016.54 344.887 1016.54 346.308C1016.54 346.915 1016.78 347.417 1017.25 347.816C1017.73 348.197 1018.35 348.388 1019.09 348.388ZM1036.57 339.054C1036.08 338.846 1035.52 338.742 1034.88 338.742C1033.77 338.742 1032.86 339.279 1032.15 340.354C1031.46 341.411 1031.11 342.963 1031.11 345.008V350H1028.9V336.896H1031.11V339.548C1031.49 338.716 1032.06 338.031 1032.82 337.494C1033.59 336.957 1034.38 336.688 1035.19 336.688C1035.76 336.688 1036.27 336.766 1036.7 336.922L1036.57 339.054ZM1038.85 350V336.896H1041.06V339.366C1041.53 338.551 1042.15 337.901 1042.93 337.416C1043.71 336.931 1044.59 336.688 1045.56 336.688C1046.93 336.688 1048.05 337.113 1048.91 337.962C1049.8 338.811 1050.24 339.929 1050.24 341.316V350H1048.03V341.732C1048.03 340.831 1047.76 340.103 1047.22 339.548C1046.69 338.976 1045.97 338.69 1045.07 338.69C1043.83 338.69 1042.86 339.193 1042.13 340.198C1041.42 341.186 1041.06 342.538 1041.06 344.254V350H1038.85ZM1053.68 331.592H1056.22V334.4H1053.68V331.592ZM1053.83 350V336.896H1056.04V350H1053.83ZM1059.62 350V336.896H1061.83V339.366C1062.3 338.551 1062.92 337.901 1063.7 337.416C1064.48 336.931 1065.36 336.688 1066.33 336.688C1067.7 336.688 1068.82 337.113 1069.68 337.962C1070.57 338.811 1071.01 339.929 1071.01 341.316V350H1068.8V341.732C1068.8 340.831 1068.53 340.103 1067.99 339.548C1067.46 338.976 1066.74 338.69 1065.84 338.69C1064.6 338.69 1063.63 339.193 1062.9 340.198C1062.19 341.186 1061.83 342.538 1061.83 344.254V350H1059.62ZM1084.27 336.896H1086.46V349.376C1086.46 351.023 1085.89 352.357 1084.74 353.38C1083.61 354.42 1082.15 354.94 1080.35 354.94C1078.82 354.94 1077.52 354.567 1076.45 353.822C1075.37 353.094 1074.74 352.141 1074.55 350.962L1076.68 350.598C1076.75 351.326 1077.12 351.915 1077.8 352.366C1078.49 352.834 1079.34 353.068 1080.35 353.068C1081.51 353.068 1082.45 352.747 1083.18 352.106C1083.91 351.465 1084.27 350.633 1084.27 349.61V347.79C1083.98 348.345 1083.44 348.795 1082.66 349.142C1081.88 349.489 1081.02 349.662 1080.09 349.662C1078.13 349.662 1076.59 349.064 1075.49 347.868C1074.39 346.655 1073.85 345.095 1073.85 343.188C1073.85 341.264 1074.39 339.704 1075.49 338.508C1076.58 337.295 1078.09 336.688 1080.04 336.688C1080.9 336.688 1081.73 336.879 1082.51 337.26C1083.29 337.624 1083.87 338.092 1084.27 338.664V336.896ZM1077.25 346.464C1078.02 347.279 1079.03 347.686 1080.3 347.686C1081.56 347.686 1082.57 347.279 1083.31 346.464C1084.07 345.649 1084.46 344.557 1084.46 343.188C1084.46 341.819 1084.07 340.727 1083.31 339.912C1082.57 339.08 1081.56 338.664 1080.3 338.664C1079.01 338.664 1077.99 339.08 1077.23 339.912C1076.48 340.727 1076.11 341.819 1076.11 343.188C1076.11 344.557 1076.49 345.649 1077.25 346.464ZM1096.41 350V331.8H1107.88V333.906H1098.78V339.262H1106.16V341.394H1098.78V347.868H1108.17V350H1096.41ZM1111.06 350V336.896H1113.27V339.366C1113.74 338.551 1114.36 337.901 1115.14 337.416C1115.92 336.931 1116.8 336.688 1117.77 336.688C1119.14 336.688 1120.26 337.113 1121.12 337.962C1122.01 338.811 1122.45 339.929 1122.45 341.316V350H1120.24V341.732C1120.24 340.831 1119.97 340.103 1119.43 339.548C1118.9 338.976 1118.18 338.69 1117.28 338.69C1116.05 338.69 1115.07 339.193 1114.34 340.198C1113.63 341.186 1113.27 342.538 1113.27 344.254V350H1111.06ZM1135.72 336.896H1137.9V349.376C1137.9 351.023 1137.33 352.357 1136.18 353.38C1135.06 354.42 1133.59 354.94 1131.79 354.94C1130.26 354.94 1128.96 354.567 1127.89 353.822C1126.81 353.094 1126.18 352.141 1125.99 350.962L1128.12 350.598C1128.19 351.326 1128.57 351.915 1129.24 352.366C1129.93 352.834 1130.78 353.068 1131.79 353.068C1132.95 353.068 1133.9 352.747 1134.62 352.106C1135.35 351.465 1135.72 350.633 1135.72 349.61V347.79C1135.42 348.345 1134.88 348.795 1134.1 349.142C1133.32 349.489 1132.47 349.662 1131.53 349.662C1129.57 349.662 1128.04 349.064 1126.93 347.868C1125.84 346.655 1125.29 345.095 1125.29 343.188C1125.29 341.264 1125.84 339.704 1126.93 338.508C1128.02 337.295 1129.54 336.688 1131.48 336.688C1132.34 336.688 1133.17 336.879 1133.95 337.26C1134.73 337.624 1135.32 338.092 1135.72 338.664V336.896ZM1128.7 346.464C1129.46 347.279 1130.47 347.686 1131.74 347.686C1133 347.686 1134.01 347.279 1134.75 346.464C1135.52 345.649 1135.9 344.557 1135.9 343.188C1135.9 341.819 1135.52 340.727 1134.75 339.912C1134.01 339.08 1133 338.664 1131.74 338.664C1130.45 338.664 1129.43 339.08 1128.67 339.912C1127.92 340.727 1127.55 341.819 1127.55 343.188C1127.55 344.557 1127.93 345.649 1128.7 346.464ZM1141.32 331.592H1143.87V334.4H1141.32V331.592ZM1141.48 350V336.896H1143.69V350H1141.48ZM1147.27 350V336.896H1149.48V339.366C1149.95 338.551 1150.57 337.901 1151.35 337.416C1152.13 336.931 1153.01 336.688 1153.98 336.688C1155.35 336.688 1156.46 337.113 1157.33 337.962C1158.22 338.811 1158.66 339.929 1158.66 341.316V350H1156.45V341.732C1156.45 340.831 1156.18 340.103 1155.64 339.548C1155.1 338.976 1154.38 338.69 1153.48 338.69C1152.25 338.69 1151.27 339.193 1150.55 340.198C1149.83 341.186 1149.48 342.538 1149.48 344.254V350H1147.27ZM1174.11 342.85C1174.11 343.214 1174.09 343.552 1174.05 343.864H1163.71C1163.78 345.181 1164.19 346.247 1164.95 347.062C1165.73 347.859 1166.71 348.258 1167.89 348.258C1168.9 348.258 1169.73 348.033 1170.39 347.582C1171.05 347.131 1171.47 346.499 1171.66 345.684L1173.74 346.178C1173.41 347.443 1172.73 348.431 1171.69 349.142C1170.67 349.853 1169.4 350.208 1167.89 350.208C1165.97 350.208 1164.42 349.558 1163.24 348.258C1162.08 346.958 1161.5 345.355 1161.5 343.448C1161.5 341.524 1162.07 339.921 1163.21 338.638C1164.37 337.338 1165.92 336.688 1167.84 336.688C1169.73 336.688 1171.25 337.286 1172.39 338.482C1173.53 339.661 1174.11 341.117 1174.11 342.85ZM1163.84 342.018H1171.77C1171.66 340.978 1171.26 340.137 1170.57 339.496C1169.88 338.855 1168.97 338.534 1167.84 338.534C1166.82 338.534 1165.95 338.846 1165.24 339.47C1164.53 340.077 1164.06 340.926 1163.84 342.018ZM1188.81 342.85C1188.81 343.214 1188.79 343.552 1188.76 343.864H1178.41C1178.48 345.181 1178.89 346.247 1179.66 347.062C1180.44 347.859 1181.41 348.258 1182.59 348.258C1183.6 348.258 1184.43 348.033 1185.09 347.582C1185.75 347.131 1186.17 346.499 1186.36 345.684L1188.44 346.178C1188.11 347.443 1187.43 348.431 1186.39 349.142C1185.37 349.853 1184.1 350.208 1182.59 350.208C1180.67 350.208 1179.12 349.558 1177.94 348.258C1176.78 346.958 1176.2 345.355 1176.2 343.448C1176.2 341.524 1176.77 339.921 1177.91 338.638C1179.07 337.338 1180.62 336.688 1182.54 336.688C1184.43 336.688 1185.95 337.286 1187.09 338.482C1188.24 339.661 1188.81 341.117 1188.81 342.85ZM1178.54 342.018H1186.47C1186.36 340.978 1185.96 340.137 1185.27 339.496C1184.58 338.855 1183.67 338.534 1182.54 338.534C1181.52 338.534 1180.65 338.846 1179.94 339.47C1179.23 340.077 1178.76 340.926 1178.54 342.018ZM1199.32 339.054C1198.84 338.846 1198.27 338.742 1197.63 338.742C1196.52 338.742 1195.61 339.279 1194.9 340.354C1194.21 341.411 1193.86 342.963 1193.86 345.008V350H1191.65V336.896H1193.86V339.548C1194.24 338.716 1194.82 338.031 1195.58 337.494C1196.34 336.957 1197.13 336.688 1197.94 336.688C1198.52 336.688 1199.02 336.766 1199.45 336.922L1199.32 339.054Z" fill="black"/>
<path d="M928.383 479V460.8H933.791C936.426 460.8 938.601 461.606 940.317 463.218C942.051 464.83 942.917 467.057 942.917 469.9C942.917 472.743 942.051 474.97 940.317 476.582C938.601 478.194 936.426 479 933.791 479H928.383ZM930.723 476.868H933.713C935.637 476.868 937.241 476.287 938.523 475.126C939.823 473.965 940.473 472.223 940.473 469.9C940.473 468.323 940.144 466.997 939.485 465.922C938.844 464.83 938.029 464.059 937.041 463.608C936.053 463.14 934.944 462.906 933.713 462.906H930.723V476.868ZM950.661 465.688C952.273 465.688 953.573 466.13 954.561 467.014C955.549 467.898 956.043 469.094 956.043 470.602V479H953.859V476.764C953.478 477.509 952.889 478.107 952.091 478.558C951.311 478.991 950.445 479.208 949.491 479.208C948.191 479.208 947.125 478.853 946.293 478.142C945.479 477.414 945.071 476.478 945.071 475.334C945.071 472.873 947.151 471.434 951.311 471.018L953.859 470.732V470.472C953.859 469.571 953.565 468.86 952.975 468.34C952.403 467.803 951.632 467.534 950.661 467.534C949.76 467.534 949.015 467.785 948.425 468.288C947.836 468.791 947.498 469.484 947.411 470.368L945.357 469.978C945.548 468.678 946.129 467.638 947.099 466.858C948.087 466.078 949.275 465.688 950.661 465.688ZM949.829 477.388C951.095 477.388 952.083 476.998 952.793 476.218C953.504 475.438 953.859 474.389 953.859 473.072V472.448L951.311 472.734C948.625 473.029 947.281 473.887 947.281 475.308C947.281 475.915 947.515 476.417 947.983 476.816C948.469 477.197 949.084 477.388 949.829 477.388ZM966.529 478.896C965.957 479.104 965.272 479.208 964.475 479.208C963.296 479.208 962.351 478.87 961.641 478.194C960.947 477.501 960.601 476.461 960.601 475.074V467.846H958.157V465.896H960.601V461.918H962.811V465.896H966.321V467.846H962.811V475.152C962.811 475.828 962.984 476.339 963.331 476.686C963.677 477.033 964.145 477.206 964.735 477.206C965.376 477.206 965.922 477.093 966.373 476.868L966.529 478.896ZM973.767 465.688C975.379 465.688 976.679 466.13 977.667 467.014C978.655 467.898 979.149 469.094 979.149 470.602V479H976.965V476.764C976.584 477.509 975.994 478.107 975.197 478.558C974.417 478.991 973.55 479.208 972.597 479.208C971.297 479.208 970.231 478.853 969.399 478.142C968.584 477.414 968.177 476.478 968.177 475.334C968.177 472.873 970.257 471.434 974.417 471.018L976.965 470.732V470.472C976.965 469.571 976.67 468.86 976.081 468.34C975.509 467.803 974.738 467.534 973.767 467.534C972.866 467.534 972.12 467.785 971.531 468.288C970.942 468.791 970.604 469.484 970.517 470.368L968.463 469.978C968.654 468.678 969.234 467.638 970.205 466.858C971.193 466.078 972.38 465.688 973.767 465.688ZM972.935 477.388C974.2 477.388 975.188 476.998 975.899 476.218C976.61 475.438 976.965 474.389 976.965 473.072V472.448L974.417 472.734C971.73 473.029 970.387 473.887 970.387 475.308C970.387 475.915 970.621 476.417 971.089 476.816C971.574 477.197 972.19 477.388 972.935 477.388ZM989.118 479V460.8H1000.58V462.906H991.484V468.262H998.868V470.394H991.484V476.868H1000.87V479H989.118ZM1003.77 479V465.896H1005.98V468.366C1006.44 467.551 1007.07 466.901 1007.85 466.416C1008.63 465.931 1009.5 465.688 1010.47 465.688C1011.84 465.688 1012.96 466.113 1013.83 466.962C1014.71 467.811 1015.15 468.929 1015.15 470.316V479H1012.94V470.732C1012.94 469.831 1012.68 469.103 1012.14 468.548C1011.6 467.976 1010.88 467.69 1009.98 467.69C1008.75 467.69 1007.77 468.193 1007.04 469.198C1006.33 470.186 1005.98 471.538 1005.98 473.254V479H1003.77ZM1028.42 465.896H1030.6V478.376C1030.6 480.023 1030.03 481.357 1028.89 482.38C1027.76 483.42 1026.29 483.94 1024.49 483.94C1022.97 483.94 1021.67 483.567 1020.59 482.822C1019.52 482.094 1018.88 481.141 1018.69 479.962L1020.83 479.598C1020.9 480.326 1021.27 480.915 1021.94 481.366C1022.64 481.834 1023.49 482.068 1024.49 482.068C1025.65 482.068 1026.6 481.747 1027.33 481.106C1028.05 480.465 1028.42 479.633 1028.42 478.61V476.79C1028.12 477.345 1027.59 477.795 1026.81 478.142C1026.03 478.489 1025.17 478.662 1024.23 478.662C1022.27 478.662 1020.74 478.064 1019.63 476.868C1018.54 475.655 1017.99 474.095 1017.99 472.188C1017.99 470.264 1018.54 468.704 1019.63 467.508C1020.72 466.295 1022.24 465.688 1024.18 465.688C1025.05 465.688 1025.87 465.879 1026.65 466.26C1027.43 466.624 1028.02 467.092 1028.42 467.664V465.896ZM1021.4 475.464C1022.16 476.279 1023.17 476.686 1024.44 476.686C1025.71 476.686 1026.71 476.279 1027.46 475.464C1028.22 474.649 1028.6 473.557 1028.6 472.188C1028.6 470.819 1028.22 469.727 1027.46 468.912C1026.71 468.08 1025.71 467.664 1024.44 467.664C1023.16 467.664 1022.13 468.08 1021.37 468.912C1020.63 469.727 1020.25 470.819 1020.25 472.188C1020.25 473.557 1020.64 474.649 1021.4 475.464ZM1034.03 460.592H1036.58V463.4H1034.03V460.592ZM1034.18 479V465.896H1036.39V479H1034.18ZM1039.97 479V465.896H1042.18V468.366C1042.65 467.551 1043.27 466.901 1044.05 466.416C1044.83 465.931 1045.71 465.688 1046.68 465.688C1048.05 465.688 1049.17 466.113 1050.03 466.962C1050.92 467.811 1051.36 468.929 1051.36 470.316V479H1049.15V470.732C1049.15 469.831 1048.88 469.103 1048.34 468.548C1047.81 467.976 1047.09 467.69 1046.19 467.69C1044.96 467.69 1043.98 468.193 1043.25 469.198C1042.54 470.186 1042.18 471.538 1042.18 473.254V479H1039.97ZM1066.81 471.85C1066.81 472.214 1066.79 472.552 1066.76 472.864H1056.41C1056.48 474.181 1056.89 475.247 1057.66 476.062C1058.44 476.859 1059.42 477.258 1060.6 477.258C1061.6 477.258 1062.43 477.033 1063.09 476.582C1063.75 476.131 1064.17 475.499 1064.37 474.684L1066.45 475.178C1066.12 476.443 1065.43 477.431 1064.39 478.142C1063.37 478.853 1062.1 479.208 1060.6 479.208C1058.67 479.208 1057.12 478.558 1055.94 477.258C1054.78 475.958 1054.2 474.355 1054.2 472.448C1054.2 470.524 1054.77 468.921 1055.92 467.638C1057.08 466.338 1058.62 465.688 1060.54 465.688C1062.43 465.688 1063.95 466.286 1065.09 467.482C1066.24 468.661 1066.81 470.117 1066.81 471.85ZM1056.54 471.018H1064.47C1064.37 469.978 1063.97 469.137 1063.27 468.496C1062.58 467.855 1061.67 467.534 1060.54 467.534C1059.52 467.534 1058.65 467.846 1057.94 468.47C1057.23 469.077 1056.76 469.926 1056.54 471.018ZM1081.51 471.85C1081.51 472.214 1081.49 472.552 1081.46 472.864H1071.11C1071.18 474.181 1071.6 475.247 1072.36 476.062C1073.14 476.859 1074.12 477.258 1075.3 477.258C1076.3 477.258 1077.13 477.033 1077.79 476.582C1078.45 476.131 1078.88 475.499 1079.07 474.684L1081.15 475.178C1080.82 476.443 1080.13 477.431 1079.09 478.142C1078.07 478.853 1076.8 479.208 1075.3 479.208C1073.37 479.208 1071.82 478.558 1070.64 477.258C1069.48 475.958 1068.9 474.355 1068.9 472.448C1068.9 470.524 1069.47 468.921 1070.62 467.638C1071.78 466.338 1073.32 465.688 1075.24 465.688C1077.13 465.688 1078.65 466.286 1079.79 467.482C1080.94 468.661 1081.51 470.117 1081.51 471.85ZM1071.24 471.018H1079.17C1079.07 469.978 1078.67 469.137 1077.97 468.496C1077.28 467.855 1076.37 467.534 1075.24 467.534C1074.22 467.534 1073.36 467.846 1072.64 468.47C1071.93 469.077 1071.47 469.926 1071.24 471.018ZM1092.03 468.054C1091.54 467.846 1090.98 467.742 1090.34 467.742C1089.23 467.742 1088.32 468.279 1087.61 469.354C1086.91 470.411 1086.57 471.963 1086.57 474.008V479H1084.36V465.896H1086.57V468.548C1086.95 467.716 1087.52 467.031 1088.28 466.494C1089.04 465.957 1089.83 465.688 1090.65 465.688C1091.22 465.688 1091.72 465.766 1092.16 465.922L1092.03 468.054Z" fill="black"/>
<path d="M199.095 462V443.8H204.503C207.138 443.8 209.313 444.606 211.029 446.218C212.763 447.83 213.629 450.057 213.629 452.9C213.629 455.743 212.763 457.97 211.029 459.582C209.313 461.194 207.138 462 204.503 462H199.095ZM201.435 459.868H204.425C206.349 459.868 207.953 459.287 209.235 458.126C210.535 456.965 211.185 455.223 211.185 452.9C211.185 451.323 210.856 449.997 210.197 448.922C209.556 447.83 208.741 447.059 207.753 446.608C206.765 446.14 205.656 445.906 204.425 445.906H201.435V459.868ZM221.373 448.688C222.985 448.688 224.285 449.13 225.273 450.014C226.261 450.898 226.755 452.094 226.755 453.602V462H224.571V459.764C224.19 460.509 223.601 461.107 222.803 461.558C222.023 461.991 221.157 462.208 220.203 462.208C218.903 462.208 217.837 461.853 217.005 461.142C216.191 460.414 215.783 459.478 215.783 458.334C215.783 455.873 217.863 454.434 222.023 454.018L224.571 453.732V453.472C224.571 452.571 224.277 451.86 223.687 451.34C223.115 450.803 222.344 450.534 221.373 450.534C220.472 450.534 219.727 450.785 219.137 451.288C218.548 451.791 218.21 452.484 218.123 453.368L216.069 452.978C216.26 451.678 216.841 450.638 217.811 449.858C218.799 449.078 219.987 448.688 221.373 448.688ZM220.541 460.388C221.807 460.388 222.795 459.998 223.505 459.218C224.216 458.438 224.571 457.389 224.571 456.072V455.448L222.023 455.734C219.337 456.029 217.993 456.887 217.993 458.308C217.993 458.915 218.227 459.417 218.695 459.816C219.181 460.197 219.796 460.388 220.541 460.388ZM237.241 461.896C236.669 462.104 235.984 462.208 235.187 462.208C234.008 462.208 233.063 461.87 232.353 461.194C231.659 460.501 231.313 459.461 231.313 458.074V450.846H228.869V448.896H231.313V444.918H233.523V448.896H237.033V450.846H233.523V458.152C233.523 458.828 233.696 459.339 234.043 459.686C234.389 460.033 234.857 460.206 235.447 460.206C236.088 460.206 236.634 460.093 237.085 459.868L237.241 461.896ZM244.479 448.688C246.091 448.688 247.391 449.13 248.379 450.014C249.367 450.898 249.861 452.094 249.861 453.602V462H247.677V459.764C247.296 460.509 246.706 461.107 245.909 461.558C245.129 461.991 244.262 462.208 243.309 462.208C242.009 462.208 240.943 461.853 240.111 461.142C239.296 460.414 238.889 459.478 238.889 458.334C238.889 455.873 240.969 454.434 245.129 454.018L247.677 453.732V453.472C247.677 452.571 247.382 451.86 246.793 451.34C246.221 450.803 245.45 450.534 244.479 450.534C243.578 450.534 242.832 450.785 242.243 451.288C241.654 451.791 241.316 452.484 241.229 453.368L239.175 452.978C239.366 451.678 239.946 450.638 240.917 449.858C241.905 449.078 243.092 448.688 244.479 448.688ZM243.647 460.388C244.912 460.388 245.9 459.998 246.611 459.218C247.322 458.438 247.677 457.389 247.677 456.072V455.448L245.129 455.734C242.442 456.029 241.099 456.887 241.099 458.308C241.099 458.915 241.333 459.417 241.801 459.816C242.286 460.197 242.902 460.388 243.647 460.388ZM272.284 462L270.49 457.372H262.404L260.61 462H258.166L265.368 443.8H267.526L274.754 462H272.284ZM263.21 455.266H269.684L266.46 446.92L263.21 455.266ZM276.788 462V448.896H278.998V451.366C279.466 450.551 280.09 449.901 280.87 449.416C281.65 448.931 282.525 448.688 283.496 448.688C284.865 448.688 285.983 449.113 286.85 449.962C287.734 450.811 288.176 451.929 288.176 453.316V462H285.966V453.732C285.966 452.831 285.697 452.103 285.16 451.548C284.623 450.976 283.903 450.69 283.002 450.69C281.771 450.69 280.792 451.193 280.064 452.198C279.353 453.186 278.998 454.538 278.998 456.254V462H276.788ZM296.657 448.688C298.269 448.688 299.569 449.13 300.557 450.014C301.545 450.898 302.039 452.094 302.039 453.602V462H299.855V459.764C299.473 460.509 298.884 461.107 298.087 461.558C297.307 461.991 296.44 462.208 295.487 462.208C294.187 462.208 293.121 461.853 292.289 461.142C291.474 460.414 291.067 459.478 291.067 458.334C291.067 455.873 293.147 454.434 297.307 454.018L299.855 453.732V453.472C299.855 452.571 299.56 451.86 298.971 451.34C298.399 450.803 297.627 450.534 296.657 450.534C295.755 450.534 295.01 450.785 294.421 451.288C293.831 451.791 293.493 452.484 293.407 453.368L291.353 452.978C291.543 451.678 292.124 450.638 293.095 449.858C294.083 449.078 295.27 448.688 296.657 448.688ZM295.825 460.388C297.09 460.388 298.078 459.998 298.789 459.218C299.499 458.438 299.855 457.389 299.855 456.072V455.448L297.307 455.734C294.62 456.029 293.277 456.887 293.277 458.308C293.277 458.915 293.511 459.417 293.979 459.816C294.464 460.197 295.079 460.388 295.825 460.388ZM305.632 462L305.632 443.592H307.842L307.842 462H305.632ZM320.053 448.896H322.315L315.451 466.732H313.189L315.087 461.818L309.965 448.896H312.357L316.205 458.932L320.053 448.896ZM328.612 462.208C327.156 462.208 325.96 461.835 325.024 461.09C324.105 460.345 323.481 459.443 323.152 458.386L325.05 457.554C325.639 459.409 326.826 460.336 328.612 460.336C329.392 460.336 330.024 460.145 330.51 459.764C331.012 459.365 331.264 458.889 331.264 458.334C331.264 457.727 331.004 457.251 330.484 456.904C329.964 456.557 329.331 456.297 328.586 456.124C327.858 455.951 327.121 455.76 326.376 455.552C325.648 455.327 325.024 454.937 324.504 454.382C323.984 453.827 323.724 453.091 323.724 452.172C323.724 451.132 324.14 450.291 324.972 449.65C325.804 449.009 326.922 448.688 328.326 448.688C329.487 448.688 330.518 448.991 331.42 449.598C332.321 450.187 332.91 450.959 333.188 451.912L331.342 452.718C331.168 452.059 330.787 451.531 330.198 451.132C329.626 450.716 328.984 450.508 328.274 450.508C327.528 450.508 326.939 450.655 326.506 450.95C326.072 451.227 325.856 451.626 325.856 452.146C325.856 452.579 326.038 452.935 326.402 453.212C326.783 453.489 327.251 453.689 327.806 453.81C328.378 453.914 328.993 454.07 329.652 454.278C330.31 454.469 330.917 454.685 331.472 454.928C332.026 455.171 332.486 455.587 332.85 456.176C333.231 456.748 333.422 457.459 333.422 458.308C333.422 459.452 332.98 460.388 332.096 461.116C331.212 461.844 330.05 462.208 328.612 462.208ZM343.018 461.896C342.446 462.104 341.761 462.208 340.964 462.208C339.785 462.208 338.841 461.87 338.13 461.194C337.437 460.501 337.09 459.461 337.09 458.074L337.09 450.846H334.646V448.896H337.09V444.918H339.3V448.896H342.81V450.846H339.3L339.3 458.152C339.3 458.828 339.473 459.339 339.82 459.686C340.167 460.033 340.635 460.206 341.224 460.206C341.865 460.206 342.411 460.093 342.862 459.868L343.018 461.896Z" fill="white"/>
<path d="M566.427 306V287.8H571.835C574.47 287.8 576.645 288.606 578.361 290.218C580.095 291.83 580.961 294.057 580.961 296.9C580.961 299.743 580.095 301.97 578.361 303.582C576.645 305.194 574.47 306 571.835 306H566.427ZM568.767 303.868H571.757C573.681 303.868 575.285 303.287 576.567 302.126C577.867 300.965 578.517 299.223 578.517 296.9C578.517 295.323 578.188 293.997 577.529 292.922C576.888 291.83 576.073 291.059 575.085 290.608C574.097 290.14 572.988 289.906 571.757 289.906H568.767V303.868ZM588.705 292.688C590.317 292.688 591.617 293.13 592.605 294.014C593.593 294.898 594.087 296.094 594.087 297.602V306H591.903V303.764C591.522 304.509 590.933 305.107 590.135 305.558C589.355 305.991 588.489 306.208 587.535 306.208C586.235 306.208 585.169 305.853 584.337 305.142C583.523 304.414 583.115 303.478 583.115 302.334C583.115 299.873 585.195 298.434 589.355 298.018L591.903 297.732V297.472C591.903 296.571 591.609 295.86 591.019 295.34C590.447 294.803 589.676 294.534 588.705 294.534C587.804 294.534 587.059 294.785 586.469 295.288C585.88 295.791 585.542 296.484 585.455 297.368L583.401 296.978C583.592 295.678 584.173 294.638 585.143 293.858C586.131 293.078 587.319 292.688 588.705 292.688ZM587.873 304.388C589.139 304.388 590.127 303.998 590.837 303.218C591.548 302.438 591.903 301.389 591.903 300.072V299.448L589.355 299.734C586.669 300.029 585.325 300.887 585.325 302.308C585.325 302.915 585.559 303.417 586.027 303.816C586.513 304.197 587.128 304.388 587.873 304.388ZM604.573 305.896C604.001 306.104 603.316 306.208 602.519 306.208C601.34 306.208 600.395 305.87 599.685 305.194C598.991 304.501 598.645 303.461 598.645 302.074V294.846H596.201V292.896H598.645V288.918H600.855V292.896H604.365V294.846H600.855V302.152C600.855 302.828 601.028 303.339 601.375 303.686C601.721 304.033 602.189 304.206 602.779 304.206C603.42 304.206 603.966 304.093 604.417 303.868L604.573 305.896ZM611.811 292.688C613.423 292.688 614.723 293.13 615.711 294.014C616.699 294.898 617.193 296.094 617.193 297.602V306H615.009V303.764C614.628 304.509 614.038 305.107 613.241 305.558C612.461 305.991 611.594 306.208 610.641 306.208C609.341 306.208 608.275 305.853 607.443 305.142C606.628 304.414 606.221 303.478 606.221 302.334C606.221 299.873 608.301 298.434 612.461 298.018L615.009 297.732V297.472C615.009 296.571 614.714 295.86 614.125 295.34C613.553 294.803 612.782 294.534 611.811 294.534C610.91 294.534 610.164 294.785 609.575 295.288C608.986 295.791 608.648 296.484 608.561 297.368L606.507 296.978C606.698 295.678 607.278 294.638 608.249 293.858C609.237 293.078 610.424 292.688 611.811 292.688ZM610.979 304.388C612.244 304.388 613.232 303.998 613.943 303.218C614.654 302.438 615.009 301.389 615.009 300.072V299.448L612.461 299.734C609.774 300.029 608.431 300.887 608.431 302.308C608.431 302.915 608.665 303.417 609.133 303.816C609.618 304.197 610.234 304.388 610.979 304.388ZM632.934 306.208C631.183 306.208 629.666 305.697 628.384 304.674C627.101 303.634 626.312 302.282 626.018 300.618L628.254 299.89C628.427 301.155 628.956 302.178 629.84 302.958C630.724 303.721 631.772 304.102 632.986 304.102C634.234 304.102 635.23 303.833 635.976 303.296C636.721 302.741 637.094 302.013 637.094 301.112C637.094 300.367 636.834 299.743 636.314 299.24C635.811 298.72 635.178 298.347 634.416 298.122C633.653 297.879 632.821 297.611 631.92 297.316C631.018 297.021 630.186 296.718 629.424 296.406C628.661 296.094 628.02 295.591 627.5 294.898C626.997 294.205 626.746 293.355 626.746 292.35C626.746 290.946 627.318 289.802 628.462 288.918C629.606 288.034 631.079 287.592 632.882 287.592C634.546 287.592 635.967 288.008 637.146 288.84C638.324 289.655 639.026 290.738 639.252 292.09L637.094 292.922C636.903 291.934 636.435 291.154 635.69 290.582C634.962 289.993 634.026 289.698 632.882 289.698C631.72 289.698 630.802 289.941 630.126 290.426C629.467 290.894 629.138 291.535 629.138 292.35C629.138 292.905 629.328 293.373 629.71 293.754C630.091 294.135 630.585 294.43 631.192 294.638C631.816 294.846 632.492 295.045 633.22 295.236C633.965 295.427 634.702 295.652 635.43 295.912C636.175 296.172 636.851 296.501 637.458 296.9C638.082 297.281 638.584 297.827 638.966 298.538C639.347 299.249 639.538 300.098 639.538 301.086C639.538 302.629 638.931 303.868 637.718 304.804C636.522 305.74 634.927 306.208 632.934 306.208ZM648.038 306.208C646.097 306.208 644.528 305.593 643.332 304.362C642.136 303.114 641.538 301.476 641.538 299.448C641.538 297.42 642.136 295.791 643.332 294.56C644.528 293.312 646.097 292.688 648.038 292.688C649.563 292.688 650.837 293.078 651.86 293.858C652.9 294.621 653.541 295.652 653.784 296.952L651.6 297.394C651.461 296.597 651.071 295.947 650.43 295.444C649.789 294.924 649.009 294.664 648.09 294.664C646.807 294.664 645.776 295.106 644.996 295.99C644.233 296.857 643.852 298.009 643.852 299.448C643.852 300.887 644.233 302.048 644.996 302.932C645.776 303.799 646.807 304.232 648.09 304.232C649.026 304.232 649.806 303.989 650.43 303.504C651.071 303.019 651.479 302.343 651.652 301.476L653.81 301.918C653.533 303.27 652.874 304.327 651.834 305.09C650.811 305.835 649.546 306.208 648.038 306.208ZM656.406 287.592H658.954V290.4H656.406V287.592ZM656.562 306V292.896H658.772V306H656.562ZM674.207 298.85C674.207 299.214 674.189 299.552 674.155 299.864H663.807C663.876 301.181 664.292 302.247 665.055 303.062C665.835 303.859 666.814 304.258 667.993 304.258C668.998 304.258 669.83 304.033 670.489 303.582C671.147 303.131 671.572 302.499 671.763 301.684L673.843 302.178C673.513 303.443 672.829 304.431 671.789 305.142C670.766 305.853 669.501 306.208 667.993 306.208C666.069 306.208 664.517 305.558 663.339 304.258C662.177 302.958 661.597 301.355 661.597 299.448C661.597 297.524 662.169 295.921 663.313 294.638C664.474 293.338 666.017 292.688 667.941 292.688C669.83 292.688 671.347 293.286 672.491 294.482C673.635 295.661 674.207 297.117 674.207 298.85ZM663.937 298.018H671.867C671.763 296.978 671.364 296.137 670.671 295.496C669.977 294.855 669.067 294.534 667.941 294.534C666.918 294.534 666.051 294.846 665.341 295.47C664.63 296.077 664.162 296.926 663.937 298.018ZM677.052 306V292.896H679.262V295.366C679.73 294.551 680.354 293.901 681.134 293.416C681.914 292.931 682.789 292.688 683.76 292.688C685.129 292.688 686.247 293.113 687.114 293.962C687.998 294.811 688.44 295.929 688.44 297.316V306H686.23V297.732C686.23 296.831 685.961 296.103 685.424 295.548C684.886 294.976 684.167 294.69 683.266 294.69C682.035 294.69 681.056 295.193 680.328 296.198C679.617 297.186 679.262 298.538 679.262 300.254V306H677.052ZM698.518 305.896C697.946 306.104 697.261 306.208 696.464 306.208C695.285 306.208 694.341 305.87 693.63 305.194C692.937 304.501 692.59 303.461 692.59 302.074V294.846H690.146V292.896H692.59V288.918H694.8V292.896H698.31V294.846H694.8V302.152C694.8 302.828 694.973 303.339 695.32 303.686C695.667 304.033 696.135 304.206 696.724 304.206C697.365 304.206 697.911 304.093 698.362 303.868L698.518 305.896ZM700.941 287.592H703.489V290.4H700.941V287.592ZM701.097 306V292.896H703.307V306H701.097ZM711.28 306.208C709.824 306.208 708.628 305.835 707.692 305.09C706.773 304.345 706.149 303.443 705.82 302.386L707.718 301.554C708.307 303.409 709.494 304.336 711.28 304.336C712.06 304.336 712.692 304.145 713.178 303.764C713.68 303.365 713.932 302.889 713.932 302.334C713.932 301.727 713.672 301.251 713.152 300.904C712.632 300.557 711.999 300.297 711.254 300.124C710.526 299.951 709.789 299.76 709.044 299.552C708.316 299.327 707.692 298.937 707.172 298.382C706.652 297.827 706.392 297.091 706.392 296.172C706.392 295.132 706.808 294.291 707.64 293.65C708.472 293.009 709.59 292.688 710.994 292.688C712.155 292.688 713.186 292.991 714.088 293.598C714.989 294.187 715.578 294.959 715.856 295.912L714.01 296.718C713.836 296.059 713.455 295.531 712.866 295.132C712.294 294.716 711.652 294.508 710.942 294.508C710.196 294.508 709.607 294.655 709.174 294.95C708.74 295.227 708.524 295.626 708.524 296.146C708.524 296.579 708.706 296.935 709.07 297.212C709.451 297.489 709.919 297.689 710.474 297.81C711.046 297.914 711.661 298.07 712.32 298.278C712.978 298.469 713.585 298.685 714.14 298.928C714.694 299.171 715.154 299.587 715.518 300.176C715.899 300.748 716.09 301.459 716.09 302.308C716.09 303.452 715.648 304.388 714.764 305.116C713.88 305.844 712.718 306.208 711.28 306.208ZM725.686 305.896C725.114 306.104 724.429 306.208 723.632 306.208C722.453 306.208 721.508 305.87 720.798 305.194C720.104 304.501 719.758 303.461 719.758 302.074V294.846H717.314V292.896H719.758V288.918H721.968V292.896H725.478V294.846H721.968V302.152C721.968 302.828 722.141 303.339 722.488 303.686C722.834 304.033 723.302 304.206 723.892 304.206C724.533 304.206 725.079 304.093 725.53 303.868L725.686 305.896Z" fill="black"/>
<rect x="578" y="438" width="232" height="100" fill="black"/>
<rect x="504" y="366" width="296" height="100" fill="#25ABEB"/>
<rect x="386" y="415" width="182" height="100" fill="#F3F4F6"/>
<path d="M612.748 409L610.954 404.372H602.868L601.074 409H598.63L605.832 390.8H607.99L615.218 409H612.748ZM603.674 402.266H610.148L606.924 393.92L603.674 402.266ZM617.252 409V395.896H619.462V398.366C619.93 397.551 620.554 396.901 621.334 396.416C622.114 395.931 622.989 395.688 623.96 395.688C625.329 395.688 626.447 396.113 627.314 396.962C628.198 397.811 628.64 398.929 628.64 400.316V409H626.43V400.732C626.43 399.831 626.161 399.103 625.624 398.548C625.087 397.976 624.367 397.69 623.466 397.69C622.235 397.69 621.256 398.193 620.528 399.198C619.817 400.186 619.462 401.538 619.462 403.254V409H617.252ZM637.12 395.688C638.732 395.688 640.032 396.13 641.02 397.014C642.008 397.898 642.502 399.094 642.502 400.602V409H640.318V406.764C639.937 407.509 639.348 408.107 638.55 408.558C637.77 408.991 636.904 409.208 635.95 409.208C634.65 409.208 633.584 408.853 632.752 408.142C631.938 407.414 631.53 406.478 631.53 405.334C631.53 402.873 633.61 401.434 637.77 401.018L640.318 400.732V400.472C640.318 399.571 640.024 398.86 639.434 398.34C638.862 397.803 638.091 397.534 637.12 397.534C636.219 397.534 635.474 397.785 634.884 398.288C634.295 398.791 633.957 399.484 633.87 400.368L631.816 399.978C632.007 398.678 632.588 397.638 633.558 396.858C634.546 396.078 635.734 395.688 637.12 395.688ZM636.288 407.388C637.554 407.388 638.542 406.998 639.252 406.218C639.963 405.438 640.318 404.389 640.318 403.072V402.448L637.77 402.734C635.084 403.029 633.74 403.887 633.74 405.308C633.74 405.915 633.974 406.417 634.442 406.816C634.928 407.197 635.543 407.388 636.288 407.388ZM646.096 409V390.592H648.306V409H646.096ZM660.517 395.896H662.779L655.915 413.732H653.653L655.551 408.818L650.429 395.896H652.821L656.669 405.932L660.517 395.896ZM671.878 408.896C671.306 409.104 670.622 409.208 669.824 409.208C668.646 409.208 667.701 408.87 666.99 408.194C666.297 407.501 665.95 406.461 665.95 405.074V397.846H663.506V395.896H665.95V391.918H668.16V395.896H671.67V397.846H668.16V405.152C668.16 405.828 668.334 406.339 668.68 406.686C669.027 407.033 669.495 407.206 670.084 407.206C670.726 407.206 671.272 407.093 671.722 406.868L671.878 408.896ZM674.301 390.592H676.849V393.4H674.301V390.592ZM674.457 409V395.896H676.667V409H674.457ZM685.992 409.208C684.051 409.208 682.482 408.593 681.286 407.362C680.09 406.114 679.492 404.476 679.492 402.448C679.492 400.42 680.09 398.791 681.286 397.56C682.482 396.312 684.051 395.688 685.992 395.688C687.517 395.688 688.791 396.078 689.814 396.858C690.854 397.621 691.495 398.652 691.738 399.952L689.554 400.394C689.415 399.597 689.025 398.947 688.384 398.444C687.743 397.924 686.963 397.664 686.044 397.664C684.761 397.664 683.73 398.106 682.95 398.99C682.187 399.857 681.806 401.009 681.806 402.448C681.806 403.887 682.187 405.048 682.95 405.932C683.73 406.799 684.761 407.232 686.044 407.232C686.98 407.232 687.76 406.989 688.384 406.504C689.025 406.019 689.433 405.343 689.606 404.476L691.764 404.918C691.487 406.27 690.828 407.327 689.788 408.09C688.765 408.835 687.5 409.208 685.992 409.208ZM698.783 409.208C697.327 409.208 696.131 408.835 695.195 408.09C694.276 407.345 693.652 406.443 693.323 405.386L695.221 404.554C695.81 406.409 696.997 407.336 698.783 407.336C699.563 407.336 700.195 407.145 700.681 406.764C701.183 406.365 701.435 405.889 701.435 405.334C701.435 404.727 701.175 404.251 700.655 403.904C700.135 403.557 699.502 403.297 698.757 403.124C698.029 402.951 697.292 402.76 696.547 402.552C695.819 402.327 695.195 401.937 694.675 401.382C694.155 400.827 693.895 400.091 693.895 399.172C693.895 398.132 694.311 397.291 695.143 396.65C695.975 396.009 697.093 395.688 698.497 395.688C699.658 395.688 700.689 395.991 701.591 396.598C702.492 397.187 703.081 397.959 703.359 398.912L701.513 399.718C701.339 399.059 700.958 398.531 700.369 398.132C699.797 397.716 699.155 397.508 698.445 397.508C697.699 397.508 697.11 397.655 696.677 397.95C696.243 398.227 696.027 398.626 696.027 399.146C696.027 399.579 696.209 399.935 696.573 400.212C696.954 400.489 697.422 400.689 697.977 400.81C698.549 400.914 699.164 401.07 699.823 401.278C700.481 401.469 701.088 401.685 701.643 401.928C702.197 402.171 702.657 402.587 703.021 403.176C703.402 403.748 703.593 404.459 703.593 405.308C703.593 406.452 703.151 407.388 702.267 408.116C701.383 408.844 700.221 409.208 698.783 409.208ZM600.751 440V421.8H612.217V423.906H603.117V429.262H610.501V431.394H603.117V437.868H612.503V440H600.751ZM615.398 440V426.896H617.608V429.366C618.076 428.551 618.7 427.901 619.48 427.416C620.26 426.931 621.136 426.688 622.106 426.688C623.476 426.688 624.594 427.113 625.46 427.962C626.344 428.811 626.786 429.929 626.786 431.316V440H624.576V431.732C624.576 430.831 624.308 430.103 623.77 429.548C623.233 428.976 622.514 428.69 621.612 428.69C620.382 428.69 619.402 429.193 618.674 430.198C617.964 431.186 617.608 432.538 617.608 434.254V440H615.398ZM640.051 426.896H642.235V439.376C642.235 441.023 641.663 442.357 640.519 443.38C639.392 444.42 637.928 444.94 636.125 444.94C634.6 444.94 633.3 444.567 632.225 443.822C631.15 443.094 630.518 442.141 630.327 440.962L632.459 440.598C632.528 441.326 632.901 441.915 633.577 442.366C634.27 442.834 635.12 443.068 636.125 443.068C637.286 443.068 638.231 442.747 638.959 442.106C639.687 441.465 640.051 440.633 640.051 439.61V437.79C639.756 438.345 639.219 438.795 638.439 439.142C637.659 439.489 636.801 439.662 635.865 439.662C633.906 439.662 632.372 439.064 631.263 437.868C630.171 436.655 629.625 435.095 629.625 433.188C629.625 431.264 630.171 429.704 631.263 428.508C632.355 427.295 633.872 426.688 635.813 426.688C636.68 426.688 637.503 426.879 638.283 427.26C639.063 427.624 639.652 428.092 640.051 428.664V426.896ZM633.031 436.464C633.794 437.279 634.808 437.686 636.073 437.686C637.338 437.686 638.344 437.279 639.089 436.464C639.852 435.649 640.233 434.557 640.233 433.188C640.233 431.819 639.852 430.727 639.089 429.912C638.344 429.08 637.338 428.664 636.073 428.664C634.79 428.664 633.768 429.08 633.005 429.912C632.26 430.727 631.887 431.819 631.887 433.188C631.887 434.557 632.268 435.649 633.031 436.464ZM645.66 421.592H648.208V424.4H645.66V421.592ZM645.816 440V426.896H648.026V440H645.816ZM651.606 440V426.896H653.816V429.366C654.284 428.551 654.908 427.901 655.688 427.416C656.468 426.931 657.343 426.688 658.314 426.688C659.683 426.688 660.801 427.113 661.668 427.962C662.552 428.811 662.994 429.929 662.994 431.316V440H660.784V431.732C660.784 430.831 660.515 430.103 659.978 429.548C659.44 428.976 658.721 428.69 657.82 428.69C656.589 428.69 655.61 429.193 654.882 430.198C654.171 431.186 653.816 432.538 653.816 434.254V440H651.606ZM678.442 432.85C678.442 433.214 678.425 433.552 678.39 433.864H668.042C668.111 435.181 668.527 436.247 669.29 437.062C670.07 437.859 671.049 438.258 672.228 438.258C673.233 438.258 674.065 438.033 674.724 437.582C675.383 437.131 675.807 436.499 675.998 435.684L678.078 436.178C677.749 437.443 677.064 438.431 676.024 439.142C675.001 439.853 673.736 440.208 672.228 440.208C670.304 440.208 668.753 439.558 667.574 438.258C666.413 436.958 665.832 435.355 665.832 433.448C665.832 431.524 666.404 429.921 667.548 428.638C668.709 427.338 670.252 426.688 672.176 426.688C674.065 426.688 675.582 427.286 676.726 428.482C677.87 429.661 678.442 431.117 678.442 432.85ZM668.172 432.018H676.102C675.998 430.978 675.599 430.137 674.906 429.496C674.213 428.855 673.303 428.534 672.176 428.534C671.153 428.534 670.287 428.846 669.576 429.47C668.865 430.077 668.397 430.926 668.172 432.018ZM693.143 432.85C693.143 433.214 693.126 433.552 693.091 433.864H682.743C682.812 435.181 683.228 436.247 683.991 437.062C684.771 437.859 685.75 438.258 686.929 438.258C687.934 438.258 688.766 438.033 689.425 437.582C690.084 437.131 690.508 436.499 690.699 435.684L692.779 436.178C692.45 437.443 691.765 438.431 690.725 439.142C689.702 439.853 688.437 440.208 686.929 440.208C685.005 440.208 683.454 439.558 682.275 438.258C681.114 436.958 680.533 435.355 680.533 433.448C680.533 431.524 681.105 429.921 682.249 428.638C683.41 427.338 684.953 426.688 686.877 426.688C688.766 426.688 690.283 427.286 691.427 428.482C692.571 429.661 693.143 431.117 693.143 432.85ZM682.873 432.018H690.803C690.699 430.978 690.3 430.137 689.607 429.496C688.914 428.855 688.004 428.534 686.877 428.534C685.854 428.534 684.988 428.846 684.277 429.47C683.566 430.077 683.098 430.926 682.873 432.018ZM703.658 429.054C703.173 428.846 702.61 428.742 701.968 428.742C700.859 428.742 699.949 429.279 699.238 430.354C698.545 431.411 698.198 432.963 698.198 435.008V440H695.988V426.896H698.198V429.548C698.58 428.716 699.152 428.031 699.914 427.494C700.677 426.957 701.466 426.688 702.28 426.688C702.852 426.688 703.355 426.766 703.788 426.922L703.658 429.054Z" fill="black"/>
<path d="M627.083 497V478.8H633.661C635.394 478.8 636.755 479.216 637.743 480.048C638.731 480.863 639.225 482.007 639.225 483.48C639.225 484.277 638.991 485.005 638.523 485.664C638.055 486.305 637.491 486.765 636.833 487.042C638.965 487.787 640.031 489.339 640.031 491.696C640.031 493.343 639.502 494.643 638.445 495.596C637.387 496.532 635.923 497 634.051 497H627.083ZM629.423 486.288H633.557C635.775 486.288 636.885 485.378 636.885 483.558C636.885 481.738 635.775 480.828 633.557 480.828H629.423V486.288ZM629.423 494.868H633.661C636.33 494.868 637.665 493.793 637.665 491.644C637.665 489.46 636.33 488.368 633.661 488.368H629.423V494.868ZM643.002 497V478.8H645.368V497H643.002ZM655.419 497V478.8H666.885V480.906H657.785V486.262H665.169V488.394H657.785V494.868H667.171V497H655.419ZM670.066 497V483.896H672.276V486.366C672.744 485.551 673.368 484.901 674.148 484.416C674.928 483.931 675.804 483.688 676.774 483.688C678.144 483.688 679.262 484.113 680.128 484.962C681.012 485.811 681.454 486.929 681.454 488.316V497H679.244V488.732C679.244 487.831 678.976 487.103 678.438 486.548C677.901 485.976 677.182 485.69 676.28 485.69C675.05 485.69 674.07 486.193 673.342 487.198C672.632 488.186 672.276 489.538 672.276 491.254V497H670.066ZM694.719 483.896H696.903V496.376C696.903 498.023 696.331 499.357 695.187 500.38C694.06 501.42 692.596 501.94 690.793 501.94C689.268 501.94 687.968 501.567 686.893 500.822C685.818 500.094 685.186 499.141 684.995 497.962L687.127 497.598C687.196 498.326 687.569 498.915 688.245 499.366C688.938 499.834 689.788 500.068 690.793 500.068C691.954 500.068 692.899 499.747 693.627 499.106C694.355 498.465 694.719 497.633 694.719 496.61V494.79C694.424 495.345 693.887 495.795 693.107 496.142C692.327 496.489 691.469 496.662 690.533 496.662C688.574 496.662 687.04 496.064 685.931 494.868C684.839 493.655 684.293 492.095 684.293 490.188C684.293 488.264 684.839 486.704 685.931 485.508C687.023 484.295 688.54 483.688 690.481 483.688C691.348 483.688 692.171 483.879 692.951 484.26C693.731 484.624 694.32 485.092 694.719 485.664V483.896ZM687.699 493.464C688.462 494.279 689.476 494.686 690.741 494.686C692.006 494.686 693.012 494.279 693.757 493.464C694.52 492.649 694.901 491.557 694.901 490.188C694.901 488.819 694.52 487.727 693.757 486.912C693.012 486.08 692.006 485.664 690.741 485.664C689.458 485.664 688.436 486.08 687.673 486.912C686.928 487.727 686.555 488.819 686.555 490.188C686.555 491.557 686.936 492.649 687.699 493.464ZM700.328 478.592H702.876V481.4H700.328V478.592ZM700.484 497V483.896H702.694V497H700.484ZM706.273 497V483.896H708.483V486.366C708.951 485.551 709.575 484.901 710.355 484.416C711.135 483.931 712.011 483.688 712.981 483.688C714.351 483.688 715.469 484.113 716.335 484.962C717.219 485.811 717.661 486.929 717.661 488.316V497H715.451V488.732C715.451 487.831 715.183 487.103 714.645 486.548C714.108 485.976 713.389 485.69 712.487 485.69C711.257 485.69 710.277 486.193 709.549 487.198C708.839 488.186 708.483 489.538 708.483 491.254V497H706.273ZM733.11 489.85C733.11 490.214 733.093 490.552 733.058 490.864H722.71C722.779 492.181 723.195 493.247 723.958 494.062C724.738 494.859 725.717 495.258 726.896 495.258C727.901 495.258 728.733 495.033 729.392 494.582C730.051 494.131 730.475 493.499 730.666 492.684L732.746 493.178C732.417 494.443 731.732 495.431 730.692 496.142C729.669 496.853 728.404 497.208 726.896 497.208C724.972 497.208 723.421 496.558 722.242 495.258C721.081 493.958 720.5 492.355 720.5 490.448C720.5 488.524 721.072 486.921 722.216 485.638C723.377 484.338 724.92 483.688 726.844 483.688C728.733 483.688 730.25 484.286 731.394 485.482C732.538 486.661 733.11 488.117 733.11 489.85ZM722.84 489.018H730.77C730.666 487.978 730.267 487.137 729.574 486.496C728.881 485.855 727.971 485.534 726.844 485.534C725.821 485.534 724.955 485.846 724.244 486.47C723.533 487.077 723.065 487.926 722.84 489.018ZM747.811 489.85C747.811 490.214 747.794 490.552 747.759 490.864H737.411C737.48 492.181 737.896 493.247 738.659 494.062C739.439 494.859 740.418 495.258 741.597 495.258C742.602 495.258 743.434 495.033 744.093 494.582C744.752 494.131 745.176 493.499 745.367 492.684L747.447 493.178C747.118 494.443 746.433 495.431 745.393 496.142C744.37 496.853 743.105 497.208 741.597 497.208C739.673 497.208 738.122 496.558 736.943 495.258C735.782 493.958 735.201 492.355 735.201 490.448C735.201 488.524 735.773 486.921 736.917 485.638C738.078 484.338 739.621 483.688 741.545 483.688C743.434 483.688 744.951 484.286 746.095 485.482C747.239 486.661 747.811 488.117 747.811 489.85ZM737.541 489.018H745.471C745.367 487.978 744.968 487.137 744.275 486.496C743.582 485.855 742.672 485.534 741.545 485.534C740.522 485.534 739.656 485.846 738.945 486.47C738.234 487.077 737.766 487.926 737.541 489.018ZM758.326 486.054C757.841 485.846 757.278 485.742 756.636 485.742C755.527 485.742 754.617 486.279 753.906 487.354C753.213 488.411 752.866 489.963 752.866 492.008V497H750.656V483.896H752.866V486.548C753.248 485.716 753.82 485.031 754.582 484.494C755.345 483.957 756.134 483.688 756.948 483.688C757.52 483.688 758.023 483.766 758.456 483.922L758.326 486.054Z" fill="white"/>
<path d="M425.794 474V455.8H432.372C434.106 455.8 435.466 456.216 436.454 457.048C437.442 457.863 437.936 459.007 437.936 460.48C437.936 461.277 437.702 462.005 437.234 462.664C436.766 463.305 436.203 463.765 435.544 464.042C437.676 464.787 438.742 466.339 438.742 468.696C438.742 470.343 438.214 471.643 437.156 472.596C436.099 473.532 434.634 474 432.762 474H425.794ZM428.134 463.288H432.268C434.487 463.288 435.596 462.378 435.596 460.558C435.596 458.738 434.487 457.828 432.268 457.828H428.134V463.288ZM428.134 471.868H432.372C435.042 471.868 436.376 470.793 436.376 468.644C436.376 466.46 435.042 465.368 432.372 465.368H428.134V471.868ZM441.714 474V455.8H444.08V474H441.714ZM466.584 474L464.79 469.372H456.704L454.91 474H452.466L459.668 455.8H461.826L469.054 474H466.584ZM457.51 467.266H463.984L460.76 458.92L457.51 467.266ZM471.089 474V460.896H473.299V463.366C473.767 462.551 474.391 461.901 475.171 461.416C475.951 460.931 476.826 460.688 477.797 460.688C479.166 460.688 480.284 461.113 481.151 461.962C482.035 462.811 482.477 463.929 482.477 465.316V474H480.267V465.732C480.267 464.831 479.998 464.103 479.461 463.548C478.924 462.976 478.204 462.69 477.303 462.69C476.072 462.69 475.093 463.193 474.365 464.198C473.654 465.186 473.299 466.538 473.299 468.254V474H471.089ZM490.957 460.688C492.569 460.688 493.869 461.13 494.857 462.014C495.845 462.898 496.339 464.094 496.339 465.602V474H494.155V471.764C493.774 472.509 493.185 473.107 492.387 473.558C491.607 473.991 490.741 474.208 489.787 474.208C488.487 474.208 487.421 473.853 486.589 473.142C485.775 472.414 485.367 471.478 485.367 470.334C485.367 467.873 487.447 466.434 491.607 466.018L494.155 465.732V465.472C494.155 464.571 493.861 463.86 493.271 463.34C492.699 462.803 491.928 462.534 490.957 462.534C490.056 462.534 489.311 462.785 488.721 463.288C488.132 463.791 487.794 464.484 487.707 465.368L485.653 464.978C485.844 463.678 486.425 462.638 487.395 461.858C488.383 461.078 489.571 460.688 490.957 460.688ZM490.125 472.388C491.391 472.388 492.379 471.998 493.089 471.218C493.8 470.438 494.155 469.389 494.155 468.072V467.448L491.607 467.734C488.921 468.029 487.577 468.887 487.577 470.308C487.577 470.915 487.811 471.417 488.279 471.816C488.765 472.197 489.38 472.388 490.125 472.388ZM499.933 474V455.592H502.143V474H499.933ZM514.354 460.896H516.616L509.752 478.732H507.49L509.388 473.818L504.266 460.896H506.658L510.506 470.932L514.354 460.896ZM522.913 474.208C521.457 474.208 520.261 473.835 519.325 473.09C518.406 472.345 517.782 471.443 517.453 470.386L519.351 469.554C519.94 471.409 521.127 472.336 522.913 472.336C523.693 472.336 524.325 472.145 524.811 471.764C525.313 471.365 525.565 470.889 525.565 470.334C525.565 469.727 525.305 469.251 524.785 468.904C524.265 468.557 523.632 468.297 522.887 468.124C522.159 467.951 521.422 467.76 520.677 467.552C519.949 467.327 519.325 466.937 518.805 466.382C518.285 465.827 518.025 465.091 518.025 464.172C518.025 463.132 518.441 462.291 519.273 461.65C520.105 461.009 521.223 460.688 522.627 460.688C523.788 460.688 524.819 460.991 525.721 461.598C526.622 462.187 527.211 462.959 527.489 463.912L525.643 464.718C525.469 464.059 525.088 463.531 524.499 463.132C523.927 462.716 523.285 462.508 522.575 462.508C521.829 462.508 521.24 462.655 520.807 462.95C520.373 463.227 520.157 463.626 520.157 464.146C520.157 464.579 520.339 464.935 520.703 465.212C521.084 465.489 521.552 465.689 522.107 465.81C522.679 465.914 523.294 466.07 523.953 466.278C524.611 466.469 525.218 466.685 525.773 466.928C526.327 467.171 526.787 467.587 527.151 468.176C527.532 468.748 527.723 469.459 527.723 470.308C527.723 471.452 527.281 472.388 526.397 473.116C525.513 473.844 524.351 474.208 522.913 474.208ZM537.319 473.896C536.747 474.104 536.062 474.208 535.265 474.208C534.086 474.208 533.141 473.87 532.431 473.194C531.737 472.501 531.391 471.461 531.391 470.074V462.846H528.947V460.896H531.391V456.918H533.601V460.896H537.111V462.846H533.601V470.152C533.601 470.828 533.774 471.339 534.121 471.686C534.467 472.033 534.935 472.206 535.525 472.206C536.166 472.206 536.712 472.093 537.163 471.868L537.319 473.896Z" fill="black"/>
</svg>
