<svg width="1440" height="645" viewBox="0 0 1440 645" fill="none" xmlns="http://www.w3.org/2000/svg">
<rect width="1440" height="645" fill="#E5E5E5"/>
<rect width="1440" height="645" fill="white"/>
<rect x="738" y="136" width="221" height="60" fill="#25ABEB"/>
<rect x="959" y="136" width="220" height="60" fill="#0B1DAB"/>
<rect x="1178" y="136" width="221" height="60" fill="black"/>
<text fill="black" xml:space="preserve" style="white-space: pre" font-family="Matter" font-size="46" font-weight="bold" letter-spacing="0em"><tspan x="40" y="74.76">Main reasons for bad analytics habits</tspan></text>
<text fill="black" xml:space="preserve" style="white-space: pre" font-family="Matter" font-size="26" letter-spacing="0em"><tspan x="40" y="239.06">Treating data/analytics/BI teams like a dashboard factory&#10;</tspan><tspan x="40" y="305.06">Analyzing only a portion of the available data&#10;</tspan><tspan x="40" y="371.06">Applying descriptive without diagnostic analytics&#10;</tspan><tspan x="40" y="437.06">Waiting too long to act&#10;</tspan><tspan x="40" y="503.06">Getting stuck in a loop of follow-up questions&#10;</tspan><tspan x="40" y="569.06">Failing to standardize and streamline insights stories</tspan></text>
<text fill="white" xml:space="preserve" style="white-space: pre" font-family="Matter" font-size="23" font-weight="600" letter-spacing="0em"><tspan x="766.624" y="173.13">People/Culture</tspan></text>
<text fill="white" xml:space="preserve" style="white-space: pre" font-family="Matter" font-size="23" font-weight="600" letter-spacing="0em"><tspan x="1041.47" y="173.13">Tools</tspan></text>
<text fill="white" xml:space="preserve" style="white-space: pre" font-family="Matter" font-size="23" font-weight="600" letter-spacing="0em"><tspan x="1235.95" y="173.13">Processes</tspan></text>
<path d="M40 196H1399" stroke="#E7E6E6"/>
<path d="M40 330H1399" stroke="#E7E6E6"/>
<path d="M40 397H1399" stroke="#E7E6E6"/>
<path d="M40 464H1399" stroke="#E7E6E6"/>
<path d="M40 531H1399" stroke="#E7E6E6"/>
<path d="M40 263H1399" stroke="#E7E6E6"/>
<path d="M40 598H1399" stroke="#E7E6E6"/>
<path d="M738 598L738 196" stroke="#E7E6E6"/>
<path d="M959 598L959 196" stroke="#E7E6E6"/>
<path d="M1178 598L1178 196" stroke="#E7E6E6"/>
<path d="M1399 598L1399 196" stroke="#E7E6E6"/>
<circle cx="847.5" cy="229.5" r="22.5" fill="#25ABEB"/>
<path d="M838 228.483L844.946 235.429L857.429 222.946" stroke="white" stroke-width="4"/>
<circle cx="847.5" cy="364.5" r="22.5" fill="#25ABEB"/>
<path d="M838 363.483L844.946 370.429L857.429 357.946" stroke="white" stroke-width="4"/>
<circle cx="1068.5" cy="296.5" r="22.5" fill="#0B1DAB"/>
<path d="M1059 295.483L1065.95 302.429L1078.43 289.946" stroke="white" stroke-width="4"/>
<circle cx="1068.5" cy="430.5" r="22.5" fill="#0B1DAB"/>
<path d="M1059 429.483L1065.95 436.429L1078.43 423.946" stroke="white" stroke-width="4"/>
<circle cx="1068.5" cy="497.5" r="22.5" fill="#0B1DAB"/>
<path d="M1059 496.483L1065.95 503.429L1078.43 490.946" stroke="white" stroke-width="4"/>
<circle cx="1289.5" cy="564.5" r="22.5" fill="black"/>
<path d="M1280 563.483L1286.95 570.429L1299.43 557.946" stroke="white" stroke-width="4"/>
</svg>
