<?xml version="1.0" encoding="UTF-8" standalone="no"?>
<!DOCTYPE svg PUBLIC "-//W3C//DTD SVG 1.1//EN" "http://www.w3.org/Graphics/SVG/1.1/DTD/svg11.dtd">
<svg width="100%" height="100%" viewBox="0 0 1280 800" version="1.1" xmlns="http://www.w3.org/2000/svg" xmlns:xlink="http://www.w3.org/1999/xlink" xml:space="preserve" xmlns:serif="http://www.serif.com/" style="fill-rule:evenodd;clip-rule:evenodd;stroke-linejoin:round;stroke-miterlimit:2;">
    <g transform="matrix(1,0,0,1,-1380,0)">
        <g transform="matrix(1,0,0,1,1380,0)">
            <rect id="slide-2" serif:id="slide 2" x="0" y="0" width="1280" height="800" style="fill:none;"/>
            <g id="slide-21" serif:id="slide 2">
                <g transform="matrix(0.964003,0,0,0.865339,6.00293,48.777)">
                    <rect x="258.22" y="536.93" width="798.902" height="131.051" style="fill:rgb(8,29,178);"/>
                </g>
                <g transform="matrix(0.837481,0,0,0.865339,89.2128,-64.6263)">
                    <rect x="258.22" y="536.93" width="798.902" height="131.051" style="fill:rgb(243,244,246);"/>
                </g>
                <g transform="matrix(0.737948,0,0,0.865339,143.185,-178.03)">
                    <rect x="258.22" y="536.93" width="798.902" height="131.051" style="fill:rgb(170,252,0);"/>
                </g>
                <g transform="matrix(0.611288,0,0,0.865339,225.812,-291.433)">
                    <rect x="258.22" y="536.93" width="798.902" height="131.051" style="fill:rgb(243,244,246);"/>
                </g>
                <g transform="matrix(0.847985,0,0,0.847985,44.7346,45.5458)">
                    <text x="500.118px" y="209.033px" style="font-family:'Matter-Medium', 'Matter';font-weight:500;font-size:34px;">T<tspan x="517.764px 530.344px 548.228px 567.778px 583.146px 590.898px 603.41px 611.162px 631.018px 650.568px 658.388px 670.798px 683.242px 703.098px 732.984px 740.804px 756.07px 775.042px 788.166px 804.588px 812.34px 830.904px 849.876px 857.696px 869.834px " y="209.033px 209.033px 209.033px 209.033px 209.033px 209.033px 209.033px 209.033px 209.033px 209.033px 209.033px 209.033px 209.033px 209.033px 209.033px 209.033px 209.033px 209.033px 209.033px 209.033px 209.033px 209.033px 209.033px 209.033px 209.033px ">ransition from service to</tspan></text>
                    <g transform="matrix(34,0,0,34,822.625,249.833)">
                    </g>
                    <text x="567.523px" y="249.833px" style="font-family:'Matter-Medium', 'Matter';font-weight:500;font-size:34px;">p<tspan x="587.719px 600.163px 620.019px 640.215px 659.799px 678.091px 690.603px 698.423px 728.309px 736.061px 755.611px 775.807px 791.073px 809.773px " y="249.833px 249.833px 249.833px 249.833px 249.833px 249.833px 249.833px 249.833px 249.833px 249.833px 249.833px 249.833px 249.833px 249.833px ">roduct mindset</tspan></text>
                </g>
                <g transform="matrix(0.847985,0,0,0.847985,-22.995,156.479)">
                    <text x="525.3px" y="209.033px" style="font-family:'Matter-Medium', 'Matter';font-weight:500;font-size:34px;">I<tspan x="533.63px 552.568px 565.08px 577.524px 597.38px 617.576px 637.16px 655.724px 663.476px 683.026px 702.882px 710.702px 722.262px 737.63px 757.826px 776.798px 795.77px 815.966px 823.786px 835.924px 855.78px 863.6px 881.484px 899.776px 912.288px 920.04px 939.896px 959.446px 977.33px 997.526px 1005.28px " y="209.033px 209.033px 209.033px 209.033px 209.033px 209.033px 209.033px 209.033px 209.033px 209.033px 209.033px 209.033px 209.033px 209.033px 209.033px 209.033px 209.033px 209.033px 209.033px 209.033px 209.033px 209.033px 209.033px 209.033px 209.033px 209.033px 209.033px 209.033px 209.033px 209.033px 209.033px ">ntroducing &quot;speed to actionable</tspan></text>
                    <g transform="matrix(34,0,0,34,779.501,249.833)">
                        <path d="M0.34,-0.404C0.33,-0.406 0.319,-0.407 0.306,-0.407C0.266,-0.407 0.234,-0.389 0.21,-0.353C0.185,-0.317 0.173,-0.262 0.173,-0.188L0.173,-0L0.064,-0L0.064,-0.504L0.173,-0.504L0.173,-0.408C0.185,-0.439 0.205,-0.464 0.232,-0.483C0.259,-0.502 0.287,-0.512 0.318,-0.512L0.347,-0.51L0.34,-0.404Z" style="fill-rule:nonzero;"/>
                    </g>
                    <g transform="matrix(34,0,0,34,780.079,249.833)">
                    </g>
                    <g transform="matrix(34,0,0,34,1000.33,249.833)">
                    </g>
                    <text x="549.559px" y="249.833px" style="font-family:'Matter-Medium', 'Matter';font-weight:500;font-size:34px;">i<tspan x="557.311px 576.861px 592.229px 599.981px 619.837px 638.979px 652.579px 665.499px 673.319px 691.203px 706.571px 714.391px 732.275px 740.095px 759.645px 792.557px 805.681px 825.435px 833.255px 848.385px 860.625px 878.509px 891.633px 899.453px 929.339px 948.039px 960.551px 973.675px 981.427px " y="249.833px 249.833px 249.833px 249.833px 249.833px 249.833px 249.833px 249.833px 249.833px 249.833px 249.833px 249.833px 249.833px 249.833px 249.833px 249.833px 249.833px 249.833px 249.833px 249.833px 249.833px 249.833px 249.833px 249.833px 249.833px 249.833px 249.833px 249.833px 249.833px ">nsight&quot; as a noth star metric</tspan></text>
                </g>
                <g transform="matrix(0.847985,0,0,0.847985,-3.22307,272.352)">
                    <text x="498.43px" y="209.033px" style="font-family:'Matter-Medium', 'Matter';font-weight:500;font-size:34px;">A<tspan x="520.462px 540.046px 559.902px 589.788px 608.76px 627.698px 640.21px 647.962px 667.512px 687.368px 695.188px 720.722px 740.578px 753.702px 772.028px 784.438px 792.19px 811.468px 837.24px 852.608px 860.428px 878.312px 897.862px 918.058px 925.878px 938.458px 956.342px 976.538px 984.29px " y="209.033px 209.033px 209.033px 209.033px 209.033px 209.033px 209.033px 209.033px 209.033px 209.033px 209.033px 209.033px 209.033px 209.033px 209.033px 209.033px 209.033px 209.033px 209.033px 209.033px 209.033px 209.033px 209.033px 209.033px 209.033px 209.033px 209.033px 209.033px 209.033px ">ugmenting workflows and rapid</tspan></text>
                    <g transform="matrix(34,0,0,34,963.448,249.833)">
                    </g>
                    <text x="539.808px" y="249.833px" style="font-family:'Matter-Medium', 'Matter';font-weight:500;font-size:34px;">t<tspan x="551.946px 570.748px 585.878px 598.39px 606.142px 625.692px 645.548px 653.368px 672.782px 685.192px 693.012px 712.562px 730.956px 757.068px 764.888px 777.026px 795.998px 814.562px 834.316px 853.866px 873.722px 881.474px 901.33px 921.186px 928.938px 947.74px " y="249.833px 249.833px 249.833px 249.833px 249.833px 249.833px 249.833px 249.833px 249.833px 249.833px 249.833px 249.833px 249.833px 249.833px 249.833px 249.833px 249.833px 249.833px 249.833px 249.833px 249.833px 249.833px 249.833px 249.833px 249.833px 249.833px ">esting of new technologies</tspan></text>
                </g>
                <g transform="matrix(0.847985,0,0,0.847985,-97.0414,385.756)">
                    <text x="510.773px" y="209.033px" style="font-family:'Matter-Medium', 'Matter';font-weight:500;font-size:34px;fill:white;">S<tspan x="530.391px 542.903px 555.347px 574.319px 593.869px 613.725px 626.849px 646.603px 665.575px 685.125px 692.945px 713.141px 730.787px 743.027px 760.911px 768.731px 791.239px 799.059px 819.255px 838.839px 854.207px 861.959px 881.509px 900.311px 915.679px 931.047px 938.867px 951.005px 969.875px 987.759px 1017.64px 1025.46px 1044.03px 1063.88px 1071.64px 1079.39px 1097.27px 1117.47px 1137.33px 1149.9px 1167.55px 1180.06px 1187.82px 1207.67px " y="209.033px 209.033px 209.033px 209.033px 209.033px 209.033px 209.033px 209.033px 209.033px 209.033px 209.033px 209.033px 209.033px 209.033px 209.033px 209.033px 209.033px 209.033px 209.033px 209.033px 209.033px 209.033px 209.033px 209.033px 209.033px 209.033px 209.033px 209.033px 209.033px 209.033px 209.033px 209.033px 209.033px 209.033px 209.033px 209.033px 209.033px 209.033px 209.033px 209.033px 209.033px 209.033px 209.033px 209.033px ">trengthen data &amp; business team collaboration</tspan></text>
                    <g transform="matrix(34,0,0,34,1104.92,249.833)">
                    </g>
                    <text x="633.411px" y="249.833px" style="font-family:'Matter-Medium', 'Matter';font-weight:500;font-size:34px;fill:white;">a<tspan x="651.295px 670.845px 691.041px 698.861px 717.663px 732.793px 745.033px 762.917px 783.113px 790.865px 798.617px 813.985px 833.739px 841.559px 849.311px 868.181px 886.065px 906.261px 925.233px 937.915px 953.283px 973.037px 980.789px 1000.99px 1008.81px 1029px 1048.59px 1065.14px 1077.28px 1085.03px " y="249.833px 249.833px 249.833px 249.833px 249.833px 249.833px 249.833px 249.833px 249.833px 249.833px 249.833px 249.833px 249.833px 249.833px 249.833px 249.833px 249.833px 249.833px 249.833px 249.833px 249.833px 249.833px 249.833px 249.833px 249.833px 249.833px 249.833px 249.833px 249.833px 249.833px ">nd establish leadership buy-in</tspan></text>
                </g>
            </g>
        </g>
    </g>
</svg>
