<svg width="80" height="80" viewBox="0 0 80 80" fill="none" xmlns="http://www.w3.org/2000/svg">
<rect width="80" height="80" fill="white"/>
<path d="M30 51.667H68.3333" stroke="#D1FC54" stroke-width="11.6667" stroke-linecap="round"/>
<g style="mix-blend-mode:hard-light">
<path fill-rule="evenodd" clip-rule="evenodd" d="M36.666 26.6442C36.666 24.8356 38.1563 23.333 39.9993 23.333C41.7929 23.333 43.3327 24.8829 43.3327 26.6663V33.333H36.666V26.6442ZM26.666 33.333H19.9644L16.9034 52.2033C15.6841 59.559 19.3159 66.6663 24.2706 66.6663H55.737C60.6657 66.6663 64.2975 59.559 63.1042 52.2033L60.0431 33.333H53.3327L53.3327 26.6442C53.3205 19.3834 47.3438 13.333 39.9993 13.333C32.6689 13.333 26.666 19.2773 26.666 26.6442V33.333Z" fill="url(#paint0_linear_1605_23059)"/>
</g>
<defs>
<linearGradient id="paint0_linear_1605_23059" x1="51.407" y1="13.333" x2="21.4408" y2="60.2968" gradientUnits="userSpaceOnUse">
<stop stop-color="#0B4BAB"/>
<stop offset="1" stop-color="#0B1DAB"/>
</linearGradient>
</defs>
</svg>
