<?xml version="1.0" encoding="UTF-8" standalone="no"?>
<!DOCTYPE svg PUBLIC "-//W3C//DTD SVG 1.1//EN" "http://www.w3.org/Graphics/SVG/1.1/DTD/svg11.dtd">
<svg width="100%" height="100%" viewBox="0 0 1280 800" version="1.1" xmlns="http://www.w3.org/2000/svg" xmlns:xlink="http://www.w3.org/1999/xlink" xml:space="preserve" xmlns:serif="http://www.serif.com/" style="fill-rule:evenodd;clip-rule:evenodd;stroke-linecap:round;stroke-linejoin:round;stroke-miterlimit:1.5;">
    <g transform="matrix(1,0,0,1,-1330,0)">
        <rect id="slide-1" serif:id="slide 1" x="1330" y="0" width="1280" height="800" style="fill:none;"/>
        <g id="slide-11" serif:id="slide 1">
            <g transform="matrix(1,0,0,1,1330,0)">
                <rect x="0" y="0" width="1280" height="800" style="fill:rgb(8,29,178);"/>
            </g>
            <g transform="matrix(0.759245,0,0,0.759245,1363.06,-90.5454)">
                <circle cx="130.493" cy="252.96" r="91.849" style="fill:rgb(243,244,246);"/>
            </g>
            <g transform="matrix(0.123097,0,0,0.123097,1558.44,57.549)">
                <circle cx="130.493" cy="252.96" r="91.849" style="fill:rgb(243,244,246);"/>
            </g>
            <g transform="matrix(0.163835,0,0,0.163835,1639.29,293.076)">
                <circle cx="130.493" cy="252.96" r="91.849" style="fill:rgb(243,244,246);"/>
            </g>
            <g transform="matrix(0.163835,0,0,0.163835,2106.09,535.531)">
                <circle cx="130.493" cy="252.96" r="91.849" style="fill:rgb(243,244,246);"/>
            </g>
            <g transform="matrix(0.0775492,0,0,0.0775492,2104.91,505.55)">
                <circle cx="130.493" cy="252.96" r="91.849" style="fill:rgb(243,244,246);"/>
            </g>
            <g transform="matrix(0.075635,0,0,0.075635,1369.74,35.3339)">
                <circle cx="130.493" cy="252.96" r="91.849" style="fill:rgb(243,244,246);"/>
            </g>
            <g transform="matrix(0.90891,0,0,0.90891,1499.08,-45.7922)">
                <circle cx="130.493" cy="252.96" r="91.849" style="fill:rgb(243,244,246);"/>
            </g>
            <g transform="matrix(1.08808,0,0,1.08808,1650.7,8.15568)">
                <circle cx="130.493" cy="252.96" r="91.849" style="fill:rgb(243,244,246);"/>
            </g>
            <g transform="matrix(1.30256,0,0,1.30256,1836.88,57.3142)">
                <circle cx="130.493" cy="252.96" r="91.849" style="fill:rgb(243,244,246);"/>
            </g>
            <g transform="matrix(1.55933,0,0,1.55933,2077.51,85.9283)">
                <circle cx="130.493" cy="252.96" r="91.849" style="fill:rgb(243,244,246);"/>
            </g>
            <g transform="matrix(0.894965,0,0,0.894965,1270.38,-124.973)">
                <text x="151.99px" y="238.421px" style="font-family:'Matter-Regular', 'Matter';font-size:24px;fill:rgb(88,88,88);">E<tspan x="165.358px 176.734px 190.918px 204.91px 218.494px 231.814px 244.942px 253.51px 258.622px 271.174px " y="238.421px 238.421px 238.421px 238.421px 238.421px 238.421px 238.421px 238.421px 238.421px 238.421px ">xponential</tspan></text>
                <text x="161.89px" y="267.221px" style="font-family:'Matter-Regular', 'Matter';font-size:24px;fill:rgb(88,88,88);">g<tspan x="175.906px 184.306px 197.986px 216.082px 224.866px 238.642px 244.186px 257.842px " y="267.221px 267.221px 267.221px 267.221px 267.221px 267.221px 267.221px 267.221px ">rowth of</tspan></text>
                <g transform="matrix(24,0,0,24,238.162,296.021)">
                </g>
                <text x="190.354px" y="296.021px" style="font-family:'Matter-Regular', 'Matter';font-size:24px;fill:rgb(88,88,88);">d<tspan x="204.538px 217.018px 225.37px " y="296.021px 296.021px 296.021px ">ata</tspan></text>
            </g>
            <g transform="matrix(0.894965,0,0,0.894965,1413.63,-63.1302)">
                <text x="154.019px" y="255.97px" style="font-family:'Matter-Regular', 'Matter';font-size:24px;fill:rgb(88,88,88);">D<tspan x="169.931px 175.043px 185.795px 198.731px 212.723px 226.307px 239.891px 253.211px 265.979px 274.235px 287.555px " y="255.97px 255.97px 255.97px 255.97px 255.97px 255.97px 255.97px 255.97px 255.97px 255.97px 255.97px ">isconnected</tspan></text>
                <text x="158.843px" y="284.77px" style="font-family:'Matter-Regular', 'Matter';font-size:24px;fill:rgb(88,88,88);">b<tspan x="173.027px 186.611px 197.459px 202.571px 216.155px 229.355px 240.203px 251.051px 256.595px 269.147px 282.731px " y="284.77px 284.77px 284.77px 284.77px 284.77px 284.77px 284.77px 284.77px 284.77px 284.77px 284.77px ">usiness and</tspan></text>
                <g transform="matrix(24,0,0,24,287.519,313.57)">
                </g>
                <text x="168.479px" y="313.57px" style="font-family:'Matter-Regular', 'Matter';font-size:24px;fill:rgb(88,88,88);">d<tspan x="182.663px 195.143px 203.495px 216.047px 221.591px 229.847px 243.047px 255.599px 276.431px " y="313.57px 313.57px 313.57px 313.57px 313.57px 313.57px 313.57px 313.57px 313.57px ">ata teams</tspan></text>
            </g>
            <g transform="matrix(0.894965,0,0,0.894965,1580.85,19.5947)">
                <text x="157.972px" y="260.057px" style="font-family:'Matter-Regular', 'Matter';font-size:24px;fill:rgb(88,88,88);">P<tspan x="171.844px 180.244px 194.236px 207.172px 220.372px 231.22px 241.972px 255.172px 266.02px 271.564px 280.348px 294.124px 306.604px " y="260.057px 260.057px 260.057px 260.057px 260.057px 260.057px 260.057px 260.057px 260.057px 260.057px 260.057px 260.057px 260.057px ">rocesses that</tspan></text>
                <text x="148.792px" y="288.857px" style="font-family:'Matter-Regular', 'Matter';font-size:24px;fill:rgb(88,88,88);">t<tspan x="157.36px 165.76px 178.96px 191.44px 200.008px 205.552px 219.736px 232.216px 240.568px 253.12px 258.664px 266.92px 280.12px 292.672px 313.504px " y="288.857px 288.857px 288.857px 288.857px 288.857px 288.857px 288.857px 288.857px 288.857px 288.857px 288.857px 288.857px 288.857px 288.857px 288.857px ">reat data teams</tspan></text>
                <text x="166.552px" y="317.657px" style="font-family:'Matter-Regular', 'Matter';font-size:24px;fill:rgb(88,88,88);">a<tspan x="179.104px 189.952px 195.496px 208.048px 213.592px 222.16px 227.272px 240.208px 252.16px 265.312px 273.88px 278.992px 292.576px " y="317.657px 317.657px 317.657px 317.657px 317.657px 317.657px 317.657px 317.657px 317.657px 317.657px 317.657px 317.657px 317.657px ">s a ticketing</tspan></text>
                <g transform="matrix(24,0,0,24,274.552,346.457)">
                </g>
                <text x="198.832px" y="346.457px" style="font-family:'Matter-Regular', 'Matter';font-size:24px;fill:rgb(88,88,88);">s<tspan x="209.656px 221.224px 231.904px 240.16px 253.48px " y="346.457px 346.457px 346.457px 346.457px 346.457px ">ystem</tspan></text>
            </g>
            <g transform="matrix(0.894965,0,0,0.894965,1790.95,123.01)">
                <text x="161.248px" y="245.657px" style="font-family:'Matter-Regular', 'Matter';font-size:24px;fill:rgb(88,88,88);">L<tspan x="173.608px 186.928px 200.944px 213.496px 226.048px 237.832px 243.376px 257.824px 263.248px 268.792px 277.048px 291.04px 305.032px 310.144px " y="245.657px 245.657px 245.657px 245.657px 245.657px 245.657px 245.657px 245.657px 245.657px 245.657px 245.657px 245.657px 245.657px 245.657px ">egacy BI tools</tspan></text>
                <text x="178.648px" y="274.457px" style="font-family:'Matter-Regular', 'Matter';font-size:24px;fill:rgb(88,88,88);">th<tspan x="201.208px 213.688px 222.256px 227.8px 240.352px 248.752px 262.072px 267.616px 281.2px 295.024px " y="274.457px 274.457px 274.457px 274.457px 274.457px 274.457px 274.457px 274.457px 274.457px 274.457px ">at are not</tspan></text>
                <text x="173.776px" y="303.257px" style="font-family:'Matter-Regular', 'Matter';font-size:24px;fill:rgb(88,88,88);">d<tspan x="187.96px 201.16px 212.008px 217.12px 231.136px 244.72px 258.04px 272.224px 277.768px 285.52px 299.512px " y="303.257px 303.257px 303.257px 303.257px 303.257px 303.257px 303.257px 303.257px 303.257px 303.257px 303.257px ">esigned for</tspan></text>
                <text x="203.812px" y="332.057px" style="font-family:'Matter-Regular', 'Matter';font-size:24px;fill:rgb(88,88,88);">t<tspan x="212.068px 226.06px 240.244px 252.388px 264.172px 267.58px " y="332.057px 332.057px 332.057px 332.057px 332.057px 332.057px ">oday&apos;s</tspan></text>
                <g transform="matrix(24,0,0,24,299.692,360.857)">
                </g>
                <text x="182.788px" y="360.857px" style="font-family:'Matter-Regular', 'Matter';font-size:24px;fill:rgb(88,88,88);">c<tspan x="195.724px 209.716px 230.548px 244.732px 249.844px 262.612px 273.988px 279.1px 287.668px " y="360.857px 360.857px 360.857px 360.857px 360.857px 360.857px 360.857px 360.857px 360.857px ">omplexity</tspan></text>
            </g>
            <g transform="matrix(0.894965,0,0,0.894965,2060.51,202.166)">
                <text x="145.559px" y="242.753px" style="font-family:'Matter-Bold', 'Matter';font-weight:700;font-size:25.699px;fill:rgb(8,29,178);">•<tspan x="156.738px 162.109px 179.379px 193.334px 207.854px 220.678px 230.058px 235.994px 247.765px 261.719px 267.091px 273.027px 295.54px 310.343px 323.475px 336.993px " y="242.753px 242.753px 242.753px 242.753px 242.753px 242.753px 242.753px 242.753px 242.753px 242.753px 242.753px 242.753px 242.753px 242.753px 242.753px 242.753px "> Negative impact</tspan></text>
                <text x="157.997px" y="273.592px" style="font-family:'Matter-Bold', 'Matter';font-weight:700;font-size:25.699px;fill:rgb(8,29,178);">o<tspan x="172.517px 187.166px 192.537px 202.765px 217.465px 231.42px 236.791px 251.62px 266.294px 277.37px 283.307px 297.955px 311.782px 322.858px " y="273.592px 273.592px 273.592px 273.592px 273.592px 273.592px 273.592px 273.592px 273.592px 273.592px 273.592px 273.592px 273.592px 273.592px ">n the business</tspan></text>
                <text x="166.606px" y="316.432px" style="font-family:'Matter-Bold', 'Matter';font-weight:700;font-size:25.699px;fill:rgb(8,29,178);">•<tspan x="177.785px 183.157px 200.067px 214.715px 229.544px 243.499px 253.444px 275.957px 281.893px 296.542px 310.497px " y="316.432px 316.432px 316.432px 316.432px 316.432px 316.432px 316.432px 316.432px 316.432px 316.432px 316.432px "> Undermined</tspan></text>
                <text x="177.361px" y="347.271px" style="font-family:'Matter-Bold', 'Matter';font-weight:700;font-size:25.699px;fill:rgb(8,29,178);">d<tspan x="192.19px 205.014px 214.24px 227.372px 232.743px 246.544px 261.218px 267.155px 276.407px 291.081px 300.615px " y="347.271px 347.271px 347.271px 347.271px 347.271px 347.271px 347.271px 347.271px 347.271px 347.271px 347.271px ">ata culture</tspan></text>
                <text x="176.423px" y="390.11px" style="font-family:'Matter-Bold', 'Matter';font-weight:700;font-size:25.699px;fill:rgb(8,29,178);">•<tspan x="187.603px 192.974px 199.501px 214.15px 227.951px 237.485px 251.414px 264.546px 275.597px 289.552px 294.923px 300.86px " y="390.11px 390.11px 390.11px 390.11px 390.11px 390.11px 390.11px 390.11px 390.11px 390.11px 390.11px 390.11px "> Increase in</tspan></text>
                <g transform="matrix(25.6993,0,0,25.6993,292.713,420.949)">
                </g>
                <text x="199.99px" y="420.949px" style="font-family:'Matter-Bold', 'Matter';font-weight:700;font-size:25.699px;fill:rgb(8,29,178);">a<tspan x="212.814px 222.194px 231.574px 241.52px 247.456px 256.837px 262.773px 277.293px " y="420.949px 420.949px 420.949px 420.949px 420.949px 420.949px 420.949px 420.949px ">ttrition</tspan></text>
            </g>
            <g transform="matrix(1,0,0,1,1330,0)">
                <path d="M0,139.772L150.19,222.535L161.926,253.486L311.78,374.59L380.1,400L500.849,504.872L687.759,565.442L720.843,599.66L915.352,662.063L989.423,671.182L1043.21,696.014L1280,747.708L1280,800L0,800L0,139.772Z" style="fill:rgb(243,244,246);"/>
            </g>
            <g transform="matrix(1,0,0,1,1330,0)">
                <path d="M161.926,253.486L122.178,312.063L54.841,339.513L19.538,352.361L50.409,323.797L111.072,316.59L150.19,222.535L161.926,253.486Z" style="fill:rgb(218,221,227);"/>
            </g>
            <g transform="matrix(1,0,0,1,1330,0)">
                <path d="M687.759,565.442L599.713,627.887L480.523,618.109L362.131,653.173L274.453,678.351L368.325,666.634L482.376,627.977L617.529,645.14L720.843,599.66L687.759,565.442Z" style="fill:rgb(218,221,227);"/>
            </g>
            <g transform="matrix(0.443875,0.166789,-0.351745,0.936096,1872.65,81.9883)">
                <path d="M751.205,120.88L884.165,120.88" style="fill:none;stroke:rgb(144,153,172);stroke-width:5.11px;"/>
            </g>
            <g transform="matrix(0.443875,0.166789,-0.351745,0.936096,1881.96,104.498)">
                <path d="M751.205,120.88L884.165,120.88" style="fill:none;stroke:rgb(144,153,172);stroke-width:5.11px;"/>
            </g>
            <g transform="matrix(0.443875,0.166789,-0.351745,0.936096,1848.33,125.328)">
                <path d="M751.205,120.88L884.165,120.88" style="fill:none;stroke:rgb(144,153,172);stroke-width:5.11px;"/>
            </g>
            <g transform="matrix(0.29967,0.112603,-0.351745,0.936096,1904.94,300.402)">
                <path d="M751.205,120.88L884.165,120.88" style="fill:none;stroke:rgb(144,153,172);stroke-width:5.39px;"/>
            </g>
            <g transform="matrix(0.699244,0.262746,-0.280592,0.746738,1597.83,243.592)">
                <path d="M751.205,120.88L884.165,120.88" style="fill:none;stroke:rgb(144,153,172);stroke-width:5.18px;"/>
            </g>
            <g transform="matrix(0.291734,0.131805,-0.411728,0.911307,1733.98,42.5774)">
                <path d="M751.205,120.88L884.165,120.88" style="fill:none;stroke:rgb(144,153,172);stroke-width:5.39px;"/>
            </g>
            <g transform="matrix(0.344709,0.155739,-0.328442,0.726964,1694.33,68.2203)">
                <path d="M751.205,120.88L884.165,120.88" style="fill:none;stroke:rgb(144,153,172);stroke-width:6.41px;"/>
            </g>
            <g transform="matrix(0.344709,0.155739,-0.328442,0.726964,1666,244.121)">
                <path d="M751.205,120.88L884.165,120.88" style="fill:none;stroke:rgb(144,153,172);stroke-width:6.41px;"/>
            </g>
            <g transform="matrix(0.344709,0.155739,-0.328442,0.726964,1643.01,216.453)">
                <path d="M751.205,120.88L884.165,120.88" style="fill:none;stroke:rgb(144,153,172);stroke-width:6.41px;"/>
            </g>
            <g transform="matrix(0.426445,0.207337,-0.437258,0.899336,1694.76,-13.6101)">
                <path d="M751.205,120.88L884.165,120.88" style="fill:none;stroke:rgb(144,153,172);stroke-width:5.11px;"/>
            </g>
            <g transform="matrix(0.268448,0.149222,-0.485851,0.874041,1508.16,57.23)">
                <path d="M751.205,120.88L884.165,120.88" style="fill:none;stroke:rgb(144,153,172);stroke-width:5.41px;"/>
            </g>
            <g transform="matrix(0.26324,0.146327,-0.485851,0.874041,1507.9,38.6367)">
                <path d="M751.205,120.88L884.165,120.88" style="fill:none;stroke:rgb(144,153,172);stroke-width:5.42px;"/>
            </g>
            <g transform="matrix(1.124,0,0,1.124,-298.776,-62.7002)">
                <g transform="matrix(1,0,0,1,1330,0)">
                    <path d="M1100.3,574.237L1107.59,583.331C1116.19,577.878 1124.5,571.97 1132.31,565.245C1139.19,565.16 1143.69,566.153 1146.83,567.766C1139.05,580.453 1130.81,588.956 1122.2,594.113C1126.02,616.265 1144.8,624.887 1167.89,629.603L1171.13,612.373L1183.5,584.76C1185.96,589.58 1189.71,593.664 1196.86,595.83C1205.12,595.527 1213.55,594.369 1222.17,592.355L1221,581.203C1215.13,581.921 1208.69,582.397 1199.5,581.702C1195.68,577.961 1192.32,572.575 1189.11,566.653L1188.21,563.406L1183.02,558.101L1178.51,559.641L1171.23,551.423L1164.54,553.328C1153.78,550.243 1141.14,550.304 1128.18,550.879C1118.61,557.709 1109.04,565.26 1100.3,574.237Z" style="fill:rgb(5,5,13);"/>
                </g>
                <g transform="matrix(1,0,0,1,1330,0)">
                    <path d="M1183.02,558.101C1183.02,558.101 1183.34,582.167 1174.79,587.926C1168.89,576.333 1169.12,561.212 1171.23,551.423L1178.51,559.641L1183.02,558.101Z" style="fill:white;"/>
                </g>
                <g transform="matrix(1,0,0,1,1330,0)">
                    <path d="M1178.51,559.641L1180.57,564.586L1179.07,565.659L1179.91,580.219C1178.57,583.941 1176.85,586.453 1174.79,587.926C1173.57,585.496 1172.54,582.789 1171.71,579.758L1177.86,565.378L1176.61,564.098L1178.51,559.641Z" style="fill:rgb(170,252,0);"/>
                </g>
                <g transform="matrix(1,0,0,1,1330,0)">
                    <path d="M1196.26,535.313C1196.26,535.313 1195.84,540.501 1195.3,542.241C1194.77,543.98 1194.38,545.625 1194.38,545.625C1194.38,545.625 1194.6,548.113 1194.73,549.559C1194.78,550.117 1194.37,550.609 1193.81,550.66C1192.98,550.735 1191.92,550.83 1191.92,550.83C1191.92,550.83 1191.2,551.935 1190.71,552.687C1190.62,552.828 1190.46,552.91 1190.29,552.902C1190.12,552.894 1189.97,552.797 1189.89,552.647C1189.45,551.813 1188.73,550.427 1188.21,549.433C1188.07,549.159 1187.8,548.972 1187.49,548.929C1187.19,548.886 1186.88,548.993 1186.67,549.217C1185.76,550.174 1184.36,551.644 1183.35,552.705C1183.07,552.997 1182.96,553.408 1183.05,553.8C1183.14,554.193 1183.42,554.514 1183.8,554.656C1185.12,555.155 1186.86,555.813 1187.69,556.127C1187.82,556.174 1187.91,556.27 1187.96,556.392C1188.01,556.514 1188,556.65 1187.94,556.765C1187.69,557.229 1187.36,557.88 1187.36,557.88C1186.79,558.296 1185.89,558.143 1184.59,557.338C1184.34,557.202 1184.05,557.176 1183.78,557.266C1183.51,557.357 1183.29,557.555 1183.18,557.814C1183.08,557.977 1183.02,558.101 1183.02,558.101L1178.51,559.641L1171.23,551.423L1174.28,543.276C1174.28,543.276 1171.31,543.534 1171.75,538.265C1172.12,533.715 1176.76,534.594 1177.02,536.875C1178.43,534.543 1184.34,530.299 1184.61,530.679C1188.73,533.059 1192.58,534.511 1196.26,535.313Z" style="fill:rgb(236,193,156);"/>
                </g>
                <g transform="matrix(1,0,0,1,1330,0)">
                    <path d="M1221.23,582.225C1222.71,580.782 1225.03,580.262 1227.79,580.218C1228.2,580.211 1228.59,580.421 1228.82,580.773C1228.94,580.951 1229.07,581.152 1229.18,581.34C1229.45,581.75 1229.93,581.962 1230.41,581.878C1231.75,581.642 1234.48,581.163 1236.11,580.875C1236.45,580.815 1236.8,580.903 1237.07,581.116C1237.34,581.329 1237.51,581.648 1237.53,581.991C1237.63,583.711 1237.81,586.637 1237.9,588.115C1237.93,588.657 1237.6,589.154 1237.09,589.331C1229.13,592.063 1223.74,592.924 1222.04,591.093L1221.23,582.225Z" style="fill:rgb(236,193,156);"/>
                </g>
                <g transform="matrix(0.741272,0.634,-0.636463,0.744152,1985.86,-527.015)">
                    <rect x="1057.24" y="573.208" width="56.16" height="40.1" style="fill:rgb(83,93,111);"/>
                </g>
                <g transform="matrix(0.741272,0.634,-0.390949,0.457097,1845.13,-362.473)">
                    <rect x="1057.24" y="573.208" width="56.16" height="40.1" style="fill:rgb(52,57,69);"/>
                </g>
                <g transform="matrix(0.0863669,0.0738684,-0.134071,0.156755,2395.31,433.228)">
                    <path d="M1113.4,580.944C1113.4,576.674 1107.11,573.208 1099.36,573.208L1071.28,573.208C1063.53,573.208 1057.24,576.674 1057.24,580.944L1057.24,605.572C1057.24,609.842 1063.53,613.308 1071.28,613.308L1099.36,613.308C1107.11,613.308 1113.4,609.842 1113.4,605.572L1113.4,580.944Z" style="fill:rgb(254,220,0);"/>
                </g>
                <g transform="matrix(0.146293,0.125122,0.019984,-0.0233653,2242.53,454.283)">
                    <rect x="1057.24" y="573.208" width="56.16" height="40.1" style="fill:rgb(0,0,2);"/>
                </g>
                <g transform="matrix(0.146293,0.125122,0.019984,-0.0233653,2267.47,475.629)">
                    <rect x="1057.24" y="573.208" width="56.16" height="40.1" style="fill:rgb(0,0,2);"/>
                </g>
                <g transform="matrix(1,0,0,1,1330,0)">
                    <path d="M1148.18,665.466C1144.51,667.612 1141.25,670.227 1138.95,674.409L1144.26,679.81L1146.69,678.886C1151.38,684.447 1156.52,688.9 1162.36,691.681C1162.36,691.681 1165.72,688.036 1163.37,684.714C1161.53,682.119 1157.89,677.245 1156.39,675.235C1155.96,674.671 1155.85,673.934 1156.07,673.266C1156.24,672.779 1156.4,672.31 1156.4,672.31L1148.18,665.466Z" style="fill:rgb(0,0,2);"/>
                </g>
                <g transform="matrix(1,0,0,1,1330,0)">
                    <path d="M1077.33,679.823C1071.29,681.18 1068.53,683.768 1067.09,686.575L1071.81,692.038L1074.36,691.687C1074.36,691.687 1078.03,697.533 1079.88,700.48C1080.55,701.536 1081.62,702.265 1082.85,702.49C1085.68,703.01 1090.64,703.919 1090.64,703.919C1090.64,703.919 1091.88,699.722 1088.74,698.133C1086.03,696.759 1084.32,695.634 1084.32,695.634L1083.42,687.81L1077.33,679.823Z" style="fill:rgb(0,0,2);"/>
                </g>
                <g transform="matrix(1,0,0,1,1330,0)">
                    <path d="M1171.61,550.402C1171.61,550.402 1169.77,547.611 1169.75,543.772C1169.73,539.934 1169.24,532.729 1170.29,528.868C1171.35,525.007 1178.3,521.024 1182.31,521.24C1186.33,521.457 1194.59,529.732 1198.47,530.119C1202.36,530.506 1204.92,528.945 1205.6,531.367C1206.28,533.788 1203.26,536.588 1200.39,537.045C1197.51,537.501 1196.05,537.462 1196.05,537.462C1196.18,536.251 1196.26,535.313 1196.26,535.313C1192.58,534.511 1188.73,533.059 1184.61,530.679C1184.34,530.299 1178.43,534.543 1177.02,536.875C1176.76,534.594 1172.12,533.715 1171.75,538.265C1171.31,543.534 1174.28,543.276 1174.28,543.276L1171.61,550.402Z" style="fill:rgb(0,0,2);"/>
                </g>
                <g transform="matrix(1,0,0,1,1330,0)">
                    <path d="M1188.42,540.082C1188.41,539.494 1189.76,539.599 1190.43,539.712C1191.11,539.825 1192.76,541.91 1193.2,542.604C1193.65,543.298 1193.84,543.663 1193.27,544.024C1192.84,544.291 1192.13,543.838 1192.13,543.838C1192.13,543.838 1191.78,544.531 1191.35,544.89C1190.41,544.326 1188.56,543.666 1187.47,543.563C1186.98,543.063 1187.11,542.692 1187.66,542.408C1188.7,542.454 1190.01,542.437 1191.54,542.916C1192.03,542.649 1188.43,540.678 1188.42,540.082Z" style="fill:rgb(112,52,0);"/>
                </g>
                <g transform="matrix(1,0,0,1,1330,0)">
                    <path d="M1189.28,551.477L1187.23,555.952L1184.01,554.735C1183.58,554.575 1183.27,554.214 1183.17,553.773C1183.07,553.332 1183.19,552.87 1183.51,552.542L1186.55,549.338C1186.79,549.086 1187.14,548.965 1187.48,549.013C1187.83,549.061 1188.12,549.272 1188.29,549.58L1189.28,551.477Z" style="fill:white;"/>
                </g>
                <g transform="matrix(1,0,0,1,1330,0)">
                    <path d="M1089.69,582.619L1091.52,580.486C1093,578.755 1095.61,578.551 1097.34,580.032L1103.03,584.9C1104.76,586.381 1104.96,588.988 1103.48,590.72L1101.66,592.853L1099.5,591.008L1101.33,588.875C1101.79,588.334 1101.72,587.52 1101.18,587.057L1095.49,582.189C1094.95,581.727 1094.14,581.79 1093.67,582.331L1091.85,584.464L1089.69,582.619Z" style="fill:rgb(0,0,2);"/>
                </g>
                <g transform="matrix(1,0,0,1,1329.95,0.231315)">
                    <path d="M1208.44,539.762C1208.44,539.762 1213.78,528.522 1218.12,533.686C1222.46,538.85 1208.44,539.762 1208.44,539.762Z" style="fill:white;"/>
                </g>
                <g transform="matrix(0.551653,0.577166,-0.577166,0.551653,2188.12,-447.3)">
                    <path d="M1208.44,539.762C1211.56,535.727 1216.23,528.961 1218.12,533.686C1219.91,538.167 1208.44,539.762 1208.44,539.762Z" style="fill:white;"/>
                </g>
                <g transform="matrix(1,0,0,1,1340.36,3.07595)">
                    <path d="M1205.95,539.456C1211.62,537.101 1214.69,528.455 1218.12,533.686C1219.23,535.384 1216.82,538.18 1213.25,538.858C1209.79,539.515 1205.95,539.456 1205.95,539.456Z" style="fill:white;"/>
                </g>
                <g transform="matrix(1,0,0,1,1330,0)">
                    <path d="M1170.48,615.835C1178.03,622.49 1185.52,631.22 1192.97,641.439C1184.71,650.66 1171.98,661.762 1157.8,673.478L1146.98,664.466C1154.04,656.11 1161.11,647.911 1168.2,640.448C1161.92,637.844 1155.76,634.365 1149.74,629.857C1142.88,643.758 1137.58,653.21 1133.96,657.918C1115.95,671.752 1100.04,680.467 1084.25,688.895L1076.76,679.083C1089.65,669.431 1101.81,660.73 1117.37,647.63C1122.81,638.162 1127.73,626.618 1132.38,613.964C1140.84,622.229 1153.53,626.671 1167.89,629.603L1170.48,615.835Z" style="fill:rgb(100,102,118);"/>
                </g>
                <g transform="matrix(1,0,0,1,1330,0)">
                    <path d="M1101.05,575.179C1098.2,577.32 1095.8,579.984 1093.77,583.067C1093.41,583.619 1093.52,584.352 1094.03,584.772C1095.11,585.666 1096.93,587.171 1098.01,588.063C1098.51,588.478 1099.24,588.456 1099.72,588.012C1100.17,587.594 1100.63,587.165 1100.63,587.165C1100.63,587.165 1099.31,584.455 1101.49,584.042C1102.9,583.775 1103.58,585.603 1103.58,585.603C1104.8,585.601 1105.62,583.892 1106.17,581.554L1101.05,575.179Z" style="fill:rgb(236,193,156);"/>
                </g>
            </g>
        </g>
    </g>
</svg>
