<svg width="556" height="464" viewBox="0 0 556 464" fill="none" xmlns="http://www.w3.org/2000/svg">
<g filter="url(#filter0_d_696_6926)">
<rect x="48" y="23" width="460" height="368" rx="10" fill="white"/>
</g>
<path d="M70.3057 83.1916C70.3057 81.0177 72.068 79.2554 74.2419 79.2554H82.1143C84.2882 79.2554 86.0505 81.0177 86.0505 83.1916V91.064C86.0505 93.2379 84.2882 95.0002 82.1143 95.0002H74.2419C72.068 95.0002 70.3057 93.2379 70.3057 91.064V83.1916Z" fill="white"/>
<path d="M74.2419 80.2394H82.1143V78.2713H74.2419V80.2394ZM85.0665 83.1916V91.064H87.0346V83.1916H85.0665ZM82.1143 94.0162H74.2419V95.9843H82.1143V94.0162ZM71.2897 91.064V83.1916H69.3216V91.064H71.2897ZM74.2419 94.0162C72.6114 94.0162 71.2897 92.6945 71.2897 91.064H69.3216C69.3216 93.7814 71.5245 95.9843 74.2419 95.9843V94.0162ZM85.0665 91.064C85.0665 92.6945 83.7448 94.0162 82.1143 94.0162V95.9843C84.8317 95.9843 87.0346 93.7814 87.0346 91.064H85.0665ZM82.1143 80.2394C83.7448 80.2394 85.0665 81.5612 85.0665 83.1916H87.0346C87.0346 80.4742 84.8317 78.2713 82.1143 78.2713V80.2394ZM74.2419 78.2713C71.5245 78.2713 69.3216 80.4742 69.3216 83.1916H71.2897C71.2897 81.5612 72.6114 80.2394 74.2419 80.2394V78.2713Z" fill="#D1D5DB"/>
<path d="M105.266 63.6973H103.406L100.967 59.6056H99.1763V63.6973H97.5644L97.5506 54.0535H101.174C102.102 54.0535 102.846 54.3061 103.406 54.8113C103.966 55.3164 104.246 55.9869 104.246 56.8227C104.246 57.3921 104.099 57.8972 103.805 58.3381C103.521 58.779 103.126 59.1096 102.62 59.33L105.266 63.6973ZM99.1763 55.4588V58.1866H100.94C101.472 58.1866 101.881 58.0672 102.166 57.8284C102.46 57.5896 102.607 57.2543 102.607 56.8227C102.607 56.391 102.46 56.0558 102.166 55.817C101.881 55.5782 101.472 55.4588 100.94 55.4588H99.1763ZM109.248 63.8075C108.311 63.8075 107.494 63.5274 106.796 62.9671C106.107 62.4068 105.693 61.6859 105.556 60.8041L107.03 60.3495C107.112 60.9649 107.365 61.4608 107.787 61.8374C108.21 62.214 108.715 62.4022 109.303 62.4022C109.872 62.4022 110.327 62.2783 110.667 62.0303C111.016 61.7823 111.19 61.4517 111.19 61.0383C111.19 60.6893 111.057 60.3954 110.791 60.1566C110.534 59.9178 110.208 59.7433 109.813 59.6331C109.427 59.5137 109.004 59.3805 108.545 59.2336C108.095 59.0775 107.673 58.9121 107.278 58.7376C106.892 58.5631 106.566 58.2876 106.3 57.911C106.042 57.5345 105.914 57.0752 105.914 56.5333C105.914 55.771 106.226 55.1511 106.851 54.6735C107.475 54.1867 108.265 53.9433 109.22 53.9433C110.129 53.9433 110.906 54.1637 111.548 54.6046C112.191 55.0455 112.582 55.6287 112.72 56.3542L111.273 56.9467C111.172 56.4507 110.938 56.0603 110.57 55.7756C110.212 55.4909 109.762 55.3485 109.22 55.3485C108.697 55.3485 108.283 55.4542 107.98 55.6654C107.686 55.8767 107.539 56.166 107.539 56.5333C107.539 56.8364 107.668 57.0844 107.925 57.2773C108.192 57.4702 108.518 57.6125 108.903 57.7044C109.298 57.787 109.725 57.9018 110.185 58.0488C110.644 58.1957 111.066 58.3657 111.452 58.5585C111.847 58.7422 112.173 59.0453 112.43 59.4678C112.697 59.8903 112.83 60.4046 112.83 61.0108C112.83 61.8558 112.504 62.5354 111.852 63.0498C111.199 63.5549 110.332 63.8075 109.248 63.8075ZM113.682 60.3633V59.0683H117.967V60.3633H113.682ZM121.688 63.8075C120.706 63.8075 119.893 63.5503 119.25 63.036C118.607 62.5216 118.24 61.8374 118.148 60.9832L119.636 60.749C119.7 61.245 119.92 61.6445 120.297 61.9476C120.674 62.2415 121.137 62.3885 121.688 62.3885C122.276 62.3885 122.749 62.2277 123.107 61.9063C123.466 61.5756 123.645 61.144 123.645 60.6113C123.645 60.0602 123.475 59.6331 123.135 59.33C122.795 59.0178 122.331 58.8616 121.744 58.8616C121.321 58.8616 120.963 58.9627 120.669 59.1647L120.008 58.1177L122.818 55.4588H118.423V54.0535H124.719V55.3899L122.129 57.787C123.066 57.7319 123.824 57.9661 124.402 58.4896C124.99 59.0132 125.284 59.7341 125.284 60.6526C125.284 61.5986 124.953 62.3609 124.292 62.9395C123.64 63.5182 122.772 63.8075 121.688 63.8075ZM128.021 63.6973V55.9134C127.434 56.4277 126.69 56.7767 125.79 56.9604V55.5139C126.754 55.3026 127.585 54.8158 128.283 54.0535H129.537V63.6973H128.021ZM134.817 63.8075C133.613 63.8075 132.677 63.362 132.006 62.4711C131.336 61.5802 131 60.3817 131 58.8754C131 57.3691 131.336 56.1706 132.006 55.2797C132.677 54.3888 133.613 53.9433 134.817 53.9433C136.011 53.9433 136.943 54.3888 137.613 55.2797C138.293 56.1706 138.633 57.3691 138.633 58.8754C138.633 60.3817 138.293 61.5802 137.613 62.4711C136.943 63.362 136.011 63.8075 134.817 63.8075ZM134.817 62.3885C135.515 62.3885 136.052 62.0808 136.428 61.4654C136.814 60.8409 137.007 59.9775 137.007 58.8754C137.007 57.7733 136.814 56.9099 136.428 56.2854C136.052 55.6608 135.515 55.3485 134.817 55.3485C134.109 55.3485 133.567 55.6608 133.191 56.2854C132.814 56.9099 132.626 57.7733 132.626 58.8754C132.626 59.9775 132.814 60.8409 133.191 61.4654C133.567 62.0808 134.109 62.3885 134.817 62.3885ZM142.771 63.8075C141.788 63.8075 140.975 63.5503 140.332 63.036C139.689 62.5216 139.322 61.8374 139.23 60.9832L140.718 60.749C140.782 61.245 141.003 61.6445 141.379 61.9476C141.756 62.2415 142.22 62.3885 142.771 62.3885C143.358 62.3885 143.831 62.2277 144.19 61.9063C144.548 61.5756 144.727 61.144 144.727 60.6113C144.727 60.0602 144.557 59.6331 144.217 59.33C143.877 59.0178 143.414 58.8616 142.826 58.8616C142.403 58.8616 142.045 58.9627 141.751 59.1647L141.09 58.1177L143.9 55.4588H139.506V54.0535H145.802V55.3899L143.211 57.787C144.148 57.7319 144.906 57.9661 145.485 58.4896C146.072 59.0132 146.366 59.7341 146.366 60.6526C146.366 61.5986 146.036 62.3609 145.374 62.9395C144.722 63.5182 143.854 63.8075 142.771 63.8075Z" fill="#6B7280"/>
<path d="M95.8906 89.7154C95.8906 84.2806 100.296 79.7837 105.731 79.7837H259.973C265.407 79.7837 269.813 84.2806 269.813 89.7154C269.813 95.1501 265.407 99.647 259.973 99.647H105.731C100.296 99.647 95.8906 95.1501 95.8906 89.7154Z" fill="#F3F4F6"/>
<path d="M106.616 93.7153V85.4493H109.875C110.694 85.4493 111.347 85.6736 111.835 86.1224C112.331 86.5711 112.579 87.1694 112.579 87.9173C112.579 88.6652 112.331 89.2635 111.835 89.7122C111.347 90.1609 110.694 90.3853 109.875 90.3853H108.009V93.7153H106.616ZM108.009 89.1808H109.781C110.214 89.1808 110.552 89.0706 110.796 88.8502C111.048 88.6219 111.174 88.3109 111.174 87.9173C111.174 87.5237 111.048 87.2166 110.796 86.9962C110.552 86.7679 110.214 86.6538 109.781 86.6538H108.009V89.1808ZM118.336 93.7153L117.604 91.7669H114.203L113.471 93.7153H112.042L115.254 85.4493H116.541L119.765 93.7153H118.336ZM114.652 90.5742H117.155L115.904 87.2678L114.652 90.5742ZM121.714 93.7153V90.279L118.845 85.4493H120.356L122.399 88.9683L124.454 85.4493H125.965L123.096 90.279V93.7153H121.714ZM126.82 93.7153V85.4493H128.414L131.047 91.7315L133.681 85.4493H135.275V93.7153H133.952V88.0354L131.591 93.7153H130.516L128.142 88.0354V93.7153H126.82ZM136.899 93.7153V85.4493H142.295V86.6538H138.28V88.7321H141.516V89.9366H138.28V92.499H142.425V93.7153H136.899ZM143.691 93.7153V85.4493H145.144L148.934 91.5307V85.4493H150.257V93.7153H148.804L145.002 87.6457V93.7153H143.691ZM153.827 93.7153V86.6538H151.276V85.4493H157.759V86.6538H155.208V93.7153H153.827ZM158.22 94.8253V93.7153H163.581V94.8253H158.22ZM164.668 93.7153V85.4493H166.262L168.895 91.7315L171.528 85.4493H173.123V93.7153H171.8V88.0354L169.438 93.7153H168.364L165.99 88.0354V93.7153H164.668ZM174.746 93.7153V85.4493H180.143V86.6538H176.128V88.7321H179.364V89.9366H176.128V92.499H180.273V93.7153H174.746ZM183.475 93.7153V86.6538H180.925V85.4493H187.408V86.6538H184.857V93.7153H183.475ZM193.586 85.4493H194.98V93.7153H193.586V90.0074H189.69V93.7153H188.308V85.4493H189.69V88.7911H193.586V85.4493ZM203.342 92.6171C202.562 93.4122 201.574 93.8098 200.378 93.8098C199.181 93.8098 198.193 93.4122 197.414 92.6171C196.635 91.8141 196.245 90.8025 196.245 89.5823C196.245 88.3621 196.635 87.3544 197.414 86.5593C198.193 85.7563 199.181 85.3548 200.378 85.3548C201.574 85.3548 202.562 85.7563 203.342 86.5593C204.121 87.3544 204.511 88.3621 204.511 89.5823C204.511 90.8025 204.121 91.8141 203.342 92.6171ZM198.406 91.7433C198.925 92.3101 199.583 92.5935 200.378 92.5935C201.173 92.5935 201.826 92.3101 202.338 91.7433C202.858 91.1765 203.117 90.4561 203.117 89.5823C203.117 88.7085 202.858 87.9881 202.338 87.4213C201.826 86.8466 201.173 86.5593 200.378 86.5593C199.583 86.5593 198.925 86.8466 198.406 87.4213C197.894 87.9881 197.638 88.7085 197.638 89.5823C197.638 90.4561 197.894 91.1765 198.406 91.7433ZM205.779 93.7153V85.4493H208.377C209.589 85.4493 210.593 85.8114 211.388 86.5357C212.183 87.2599 212.581 88.2755 212.581 89.5823C212.581 90.8891 212.183 91.9047 211.388 92.6289C210.593 93.3532 209.589 93.7153 208.377 93.7153H205.779ZM207.137 92.499H208.282C209.101 92.499 209.786 92.2629 210.337 91.7905C210.888 91.3103 211.164 90.5742 211.164 89.5823C211.164 88.5904 210.888 87.8543 210.337 87.3741C209.786 86.8939 209.101 86.6538 208.282 86.6538H207.137V92.499ZM216.24 89.169V88.059H221.884V89.169H216.24ZM216.24 91.6134V90.5152H221.884V91.6134H216.24ZM231.05 93.7153L228.299 89.7358L227.307 90.7632V93.7153H225.925V85.4493H227.307V88.9092L230.613 85.4493H232.443L229.255 88.7439L232.75 93.7153H231.05ZM233.592 93.7153V85.3548H234.879V93.7153H233.592ZM238.673 87.6693C239.445 87.6693 240.063 87.8779 240.527 88.2952C240.992 88.7045 241.224 89.2753 241.224 90.0074V93.7153H239.96V92.8061C239.787 93.1052 239.531 93.3493 239.193 93.5382C238.854 93.7193 238.488 93.8098 238.095 93.8098C237.504 93.8098 237.024 93.6445 236.654 93.3138C236.284 92.9832 236.099 92.562 236.099 92.0503C236.099 90.9167 237.012 90.2554 238.839 90.0665L239.96 89.9484V89.8657C239.96 89.5036 239.842 89.2162 239.606 89.0037C239.378 88.7911 239.067 88.6848 238.673 88.6848C238.311 88.6848 238.012 88.7872 237.776 88.9919C237.54 89.1887 237.402 89.4642 237.363 89.8185L236.205 89.6059C236.3 89.0234 236.575 88.5549 237.032 88.2007C237.489 87.8464 238.036 87.6693 238.673 87.6693ZM238.355 92.8179C238.85 92.8179 239.24 92.6644 239.524 92.3573C239.807 92.0503 239.953 91.6488 239.96 91.1529V90.9049L238.827 91.0348C237.851 91.145 237.363 91.4717 237.363 92.0149C237.363 92.2511 237.453 92.4439 237.634 92.5935C237.815 92.7431 238.055 92.8179 238.355 92.8179ZM246.433 89.0155C246.221 88.921 245.965 88.8738 245.666 88.8738C245.193 88.8738 244.8 89.0942 244.485 89.5351C244.178 89.9681 244.024 90.6215 244.024 91.4953V93.7153H242.737V87.7638H244.024V88.8974C244.182 88.5431 244.434 88.2519 244.78 88.0236C245.126 87.7874 245.481 87.6693 245.843 87.6693C246.103 87.6693 246.323 87.7047 246.504 87.7756L246.433 89.0155ZM247.419 93.7153V87.7638H248.706V88.7557C249.163 88.0314 249.816 87.6693 250.666 87.6693C251.304 87.6693 251.82 87.8661 252.213 88.2597C252.615 88.6455 252.816 89.1572 252.816 89.7949V93.7153H251.528V90.0901C251.528 89.7122 251.418 89.4091 251.198 89.1808C250.977 88.9446 250.682 88.8265 250.312 88.8265C249.808 88.8265 249.415 89.0273 249.131 89.4288C248.848 89.8303 248.706 90.3892 248.706 91.1056V93.7153H247.419ZM256.594 87.6693C257.365 87.6693 257.983 87.8779 258.448 88.2952C258.912 88.7045 259.145 89.2753 259.145 90.0074V93.7153H257.881V92.8061C257.708 93.1052 257.452 93.3493 257.113 93.5382C256.775 93.7193 256.409 93.8098 256.015 93.8098C255.425 93.8098 254.945 93.6445 254.575 93.3138C254.205 92.9832 254.02 92.562 254.02 92.0503C254.02 90.9167 254.933 90.2554 256.759 90.0665L257.881 89.9484V89.8657C257.881 89.5036 257.763 89.2162 257.527 89.0037C257.298 88.7911 256.988 88.6848 256.594 88.6848C256.232 88.6848 255.933 88.7872 255.696 88.9919C255.46 89.1887 255.323 89.4642 255.283 89.8185L254.126 89.6059C254.22 89.0234 254.496 88.5549 254.953 88.2007C255.409 87.8464 255.956 87.6693 256.594 87.6693ZM256.275 92.8179C256.771 92.8179 257.161 92.6644 257.444 92.3573C257.728 92.0503 257.873 91.6488 257.881 91.1529V90.9049L256.747 91.0348C255.771 91.145 255.283 91.4717 255.283 92.0149C255.283 92.2511 255.374 92.4439 255.555 92.5935C255.736 92.7431 255.976 92.8179 256.275 92.8179Z" fill="#1F2937"/>
<path d="M95.7812 144.932C95.7812 139.497 100.187 135 105.622 135H222.979C228.414 135 232.82 139.497 232.82 144.932C232.82 150.366 228.414 154.863 222.979 154.863H105.622C100.187 154.863 95.7812 150.366 95.7812 144.932Z" fill="#F3F4F6"/>
<path d="M110.431 149.026C109.699 149.026 109.03 148.877 108.424 148.577C107.826 148.27 107.334 147.79 106.948 147.137C106.562 146.483 106.369 145.704 106.369 144.799C106.369 143.46 106.763 142.421 107.55 141.681C108.337 140.941 109.298 140.571 110.431 140.571C111.384 140.571 112.183 140.815 112.829 141.303C113.474 141.783 113.872 142.437 114.021 143.263L112.652 143.559C112.533 143.008 112.278 142.575 111.884 142.26C111.49 141.937 111.006 141.776 110.431 141.776C109.652 141.776 109.014 142.043 108.518 142.579C108.023 143.106 107.775 143.846 107.775 144.799C107.775 145.751 108.019 146.491 108.507 147.019C109.003 147.546 109.644 147.81 110.431 147.81C111.006 147.81 111.482 147.664 111.86 147.373C112.238 147.082 112.494 146.672 112.628 146.145L114.01 146.44C113.805 147.243 113.388 147.877 112.758 148.341C112.128 148.798 111.353 149.026 110.431 149.026ZM122 147.833C121.221 148.629 120.233 149.026 119.036 149.026C117.839 149.026 116.851 148.629 116.072 147.833C115.293 147.03 114.903 146.019 114.903 144.799C114.903 143.578 115.293 142.571 116.072 141.776C116.851 140.973 117.839 140.571 119.036 140.571C120.233 140.571 121.221 140.973 122 141.776C122.779 142.571 123.169 143.578 123.169 144.799C123.169 146.019 122.779 147.03 122 147.833ZM117.064 146.96C117.583 147.526 118.241 147.81 119.036 147.81C119.831 147.81 120.484 147.526 120.996 146.96C121.516 146.393 121.776 145.672 121.776 144.799C121.776 143.925 121.516 143.204 120.996 142.638C120.484 142.063 119.831 141.776 119.036 141.776C118.241 141.776 117.583 142.063 117.064 142.638C116.552 143.204 116.296 143.925 116.296 144.799C116.296 145.672 116.552 146.393 117.064 146.96ZM127.649 149.026C126.673 149.026 125.893 148.762 125.311 148.235C124.728 147.7 124.437 146.952 124.437 145.991V140.666H125.748V146.015C125.748 146.582 125.921 147.023 126.267 147.337C126.614 147.652 127.074 147.81 127.649 147.81C128.223 147.81 128.68 147.652 129.019 147.337C129.365 147.023 129.538 146.582 129.538 146.015V140.666H130.849V145.991C130.849 146.952 130.558 147.7 129.975 148.235C129.393 148.762 128.617 149.026 127.649 149.026ZM132.475 148.932V140.666H133.927L137.718 146.747V140.666H139.04V148.932H137.588L133.785 142.862V148.932H132.475ZM142.61 148.932V141.87H140.06V140.666H146.543V141.87H143.992V148.932H142.61ZM154.056 148.932H152.462L150.372 145.424H148.836V148.932H147.455L147.443 140.666H150.549C151.344 140.666 151.981 140.882 152.462 141.315C152.942 141.748 153.182 142.323 153.182 143.039C153.182 143.527 153.056 143.96 152.804 144.338C152.56 144.716 152.222 144.999 151.789 145.188L154.056 148.932ZM148.836 141.87V144.208H150.348C150.804 144.208 151.155 144.106 151.399 143.901C151.651 143.696 151.777 143.409 151.777 143.039C151.777 142.669 151.651 142.382 151.399 142.177C151.155 141.972 150.804 141.87 150.348 141.87H148.836ZM156.464 148.932V145.495L153.594 140.666H155.106L157.149 144.185L159.203 140.666H160.715L157.845 145.495V148.932H156.464ZM163.981 144.385V143.275H169.626V144.385H163.981ZM163.981 146.83V145.731H169.626V146.83H163.981ZM177.315 149.026C176.599 149.026 175.942 148.877 175.343 148.577C174.753 148.27 174.265 147.79 173.879 147.137C173.493 146.483 173.3 145.704 173.3 144.799C173.3 143.46 173.698 142.421 174.493 141.681C175.288 140.941 176.253 140.571 177.386 140.571C178.347 140.571 179.154 140.811 179.807 141.291C180.46 141.772 180.866 142.429 181.023 143.263L179.653 143.547C179.543 143.004 179.283 142.575 178.874 142.26C178.473 141.937 177.973 141.776 177.374 141.776C176.579 141.776 175.934 142.043 175.438 142.579C174.95 143.114 174.706 143.854 174.706 144.799C174.706 145.743 174.95 146.483 175.438 147.019C175.926 147.546 176.567 147.81 177.363 147.81C178.04 147.81 178.587 147.621 179.004 147.243C179.429 146.857 179.661 146.349 179.701 145.72H177.056V144.574H180.988V148.932H179.736V147.822C179.547 148.184 179.232 148.475 178.791 148.695C178.351 148.916 177.859 149.026 177.315 149.026ZM187.956 145.731C187.956 145.944 187.948 146.121 187.932 146.263H183.386C183.441 146.775 183.622 147.18 183.929 147.479C184.244 147.778 184.637 147.928 185.11 147.928C185.503 147.928 185.83 147.841 186.09 147.668C186.35 147.487 186.519 147.235 186.598 146.912L187.814 147.219C187.656 147.794 187.338 148.239 186.857 148.554C186.377 148.869 185.787 149.026 185.086 149.026C184.181 149.026 183.46 148.727 182.925 148.129C182.39 147.522 182.122 146.798 182.122 145.956C182.122 145.106 182.378 144.381 182.89 143.783C183.409 143.185 184.122 142.886 185.027 142.886C185.94 142.886 186.657 143.165 187.176 143.724C187.696 144.283 187.956 144.952 187.956 145.731ZM183.445 145.283H186.586C186.546 144.866 186.389 144.531 186.113 144.279C185.846 144.027 185.484 143.901 185.027 143.901C184.618 143.901 184.275 144.023 184 144.267C183.724 144.503 183.539 144.842 183.445 145.283ZM192.849 144.232C192.636 144.137 192.38 144.09 192.081 144.09C191.609 144.09 191.215 144.311 190.9 144.751C190.593 145.184 190.44 145.838 190.44 146.712V148.932H189.152V142.98H190.44V144.114C190.597 143.759 190.849 143.468 191.195 143.24C191.542 143.004 191.896 142.886 192.258 142.886C192.518 142.886 192.738 142.921 192.919 142.992L192.849 144.232ZM193.834 148.932V142.98H195.122V143.984C195.484 143.252 196.066 142.886 196.869 142.886C197.349 142.886 197.751 142.988 198.074 143.193C198.404 143.397 198.633 143.689 198.759 144.066C198.924 143.72 199.18 143.437 199.526 143.216C199.873 142.996 200.27 142.886 200.719 142.886C201.356 142.886 201.864 143.075 202.242 143.452C202.628 143.822 202.821 144.311 202.821 144.917V148.932H201.534V145.236C201.534 144.858 201.427 144.559 201.215 144.338C201.01 144.11 200.723 143.996 200.353 143.996C199.92 143.996 199.577 144.173 199.325 144.527C199.081 144.873 198.959 145.338 198.959 145.92V148.932H197.684V145.236C197.684 144.858 197.582 144.559 197.377 144.338C197.172 144.11 196.885 143.996 196.515 143.996C196.082 143.996 195.739 144.173 195.488 144.527C195.244 144.881 195.122 145.346 195.122 145.92V148.932H193.834ZM206.596 142.886C207.367 142.886 207.985 143.094 208.45 143.511C208.914 143.921 209.146 144.492 209.146 145.224V148.932H207.883V148.022C207.71 148.322 207.454 148.566 207.115 148.755C206.777 148.936 206.411 149.026 206.017 149.026C205.427 149.026 204.946 148.861 204.576 148.53C204.206 148.2 204.021 147.778 204.021 147.267C204.021 146.133 204.935 145.472 206.761 145.283L207.883 145.165V145.082C207.883 144.72 207.765 144.433 207.529 144.22C207.3 144.007 206.989 143.901 206.596 143.901C206.234 143.901 205.934 144.003 205.698 144.208C205.462 144.405 205.324 144.681 205.285 145.035L204.128 144.822C204.222 144.24 204.498 143.771 204.954 143.417C205.411 143.063 205.958 142.886 206.596 142.886ZM206.277 148.034C206.773 148.034 207.162 147.881 207.446 147.574C207.729 147.267 207.875 146.865 207.883 146.369V146.121L206.749 146.251C205.773 146.361 205.285 146.688 205.285 147.231C205.285 147.467 205.375 147.66 205.556 147.81C205.738 147.959 205.978 148.034 206.277 148.034ZM210.659 148.932V142.98H211.947V143.972C212.403 143.248 213.057 142.886 213.907 142.886C214.544 142.886 215.06 143.082 215.454 143.476C215.855 143.862 216.056 144.373 216.056 145.011V148.932H214.769V145.306C214.769 144.929 214.659 144.625 214.438 144.397C214.218 144.161 213.923 144.043 213.553 144.043C213.049 144.043 212.655 144.244 212.372 144.645C212.088 145.047 211.947 145.606 211.947 146.322V148.932H210.659ZM221.245 142.98H222.568L219.438 151.081H218.116L219.013 148.755L216.699 142.98H218.092L219.651 147.101L221.245 142.98Z" fill="#1F2937"/>
<path d="M96 116.932C96 111.497 100.406 107 105.841 107H350.615C356.05 107 360.456 111.497 360.456 116.932C360.456 122.366 356.05 126.863 350.615 126.863H105.841C100.406 126.863 96 122.366 96 116.932Z" fill="#F3F4F6"/>
<path d="M108.833 120.932V113.87H106.282V112.666H112.765V113.87H110.215V120.932H108.833ZM119.982 119.833C119.202 120.629 118.214 121.026 117.018 121.026C115.821 121.026 114.833 120.629 114.054 119.833C113.274 119.03 112.885 118.019 112.885 116.799C112.885 115.578 113.274 114.571 114.054 113.776C114.833 112.973 115.821 112.571 117.018 112.571C118.214 112.571 119.202 112.973 119.982 113.776C120.761 114.571 121.151 115.578 121.151 116.799C121.151 118.019 120.761 119.03 119.982 119.833ZM115.046 118.96C115.565 119.526 116.222 119.81 117.018 119.81C117.813 119.81 118.466 119.526 118.978 118.96C119.497 118.393 119.757 117.672 119.757 116.799C119.757 115.925 119.497 115.204 118.978 114.638C118.466 114.063 117.813 113.776 117.018 113.776C116.222 113.776 115.565 114.063 115.046 114.638C114.534 115.204 114.278 115.925 114.278 116.799C114.278 117.672 114.534 118.393 115.046 118.96ZM123.836 120.932V113.87H121.285V112.666H127.768V113.87H125.218V120.932H123.836ZM133.239 120.932L132.507 118.983H129.106L128.374 120.932H126.945L130.157 112.666H131.444L134.668 120.932H133.239ZM129.555 117.791H132.058L130.807 114.484L129.555 117.791ZM135.519 120.932V112.666H136.9V119.715H140.844V120.932H135.519ZM141.272 122.042V120.932H146.633V122.042H141.272ZM154.45 119.833C153.671 120.629 152.683 121.026 151.486 121.026C150.29 121.026 149.302 120.629 148.522 119.833C147.743 119.03 147.353 118.019 147.353 116.799C147.353 115.578 147.743 114.571 148.522 113.776C149.302 112.973 150.29 112.571 151.486 112.571C152.683 112.571 153.671 112.973 154.45 113.776C155.23 114.571 155.619 115.578 155.619 116.799C155.619 118.019 155.23 119.03 154.45 119.833ZM149.514 118.96C150.034 119.526 150.691 119.81 151.486 119.81C152.282 119.81 152.935 119.526 153.447 118.96C153.966 118.393 154.226 117.672 154.226 116.799C154.226 115.925 153.966 115.204 153.447 114.638C152.935 114.063 152.282 113.776 151.486 113.776C150.691 113.776 150.034 114.063 149.514 114.638C149.003 115.204 148.747 115.925 148.747 116.799C148.747 117.672 149.003 118.393 149.514 118.96ZM163.5 120.932H161.906L159.816 117.424H158.281V120.932H156.899L156.887 112.666H159.993C160.788 112.666 161.426 112.882 161.906 113.315C162.386 113.748 162.626 114.323 162.626 115.039C162.626 115.527 162.5 115.96 162.248 116.338C162.004 116.716 161.666 116.999 161.233 117.188L163.5 120.932ZM158.281 113.87V116.208H159.792C160.249 116.208 160.599 116.106 160.843 115.901C161.095 115.696 161.221 115.409 161.221 115.039C161.221 114.669 161.095 114.382 160.843 114.177C160.599 113.972 160.249 113.87 159.792 113.87H158.281ZM164.464 120.932V112.666H167.062C168.274 112.666 169.278 113.028 170.073 113.752C170.868 114.476 171.266 115.492 171.266 116.799C171.266 118.105 170.868 119.121 170.073 119.845C169.278 120.57 168.274 120.932 167.062 120.932H164.464ZM165.822 119.715H166.967C167.786 119.715 168.471 119.479 169.022 119.007C169.573 118.527 169.848 117.791 169.848 116.799C169.848 115.807 169.573 115.071 169.022 114.59C168.471 114.11 167.786 113.87 166.967 113.87H165.822V119.715ZM172.513 120.932V112.666H177.91V113.87H173.895V115.948H177.13V117.153H173.895V119.715H178.039V120.932H172.513ZM185.918 120.932H184.324L182.234 117.424H180.699V120.932H179.317L179.305 112.666H182.411C183.206 112.666 183.844 112.882 184.324 113.315C184.804 113.748 185.044 114.323 185.044 115.039C185.044 115.527 184.918 115.96 184.666 116.338C184.422 116.716 184.084 116.999 183.651 117.188L185.918 120.932ZM180.699 113.87V116.208H182.21C182.667 116.208 183.017 116.106 183.261 115.901C183.513 115.696 183.639 115.409 183.639 115.039C183.639 114.669 183.513 114.382 183.261 114.177C183.017 113.972 182.667 113.87 182.21 113.87H180.699ZM189.331 121.026C188.528 121.026 187.828 120.786 187.229 120.306C186.639 119.826 186.285 119.208 186.167 118.452L187.43 118.062C187.501 118.59 187.718 119.015 188.08 119.337C188.442 119.66 188.875 119.822 189.379 119.822C189.867 119.822 190.256 119.715 190.548 119.503C190.847 119.29 190.996 119.007 190.996 118.653C190.996 118.353 190.882 118.101 190.654 117.897C190.434 117.692 190.154 117.543 189.816 117.448C189.485 117.346 189.123 117.232 188.729 117.106C188.343 116.972 187.981 116.83 187.643 116.681C187.312 116.531 187.033 116.295 186.804 115.972C186.584 115.649 186.474 115.256 186.474 114.791C186.474 114.138 186.741 113.606 187.277 113.197C187.812 112.78 188.489 112.571 189.308 112.571C190.087 112.571 190.752 112.76 191.303 113.138C191.855 113.516 192.189 114.016 192.307 114.638L191.067 115.145C190.981 114.72 190.78 114.386 190.465 114.142C190.158 113.898 189.772 113.776 189.308 113.776C188.859 113.776 188.505 113.866 188.245 114.047C187.993 114.228 187.867 114.476 187.867 114.791C187.867 115.051 187.977 115.263 188.198 115.429C188.426 115.594 188.706 115.716 189.036 115.795C189.375 115.866 189.741 115.964 190.134 116.09C190.528 116.216 190.89 116.362 191.221 116.527C191.559 116.684 191.839 116.944 192.059 117.306C192.287 117.669 192.402 118.109 192.402 118.629C192.402 119.353 192.122 119.936 191.563 120.377C191.004 120.81 190.26 121.026 189.331 121.026ZM196.028 120.447V119.125L200.114 117.495L196.028 115.878V114.555L201.673 116.917V118.086L196.028 120.447ZM209.409 120.932V119.078H205.158V117.873L209.256 112.666H210.791V117.873H211.901V119.078H210.791V120.932H209.409ZM206.611 117.873H209.409V114.295L206.611 117.873ZM218.116 114.886C218.887 114.886 219.505 115.094 219.97 115.511C220.434 115.921 220.666 116.492 220.666 117.224V120.932H219.403V120.022C219.23 120.322 218.974 120.566 218.635 120.755C218.297 120.936 217.931 121.026 217.537 121.026C216.947 121.026 216.466 120.861 216.096 120.53C215.726 120.2 215.541 119.778 215.541 119.267C215.541 118.133 216.455 117.472 218.281 117.283L219.403 117.165V117.082C219.403 116.72 219.285 116.433 219.049 116.22C218.82 116.007 218.509 115.901 218.116 115.901C217.754 115.901 217.454 116.003 217.218 116.208C216.982 116.405 216.844 116.681 216.805 117.035L215.648 116.822C215.742 116.24 216.018 115.771 216.474 115.417C216.931 115.063 217.478 114.886 218.116 114.886ZM217.797 120.034C218.293 120.034 218.683 119.881 218.966 119.574C219.249 119.267 219.395 118.865 219.403 118.369V118.121L218.269 118.251C217.293 118.361 216.805 118.688 216.805 119.231C216.805 119.467 216.896 119.66 217.077 119.81C217.258 119.959 217.498 120.034 217.797 120.034ZM222.179 120.932V114.98H223.467V115.972C223.923 115.248 224.577 114.886 225.427 114.886C226.065 114.886 226.58 115.082 226.974 115.476C227.375 115.862 227.576 116.373 227.576 117.011V120.932H226.289V117.306C226.289 116.929 226.179 116.625 225.958 116.397C225.738 116.161 225.443 116.043 225.073 116.043C224.569 116.043 224.175 116.244 223.892 116.645C223.608 117.047 223.467 117.606 223.467 118.322V120.932H222.179ZM231.614 121.026C230.725 121.026 230.028 120.747 229.524 120.188C229.02 119.621 228.768 118.877 228.768 117.956C228.768 117.043 229.016 116.303 229.512 115.736C230.016 115.169 230.709 114.886 231.591 114.886C231.968 114.886 232.319 114.964 232.641 115.122C232.972 115.271 233.228 115.472 233.409 115.724V112.571H234.696V120.932H233.409V120.176C233.267 120.428 233.031 120.632 232.701 120.79C232.37 120.947 232.008 121.026 231.614 121.026ZM230.528 119.373C230.843 119.727 231.26 119.904 231.779 119.904C232.299 119.904 232.716 119.727 233.031 119.373C233.346 119.011 233.504 118.538 233.504 117.956C233.504 117.365 233.346 116.893 233.031 116.539C232.716 116.185 232.299 116.007 231.779 116.007C231.26 116.007 230.843 116.185 230.528 116.539C230.213 116.893 230.055 117.365 230.055 117.956C230.055 118.538 230.213 119.011 230.528 119.373ZM241.046 120.932V113.87H238.496V112.666H244.979V113.87H242.428V120.932H241.046ZM252.195 119.833C251.415 120.629 250.427 121.026 249.231 121.026C248.034 121.026 247.046 120.629 246.267 119.833C245.487 119.03 245.098 118.019 245.098 116.799C245.098 115.578 245.487 114.571 246.267 113.776C247.046 112.973 248.034 112.571 249.231 112.571C250.427 112.571 251.415 112.973 252.195 113.776C252.974 114.571 253.364 115.578 253.364 116.799C253.364 118.019 252.974 119.03 252.195 119.833ZM247.259 118.96C247.778 119.526 248.436 119.81 249.231 119.81C250.026 119.81 250.679 119.526 251.191 118.96C251.711 118.393 251.97 117.672 251.97 116.799C251.97 115.925 251.711 115.204 251.191 114.638C250.679 114.063 250.026 113.776 249.231 113.776C248.436 113.776 247.778 114.063 247.259 114.638C246.747 115.204 246.491 115.925 246.491 116.799C246.491 117.672 246.747 118.393 247.259 118.96ZM256.049 120.932V113.87H253.499V112.666H259.982V113.87H257.431V120.932H256.049ZM265.452 120.932L264.72 118.983H261.319L260.587 120.932H259.158L262.37 112.666H263.657L266.881 120.932H265.452ZM261.768 117.791H264.271L263.02 114.484L261.768 117.791ZM267.732 120.932V112.666H269.113V119.715H273.058V120.932H267.732ZM273.485 122.042V120.932H278.846V122.042H273.485ZM286.663 119.833C285.884 120.629 284.896 121.026 283.7 121.026C282.503 121.026 281.515 120.629 280.736 119.833C279.956 119.03 279.566 118.019 279.566 116.799C279.566 115.578 279.956 114.571 280.736 113.776C281.515 112.973 282.503 112.571 283.7 112.571C284.896 112.571 285.884 112.973 286.663 113.776C287.443 114.571 287.833 115.578 287.833 116.799C287.833 118.019 287.443 119.03 286.663 119.833ZM281.727 118.96C282.247 119.526 282.904 119.81 283.7 119.81C284.495 119.81 285.148 119.526 285.66 118.96C286.179 118.393 286.439 117.672 286.439 116.799C286.439 115.925 286.179 115.204 285.66 114.638C285.148 114.063 284.495 113.776 283.7 113.776C282.904 113.776 282.247 114.063 281.727 114.638C281.216 115.204 280.96 115.925 280.96 116.799C280.96 117.672 281.216 118.393 281.727 118.96ZM295.713 120.932H294.119L292.029 117.424H290.494V120.932H289.112L289.1 112.666H292.206C293.001 112.666 293.639 112.882 294.119 113.315C294.599 113.748 294.839 114.323 294.839 115.039C294.839 115.527 294.713 115.96 294.462 116.338C294.218 116.716 293.879 116.999 293.446 117.188L295.713 120.932ZM290.494 113.87V116.208H292.005C292.462 116.208 292.812 116.106 293.056 115.901C293.308 115.696 293.434 115.409 293.434 115.039C293.434 114.669 293.308 114.382 293.056 114.177C292.812 113.972 292.462 113.87 292.005 113.87H290.494ZM296.677 120.932V112.666H299.275C300.487 112.666 301.491 113.028 302.286 113.752C303.081 114.476 303.479 115.492 303.479 116.799C303.479 118.105 303.081 119.121 302.286 119.845C301.491 120.57 300.487 120.932 299.275 120.932H296.677ZM298.035 119.715H299.18C299.999 119.715 300.684 119.479 301.235 119.007C301.786 118.527 302.062 117.791 302.062 116.799C302.062 115.807 301.786 115.071 301.235 114.59C300.684 114.11 299.999 113.87 299.18 113.87H298.035V119.715ZM304.726 120.932V112.666H310.123V113.87H306.108V115.948H309.343V117.153H306.108V119.715H310.253V120.932H304.726ZM318.131 120.932H316.537L314.447 117.424H312.912V120.932H311.53L311.518 112.666H314.624C315.419 112.666 316.057 112.882 316.537 113.315C317.017 113.748 317.257 114.323 317.257 115.039C317.257 115.527 317.131 115.96 316.88 116.338C316.635 116.716 316.297 116.999 315.864 117.188L318.131 120.932ZM312.912 113.87V116.208H314.423C314.88 116.208 315.23 116.106 315.474 115.901C315.726 115.696 315.852 115.409 315.852 115.039C315.852 114.669 315.726 114.382 315.474 114.177C315.23 113.972 314.88 113.87 314.423 113.87H312.912ZM321.545 121.026C320.742 121.026 320.041 120.786 319.443 120.306C318.852 119.826 318.498 119.208 318.38 118.452L319.643 118.062C319.714 118.59 319.931 119.015 320.293 119.337C320.655 119.66 321.088 119.822 321.592 119.822C322.08 119.822 322.47 119.715 322.761 119.503C323.06 119.29 323.21 119.007 323.21 118.653C323.21 118.353 323.095 118.101 322.867 117.897C322.647 117.692 322.367 117.543 322.029 117.448C321.698 117.346 321.336 117.232 320.942 117.106C320.557 116.972 320.194 116.83 319.856 116.681C319.525 116.531 319.246 116.295 319.017 115.972C318.797 115.649 318.687 115.256 318.687 114.791C318.687 114.138 318.954 113.606 319.49 113.197C320.025 112.78 320.702 112.571 321.521 112.571C322.3 112.571 322.966 112.76 323.517 113.138C324.068 113.516 324.402 114.016 324.52 114.638L323.28 115.145C323.194 114.72 322.993 114.386 322.678 114.142C322.371 113.898 321.985 113.776 321.521 113.776C321.072 113.776 320.718 113.866 320.458 114.047C320.206 114.228 320.08 114.476 320.08 114.791C320.08 115.051 320.19 115.263 320.411 115.429C320.639 115.594 320.919 115.716 321.249 115.795C321.588 115.866 321.954 115.964 322.348 116.09C322.741 116.216 323.103 116.362 323.434 116.527C323.772 116.684 324.052 116.944 324.272 117.306C324.501 117.669 324.615 118.109 324.615 118.629C324.615 119.353 324.335 119.936 323.776 120.377C323.217 120.81 322.473 121.026 321.545 121.026ZM333.886 120.447L328.241 118.086V116.917L333.886 114.555V115.878L329.8 117.495L333.886 119.125V120.447ZM334.664 116.385V115.275H340.309V116.385H334.664ZM334.664 118.83V117.731H340.309V118.83H334.664ZM346.971 121.026C346.09 121.026 345.365 120.798 344.798 120.341C344.239 119.885 343.96 119.278 343.96 118.523C343.96 118.05 344.098 117.629 344.373 117.259C344.649 116.889 345.015 116.629 345.472 116.48C345.117 116.322 344.834 116.09 344.621 115.783C344.409 115.468 344.302 115.13 344.302 114.768C344.302 114.13 344.547 113.606 345.035 113.197C345.531 112.78 346.176 112.571 346.971 112.571C347.751 112.571 348.38 112.78 348.861 113.197C349.349 113.606 349.593 114.13 349.593 114.768C349.593 115.13 349.486 115.468 349.274 115.783C349.061 116.09 348.778 116.322 348.424 116.48C348.888 116.629 349.258 116.889 349.534 117.259C349.809 117.629 349.947 118.05 349.947 118.523C349.947 119.278 349.668 119.885 349.109 120.341C348.55 120.798 347.837 121.026 346.971 121.026ZM346.971 115.972C347.365 115.972 347.684 115.866 347.928 115.653C348.172 115.441 348.298 115.161 348.306 114.815C348.306 114.468 348.184 114.193 347.94 113.988C347.695 113.776 347.373 113.669 346.971 113.669C346.554 113.669 346.219 113.776 345.967 113.988C345.716 114.193 345.594 114.468 345.601 114.815C345.601 115.161 345.727 115.441 345.979 115.653C346.231 115.866 346.562 115.972 346.971 115.972ZM346.959 119.869C347.448 119.869 347.837 119.747 348.128 119.503C348.428 119.251 348.577 118.92 348.577 118.511C348.577 118.094 348.428 117.763 348.128 117.519C347.837 117.267 347.448 117.141 346.959 117.141C346.463 117.141 346.066 117.267 345.767 117.519C345.468 117.763 345.318 118.094 345.318 118.511C345.318 118.92 345.468 119.251 345.767 119.503C346.066 119.747 346.463 119.869 346.959 119.869Z" fill="#1F2937"/>
<path d="M47 193.245L61.8212 200.972L77.2471 193.245L95.1403 200.972L113.033 177.79L121.98 231.881L150.748 247.335L165.569 231.881L180.39 247.335L195.212 231.881H210.033L229.339 261.907L236.496 231.881H256.179L273.023 200.972L286.597 217.199L300.912 231.881L313.437 261.907L334.909 217.199L358.17 200.972H392.167L438.689 193.245L487.929 154.608" stroke="url(#paint0_linear_696_6926)" stroke-width="1.67654"/>
<circle cx="488.124" cy="154.608" r="4.19134" fill="#059669"/>
<path fill-rule="evenodd" clip-rule="evenodd" d="M107.89 325.618C107.705 325.434 107.602 325.183 107.602 324.923C107.602 324.662 107.705 324.411 107.89 324.227L111.831 320.291C112.016 320.106 112.267 320.002 112.528 320.002C112.789 320.002 113.04 320.106 113.224 320.291L117.166 324.227C117.345 324.412 117.444 324.661 117.442 324.919C117.44 325.177 117.336 325.424 117.154 325.606C116.971 325.789 116.724 325.892 116.465 325.894C116.207 325.897 115.958 325.797 115.772 325.618L113.513 323.362V330.827C113.513 331.088 113.409 331.338 113.224 331.523C113.04 331.707 112.789 331.811 112.528 331.811C112.266 331.811 112.016 331.707 111.831 331.523C111.646 331.338 111.542 331.088 111.542 330.827V323.362L109.283 325.618C109.098 325.803 108.848 325.906 108.587 325.906C108.325 325.906 108.075 325.803 107.89 325.618Z" fill="#111827"/>
<path d="M122.868 329.907V328.57L126.367 325.581C127.405 324.699 127.924 323.886 127.924 323.142C127.924 322.665 127.772 322.284 127.469 321.999C127.176 321.705 126.776 321.558 126.271 321.558C125.674 321.558 125.219 321.765 124.907 322.178C124.595 322.582 124.471 323.119 124.535 323.79L122.978 323.68C122.896 322.669 123.166 321.829 123.791 321.158C124.425 320.488 125.251 320.153 126.271 320.153C127.263 320.153 128.057 320.428 128.654 320.979C129.26 321.521 129.563 322.242 129.563 323.142C129.563 323.73 129.384 324.309 129.026 324.878C128.668 325.438 128.103 326.031 127.332 326.655L125.127 328.488H129.55V329.907H122.868ZM132.861 329.741C132.677 329.925 132.443 330.017 132.158 330.017C131.874 330.017 131.64 329.925 131.456 329.741C131.272 329.558 131.18 329.328 131.18 329.053C131.18 328.777 131.272 328.547 131.456 328.364C131.64 328.18 131.874 328.088 132.158 328.088C132.443 328.088 132.677 328.18 132.861 328.364C133.045 328.547 133.137 328.777 133.137 329.053C133.137 329.328 133.045 329.558 132.861 329.741ZM138.75 329.907V327.744H133.79V326.339L138.571 320.263H140.362V326.339H141.657V327.744H140.362V329.907H138.75ZM135.485 326.339H138.75V322.164L135.485 326.339ZM145.663 326.752C144.671 326.752 143.854 326.444 143.211 325.829C142.577 325.204 142.26 324.414 142.26 323.459C142.26 322.495 142.596 321.705 143.266 321.09C143.946 320.465 144.809 320.153 145.856 320.153C146.949 320.153 147.831 320.566 148.501 321.393C149.172 322.21 149.507 323.285 149.507 324.616C149.507 326.334 149.08 327.666 148.226 328.612C147.381 329.549 146.302 330.017 144.988 330.017C143.923 330.017 143.009 329.705 142.247 329.08L143.018 327.882C143.569 328.359 144.221 328.598 144.975 328.598C145.829 328.598 146.536 328.309 147.096 327.73C147.656 327.142 147.959 326.389 148.005 325.471C147.776 325.866 147.45 326.178 147.027 326.407C146.614 326.637 146.159 326.752 145.663 326.752ZM147.234 322.123C146.867 321.746 146.398 321.558 145.829 321.558C145.259 321.558 144.791 321.746 144.423 322.123C144.056 322.49 143.872 322.959 143.872 323.528C143.863 324.088 144.042 324.552 144.41 324.92C144.786 325.278 145.259 325.457 145.829 325.457C146.398 325.457 146.867 325.278 147.234 324.92C147.61 324.552 147.799 324.088 147.799 323.528C147.799 322.959 147.61 322.49 147.234 322.123ZM159.669 328.598C160.33 328.598 160.881 328.428 161.322 328.088C161.763 327.739 162.052 327.262 162.19 326.655L163.815 327C163.577 327.937 163.09 328.676 162.355 329.218C161.63 329.751 160.734 330.017 159.669 330.017C158.622 330.017 157.689 329.737 156.872 329.177C156.064 328.607 155.508 327.799 155.205 326.752H153.855V325.65H155.012C154.994 325.411 154.985 325.223 154.985 325.085C154.985 324.929 154.994 324.722 155.012 324.465H153.855V323.349H155.232C155.536 322.32 156.091 321.53 156.899 320.979C157.717 320.428 158.64 320.153 159.669 320.153C160.771 320.153 161.694 320.438 162.438 321.007C163.191 321.567 163.655 322.33 163.829 323.294L162.231 323.638C162.103 322.986 161.809 322.476 161.349 322.109C160.899 321.742 160.339 321.558 159.669 321.558C159.035 321.558 158.479 321.71 158.002 322.013C157.524 322.316 157.166 322.761 156.927 323.349H160.95L160.605 324.465H156.652C156.633 324.722 156.624 324.929 156.624 325.085C156.624 325.223 156.633 325.411 156.652 325.65H160.178L159.848 326.752H156.899C157.129 327.358 157.487 327.817 157.974 328.13C158.461 328.442 159.026 328.598 159.669 328.598Z" fill="#065F46"/>
<path d="M85.2274 354.854V347.935C84.7157 348.407 84.0622 348.714 83.2671 348.856V347.899C84.1174 347.718 84.8259 347.281 85.3927 346.588H86.2429V354.854H85.2274ZM87.4554 354.854L87.4436 353.922L90.5493 351.241C91.4704 350.446 91.9309 349.69 91.9309 348.974C91.9309 348.509 91.7853 348.139 91.494 347.864C91.2106 347.588 90.8288 347.45 90.3485 347.45C89.7739 347.45 89.333 347.639 89.026 348.017C88.7189 348.387 88.5969 348.879 88.6599 349.493L87.6207 349.423C87.5578 348.557 87.7782 347.852 88.282 347.309C88.7937 346.766 89.4826 346.494 90.3485 346.494C91.1594 346.494 91.8089 346.722 92.297 347.179C92.7929 347.628 93.0409 348.226 93.0409 348.974C93.0409 349.478 92.8953 349.97 92.604 350.45C92.3127 350.93 91.8482 351.438 91.2106 351.973L88.9669 353.886H93.0409V354.854H87.4554ZM96.9709 354.949C96.1758 354.949 95.5066 354.744 94.9634 354.335C94.4281 353.918 94.1053 353.363 93.9951 352.67L94.9988 352.493C95.0776 352.949 95.2901 353.311 95.6365 353.579C95.9908 353.847 96.4277 353.981 96.9473 353.981C97.4983 353.981 97.9353 353.811 98.258 353.473C98.5887 353.126 98.754 352.674 98.754 352.115C98.754 351.54 98.5808 351.088 98.2344 350.757C97.8959 350.426 97.4275 350.261 96.8292 350.261C96.0419 350.261 95.4318 350.592 94.9988 351.253L94.2195 351.088L94.8689 346.588H99.2736V347.545H95.6601L95.3059 350.025C95.5184 349.82 95.7782 349.655 96.0852 349.529C96.4001 349.403 96.7072 349.34 97.0063 349.34C97.8644 349.34 98.5533 349.596 99.0728 350.107C99.6003 350.611 99.864 351.28 99.864 352.115C99.864 352.973 99.6003 353.662 99.0728 354.181C98.5533 354.693 97.8526 354.949 96.9709 354.949ZM101.166 353.626H102.323V354.854H101.166V353.626ZM104.186 354.854V347.935C103.674 348.407 103.021 348.714 102.226 348.856V347.899C103.076 347.718 103.784 347.281 104.351 346.588H105.201V354.854H104.186ZM109.708 354.949C108.693 354.949 107.91 354.571 107.359 353.815C106.815 353.052 106.544 352.02 106.544 350.721C106.544 349.423 106.815 348.395 107.359 347.639C107.91 346.876 108.693 346.494 109.708 346.494C110.716 346.494 111.496 346.876 112.047 347.639C112.598 348.403 112.873 349.43 112.873 350.721C112.873 352.013 112.598 353.04 112.047 353.804C111.496 354.567 110.716 354.949 109.708 354.949ZM109.708 353.981C110.362 353.981 110.866 353.689 111.22 353.107C111.582 352.524 111.763 351.729 111.763 350.721C111.763 349.714 111.582 348.919 111.22 348.336C110.866 347.746 110.362 347.45 109.708 347.45C109.039 347.45 108.528 347.742 108.173 348.324C107.819 348.907 107.642 349.706 107.642 350.721C107.642 351.729 107.819 352.524 108.173 353.107C108.528 353.689 109.039 353.981 109.708 353.981ZM120.01 353.508C120.475 353.823 121.022 353.981 121.652 353.981C122.282 353.981 122.797 353.823 123.199 353.508C123.608 353.193 123.884 352.749 124.025 352.174L125.1 352.398C124.887 353.186 124.478 353.807 123.872 354.264C123.266 354.721 122.526 354.949 121.652 354.949C120.778 354.949 119.991 354.705 119.29 354.217C118.597 353.729 118.129 353.024 117.885 352.103H116.68V351.265H117.731C117.716 351.028 117.708 350.847 117.708 350.721C117.708 350.517 117.719 350.312 117.743 350.107H116.68V349.269H117.897C118.156 348.372 118.629 347.687 119.314 347.214C120.006 346.734 120.786 346.494 121.652 346.494C122.549 346.494 123.305 346.73 123.919 347.202C124.541 347.667 124.935 348.301 125.1 349.104L124.037 349.34C123.911 348.742 123.64 348.277 123.222 347.946C122.805 347.616 122.282 347.45 121.652 347.45C121.038 347.45 120.502 347.608 120.046 347.923C119.589 348.23 119.255 348.679 119.042 349.269H122.821L122.537 350.107H118.853C118.829 350.296 118.818 350.501 118.818 350.721C118.818 350.847 118.826 351.028 118.841 351.265H122.136L121.864 352.103H119.018C119.223 352.717 119.554 353.186 120.01 353.508ZM133.039 348.525L136.298 351.784L133.051 355.043L132.484 354.477L134.727 352.221H128.799V351.347H134.727L132.472 349.104L133.039 348.525ZM141.814 354.854V347.935C141.303 348.407 140.649 348.714 139.854 348.856V347.899C140.704 347.718 141.413 347.281 141.98 346.588H142.83V354.854H141.814ZM144.042 354.854L144.031 353.922L147.136 351.241C148.057 350.446 148.518 349.69 148.518 348.974C148.518 348.509 148.372 348.139 148.081 347.864C147.798 347.588 147.416 347.45 146.936 347.45C146.361 347.45 145.92 347.639 145.613 348.017C145.306 348.387 145.184 348.879 145.247 349.493L144.208 349.423C144.145 348.557 144.365 347.852 144.869 347.309C145.381 346.766 146.07 346.494 146.936 346.494C147.746 346.494 148.396 346.722 148.884 347.179C149.38 347.628 149.628 348.226 149.628 348.974C149.628 349.478 149.482 349.97 149.191 350.45C148.9 350.93 148.435 351.438 147.798 351.973L145.554 353.886H149.628V354.854H144.042ZM150.927 354.854C151.171 352.729 152.395 350.292 154.599 347.545H149.959V346.588H155.709V347.545C153.426 350.489 152.198 352.926 152.025 354.854H150.927ZM155.251 353.626H156.408V354.854H155.251V353.626ZM160.373 354.949C159.578 354.949 158.909 354.744 158.366 354.335C157.83 353.918 157.508 353.363 157.397 352.67L158.401 352.493C158.48 352.949 158.692 353.311 159.039 353.579C159.393 353.847 159.83 353.981 160.35 353.981C160.901 353.981 161.338 353.811 161.66 353.473C161.991 353.126 162.156 352.674 162.156 352.115C162.156 351.54 161.983 351.088 161.637 350.757C161.298 350.426 160.83 350.261 160.232 350.261C159.444 350.261 158.834 350.592 158.401 351.253L157.622 351.088L158.271 346.588H162.676V347.545H159.062L158.708 350.025C158.921 349.82 159.181 349.655 159.488 349.529C159.802 349.403 160.109 349.34 160.409 349.34C161.267 349.34 161.956 349.596 162.475 350.107C163.003 350.611 163.266 351.28 163.266 352.115C163.266 352.973 163.003 353.662 162.475 354.181C161.956 354.693 161.255 354.949 160.373 354.949ZM166.993 352.127C166.143 352.127 165.442 351.863 164.891 351.336C164.348 350.808 164.076 350.135 164.076 349.316C164.076 348.49 164.356 347.813 164.915 347.285C165.482 346.758 166.202 346.494 167.076 346.494C167.997 346.494 168.737 346.84 169.296 347.533C169.863 348.218 170.146 349.131 170.146 350.273C170.146 351.753 169.792 352.902 169.083 353.721C168.383 354.54 167.461 354.949 166.32 354.949C165.454 354.949 164.702 354.697 164.065 354.193L164.608 353.355C165.096 353.772 165.671 353.981 166.332 353.981C167.127 353.981 167.788 353.689 168.316 353.107C168.851 352.524 169.127 351.784 169.142 350.887C168.953 351.265 168.662 351.568 168.268 351.796C167.883 352.016 167.458 352.127 166.993 352.127ZM168.422 347.994C168.068 347.632 167.615 347.45 167.064 347.45C166.513 347.45 166.06 347.632 165.706 347.994C165.352 348.348 165.171 348.801 165.163 349.352C165.163 349.895 165.34 350.344 165.694 350.698C166.056 351.044 166.513 351.217 167.064 351.217C167.615 351.217 168.068 351.044 168.422 350.698C168.784 350.344 168.965 349.895 168.965 349.352C168.965 348.801 168.784 348.348 168.422 347.994ZM177.289 353.508C177.754 353.823 178.301 353.981 178.931 353.981C179.56 353.981 180.076 353.823 180.478 353.508C180.887 353.193 181.162 352.749 181.304 352.174L182.379 352.398C182.166 353.186 181.757 353.807 181.151 354.264C180.544 354.721 179.804 354.949 178.931 354.949C178.057 354.949 177.27 354.705 176.569 354.217C175.876 353.729 175.408 353.024 175.164 352.103H173.959V351.265H175.01C174.994 351.028 174.987 350.847 174.987 350.721C174.987 350.517 174.998 350.312 175.022 350.107H173.959V349.269H175.175C175.435 348.372 175.908 347.687 176.593 347.214C177.285 346.734 178.065 346.494 178.931 346.494C179.828 346.494 180.584 346.73 181.198 347.202C181.82 347.667 182.213 348.301 182.379 349.104L181.316 349.34C181.19 348.742 180.918 348.277 180.501 347.946C180.084 347.616 179.56 347.45 178.931 347.45C178.317 347.45 177.781 347.608 177.325 347.923C176.868 348.23 176.533 348.679 176.321 349.269H180.1L179.816 350.107H176.132C176.108 350.296 176.097 350.501 176.097 350.721C176.097 350.847 176.104 351.028 176.12 351.265H179.415L179.143 352.103H176.297C176.502 352.717 176.833 353.186 177.289 353.508Z" fill="#6B7280"/>
<path d="M116.795 305.731L116.067 303.795H112.687L111.959 305.731H110.539L113.732 297.516H115.011L118.215 305.731H116.795ZM113.133 302.61H115.621L114.377 299.324L113.133 302.61ZM120.091 305.731L117.932 299.817H119.235L120.702 304.241L122.169 299.817H123.483L121.324 305.731H120.091ZM129.605 302.551C129.605 302.762 129.597 302.938 129.581 303.079H125.063C125.118 303.588 125.298 303.991 125.603 304.288C125.916 304.585 126.307 304.734 126.777 304.734C127.168 304.734 127.492 304.648 127.751 304.476C128.009 304.296 128.177 304.045 128.255 303.725L129.464 304.03C129.308 304.601 128.991 305.043 128.513 305.356C128.036 305.669 127.449 305.825 126.753 305.825C125.853 305.825 125.137 305.528 124.605 304.933C124.073 304.331 123.807 303.611 123.807 302.774C123.807 301.929 124.062 301.209 124.57 300.615C125.087 300.02 125.795 299.723 126.694 299.723C127.602 299.723 128.314 300 128.83 300.556C129.347 301.111 129.605 301.776 129.605 302.551ZM125.122 302.105H128.244C128.204 301.69 128.048 301.358 127.774 301.108C127.508 300.857 127.148 300.732 126.694 300.732C126.288 300.732 125.947 300.853 125.673 301.096C125.4 301.331 125.216 301.667 125.122 302.105ZM134.468 301.061C134.256 300.967 134.002 300.92 133.705 300.92C133.235 300.92 132.844 301.139 132.531 301.577C132.226 302.007 132.074 302.657 132.074 303.525V305.731H130.794V299.817H132.074V300.943C132.23 300.591 132.48 300.302 132.825 300.075C133.169 299.84 133.521 299.723 133.881 299.723C134.139 299.723 134.358 299.758 134.538 299.828L134.468 301.061ZM137.517 299.723C138.284 299.723 138.898 299.93 139.36 300.345C139.821 300.752 140.052 301.319 140.052 302.046V305.731H138.797V304.828C138.624 305.125 138.37 305.368 138.034 305.555C137.697 305.735 137.333 305.825 136.942 305.825C136.356 305.825 135.878 305.661 135.511 305.332C135.143 305.004 134.959 304.585 134.959 304.077C134.959 302.95 135.867 302.293 137.682 302.105L138.797 301.988V301.906C138.797 301.546 138.679 301.26 138.444 301.049C138.218 300.838 137.909 300.732 137.517 300.732C137.157 300.732 136.86 300.834 136.625 301.037C136.391 301.233 136.254 301.507 136.215 301.859L135.065 301.647C135.158 301.068 135.432 300.603 135.886 300.251C136.34 299.899 136.884 299.723 137.517 299.723ZM137.2 304.84C137.693 304.84 138.081 304.687 138.362 304.382C138.644 304.077 138.789 303.678 138.797 303.185V302.938L137.67 303.067C136.7 303.177 136.215 303.502 136.215 304.041C136.215 304.276 136.305 304.468 136.485 304.617C136.665 304.765 136.903 304.84 137.2 304.84ZM145.757 299.817H147.025V305.403C147.025 306.162 146.759 306.776 146.227 307.245C145.703 307.723 145.014 307.961 144.161 307.961C143.465 307.961 142.87 307.793 142.378 307.457C141.885 307.12 141.591 306.682 141.497 306.142L142.694 305.943C142.726 306.232 142.878 306.467 143.152 306.647C143.434 306.827 143.77 306.917 144.161 306.917C144.639 306.917 145.026 306.788 145.323 306.529C145.62 306.271 145.769 305.939 145.769 305.532V304.816C145.62 305.043 145.386 305.227 145.065 305.368C144.744 305.501 144.392 305.567 144.009 305.567C143.148 305.567 142.471 305.301 141.978 304.769C141.486 304.229 141.239 303.521 141.239 302.645C141.239 301.769 141.482 301.065 141.967 300.533C142.46 299.993 143.133 299.723 143.985 299.723C144.353 299.723 144.697 299.793 145.018 299.934C145.339 300.075 145.585 300.263 145.757 300.497V299.817ZM142.976 303.959C143.281 304.288 143.684 304.452 144.185 304.452C144.686 304.452 145.085 304.288 145.382 303.959C145.687 303.631 145.84 303.193 145.84 302.645C145.84 302.097 145.687 301.659 145.382 301.331C145.085 301.002 144.686 300.838 144.185 300.838C143.684 300.838 143.281 301.002 142.976 301.331C142.671 301.659 142.518 302.097 142.518 302.645C142.518 303.193 142.671 303.631 142.976 303.959ZM154.005 302.551C154.005 302.762 153.997 302.938 153.981 303.079H149.463C149.518 303.588 149.698 303.991 150.003 304.288C150.316 304.585 150.707 304.734 151.176 304.734C151.568 304.734 151.892 304.648 152.15 304.476C152.409 304.296 152.577 304.045 152.655 303.725L153.864 304.03C153.707 304.601 153.391 305.043 152.913 305.356C152.436 305.669 151.849 305.825 151.153 305.825C150.253 305.825 149.537 305.528 149.005 304.933C148.473 304.331 148.207 303.611 148.207 302.774C148.207 301.929 148.462 301.209 148.97 300.615C149.486 300.02 150.195 299.723 151.094 299.723C152.002 299.723 152.714 300 153.23 300.556C153.747 301.111 154.005 301.776 154.005 302.551ZM149.522 302.105H152.643C152.604 301.69 152.448 301.358 152.174 301.108C151.908 300.857 151.548 300.732 151.094 300.732C150.687 300.732 150.347 300.853 150.073 301.096C149.799 301.331 149.616 301.667 149.522 302.105Z" fill="#374151"/>
<path fill-rule="evenodd" clip-rule="evenodd" d="M233.779 325.928C233.594 325.743 233.49 325.493 233.49 325.232C233.49 324.971 233.594 324.721 233.779 324.536L237.72 320.6C237.905 320.416 238.155 320.312 238.416 320.312C238.678 320.312 238.928 320.416 239.113 320.6L243.054 324.536C243.234 324.722 243.333 324.971 243.331 325.229C243.328 325.487 243.225 325.733 243.042 325.916C242.86 326.098 242.612 326.202 242.354 326.204C242.096 326.206 241.847 326.107 241.661 325.928L239.402 323.671V331.136C239.402 331.397 239.298 331.648 239.113 331.832C238.928 332.017 238.678 332.12 238.416 332.12C238.155 332.12 237.905 332.017 237.72 331.832C237.535 331.648 237.431 331.397 237.431 331.136V323.671L235.172 325.928C234.987 326.112 234.737 326.216 234.475 326.216C234.214 326.216 233.963 326.112 233.779 325.928Z" fill="#10B981"/>
<path d="M248.876 330.216V328.88L252.376 325.89C253.413 325.009 253.932 324.196 253.932 323.452C253.932 322.974 253.781 322.593 253.478 322.308C253.184 322.015 252.784 321.868 252.279 321.868C251.682 321.868 251.227 322.074 250.915 322.488C250.603 322.892 250.479 323.429 250.543 324.099L248.986 323.989C248.904 322.979 249.175 322.139 249.799 321.468C250.433 320.798 251.26 320.462 252.279 320.462C253.271 320.462 254.065 320.738 254.662 321.289C255.269 321.831 255.572 322.552 255.572 323.452C255.572 324.04 255.393 324.618 255.034 325.188C254.676 325.748 254.111 326.34 253.34 326.965L251.136 328.797H255.558V330.216H248.876ZM258.869 330.051C258.686 330.235 258.451 330.327 258.167 330.327C257.882 330.327 257.648 330.235 257.464 330.051C257.28 329.867 257.189 329.638 257.189 329.362C257.189 329.087 257.28 328.857 257.464 328.673C257.648 328.49 257.882 328.398 258.167 328.398C258.451 328.398 258.686 328.49 258.869 328.673C259.053 328.857 259.145 329.087 259.145 329.362C259.145 329.638 259.053 329.867 258.869 330.051ZM263.932 330.327C262.949 330.327 262.137 330.069 261.494 329.555C260.851 329.041 260.483 328.356 260.391 327.502L261.879 327.268C261.944 327.764 262.164 328.164 262.541 328.467C262.917 328.761 263.381 328.908 263.932 328.908C264.52 328.908 264.993 328.747 265.351 328.425C265.709 328.095 265.888 327.663 265.888 327.13C265.888 326.579 265.718 326.152 265.379 325.849C265.039 325.537 264.575 325.381 263.987 325.381C263.565 325.381 263.207 325.482 262.913 325.684L262.251 324.637L265.062 321.978H260.667V320.573H266.963V321.909L264.373 324.306C265.31 324.251 266.067 324.485 266.646 325.009C267.234 325.532 267.528 326.253 267.528 327.172C267.528 328.118 267.197 328.88 266.536 329.459C265.884 330.037 265.016 330.327 263.932 330.327ZM272.061 330.327C271.032 330.327 270.187 330.06 269.526 329.527C268.874 328.995 268.548 328.288 268.548 327.406C268.548 326.855 268.709 326.363 269.03 325.932C269.352 325.5 269.779 325.197 270.311 325.022C269.898 324.839 269.568 324.568 269.32 324.21C269.072 323.842 268.948 323.447 268.948 323.025C268.948 322.281 269.232 321.67 269.802 321.193C270.38 320.706 271.133 320.462 272.061 320.462C272.97 320.462 273.705 320.706 274.265 321.193C274.835 321.67 275.12 322.281 275.12 323.025C275.12 323.447 274.996 323.842 274.748 324.21C274.5 324.568 274.169 324.839 273.756 325.022C274.298 325.197 274.729 325.5 275.051 325.932C275.372 326.363 275.533 326.855 275.533 327.406C275.533 328.288 275.207 328.995 274.555 329.527C273.903 330.06 273.071 330.327 272.061 330.327ZM272.061 324.43C272.52 324.43 272.892 324.306 273.177 324.058C273.462 323.81 273.609 323.484 273.618 323.08C273.618 322.676 273.476 322.354 273.191 322.116C272.906 321.868 272.53 321.744 272.061 321.744C271.574 321.744 271.184 321.868 270.89 322.116C270.596 322.354 270.454 322.676 270.463 323.08C270.463 323.484 270.61 323.81 270.904 324.058C271.198 324.306 271.584 324.43 272.061 324.43ZM272.047 328.976C272.617 328.976 273.071 328.834 273.411 328.549C273.76 328.255 273.935 327.87 273.935 327.392C273.935 326.905 273.76 326.52 273.411 326.235C273.071 325.941 272.617 325.794 272.047 325.794C271.469 325.794 271.005 325.941 270.656 326.235C270.307 326.52 270.132 326.905 270.132 327.392C270.132 327.87 270.307 328.255 270.656 328.549C271.005 328.834 271.469 328.976 272.047 328.976ZM285.663 328.908C286.325 328.908 286.876 328.738 287.317 328.398C287.757 328.049 288.047 327.571 288.185 326.965L289.81 327.309C289.571 328.246 289.085 328.986 288.35 329.527C287.624 330.06 286.729 330.327 285.663 330.327C284.616 330.327 283.684 330.046 282.867 329.486C282.058 328.917 281.503 328.108 281.2 327.061H279.85V325.959H281.007C280.989 325.72 280.979 325.532 280.979 325.394C280.979 325.238 280.989 325.032 281.007 324.774H279.85V323.659H281.227C281.53 322.63 282.086 321.84 282.894 321.289C283.712 320.738 284.635 320.462 285.663 320.462C286.766 320.462 287.689 320.747 288.433 321.317C289.186 321.877 289.649 322.639 289.824 323.603L288.226 323.948C288.097 323.296 287.803 322.786 287.344 322.419C286.894 322.051 286.334 321.868 285.663 321.868C285.03 321.868 284.474 322.019 283.996 322.322C283.519 322.625 283.161 323.071 282.922 323.659H286.945L286.6 324.774H282.646C282.628 325.032 282.619 325.238 282.619 325.394C282.619 325.532 282.628 325.72 282.646 325.959H286.173L285.843 327.061H282.894C283.124 327.668 283.482 328.127 283.969 328.439C284.456 328.751 285.021 328.908 285.663 328.908Z" fill="#065F46"/>
<path d="M211.689 355.164V348.244C211.178 348.717 210.524 349.024 209.729 349.165V348.209C210.579 348.028 211.288 347.591 211.855 346.898H212.705V355.164H211.689ZM213.917 355.164L213.906 354.231L217.011 351.551C217.932 350.755 218.393 350 218.393 349.283C218.393 348.819 218.247 348.449 217.956 348.173C217.673 347.898 217.291 347.76 216.811 347.76C216.236 347.76 215.795 347.949 215.488 348.327C215.181 348.697 215.059 349.189 215.122 349.803L214.083 349.732C214.02 348.866 214.24 348.162 214.744 347.618C215.256 347.075 215.945 346.804 216.811 346.804C217.621 346.804 218.271 347.032 218.759 347.488C219.255 347.937 219.503 348.535 219.503 349.283C219.503 349.787 219.357 350.279 219.066 350.759C218.775 351.24 218.31 351.747 217.673 352.283L215.429 354.196H219.503V355.164H213.917ZM223.577 349.626C224.428 349.626 225.124 349.89 225.667 350.417C226.219 350.944 226.494 351.618 226.494 352.436C226.494 353.263 226.211 353.94 225.644 354.467C225.085 354.995 224.369 355.259 223.495 355.259C222.574 355.259 221.83 354.916 221.263 354.231C220.704 353.538 220.424 352.621 220.424 351.48C220.424 350 220.775 348.85 221.475 348.032C222.184 347.213 223.109 346.804 224.25 346.804C225.116 346.804 225.868 347.055 226.506 347.559L225.963 348.398C225.467 347.973 224.892 347.76 224.239 347.76C223.444 347.76 222.778 348.055 222.243 348.646C221.716 349.228 221.444 349.968 221.428 350.866C221.617 350.488 221.904 350.189 222.29 349.968C222.684 349.74 223.113 349.626 223.577 349.626ZM222.137 353.759C222.499 354.113 222.955 354.29 223.507 354.29C224.058 354.29 224.51 354.113 224.864 353.759C225.219 353.405 225.4 352.952 225.408 352.401C225.408 351.858 225.227 351.413 224.864 351.066C224.51 350.712 224.058 350.535 223.507 350.535C222.955 350.535 222.499 350.712 222.137 351.066C221.782 351.413 221.605 351.858 221.605 352.401C221.605 352.952 221.782 353.405 222.137 353.759ZM227.732 353.936H228.889V355.164H227.732V353.936ZM230.062 355.164L230.05 354.231L233.156 351.551C234.077 350.755 234.538 350 234.538 349.283C234.538 348.819 234.392 348.449 234.101 348.173C233.817 347.898 233.435 347.76 232.955 347.76C232.38 347.76 231.94 347.949 231.633 348.327C231.326 348.697 231.204 349.189 231.267 349.803L230.227 349.732C230.164 348.866 230.385 348.162 230.889 347.618C231.4 347.075 232.089 346.804 232.955 346.804C233.766 346.804 234.416 347.032 234.904 347.488C235.4 347.937 235.648 348.535 235.648 349.283C235.648 349.787 235.502 350.279 235.211 350.759C234.919 351.24 234.455 351.747 233.817 352.283L231.574 354.196H235.648V355.164H230.062ZM238.397 355.164V348.244C237.886 348.717 237.232 349.024 236.437 349.165V348.209C237.287 348.028 237.996 347.591 238.563 346.898H239.413V355.164H238.397ZM246.934 353.818C247.398 354.133 247.945 354.29 248.575 354.29C249.205 354.29 249.72 354.133 250.122 353.818C250.531 353.503 250.807 353.058 250.949 352.483L252.023 352.708C251.811 353.495 251.401 354.117 250.795 354.574C250.189 355.03 249.449 355.259 248.575 355.259C247.701 355.259 246.914 355.014 246.213 354.526C245.52 354.038 245.052 353.334 244.808 352.413H243.604V351.574H244.655C244.639 351.338 244.631 351.157 244.631 351.031C244.631 350.826 244.643 350.622 244.666 350.417H243.604V349.579H244.82C245.08 348.681 245.552 347.996 246.237 347.524C246.93 347.044 247.709 346.804 248.575 346.804C249.472 346.804 250.228 347.04 250.842 347.512C251.464 347.977 251.858 348.61 252.023 349.413L250.96 349.649C250.834 349.051 250.563 348.587 250.146 348.256C249.728 347.925 249.205 347.76 248.575 347.76C247.961 347.76 247.426 347.917 246.969 348.232C246.512 348.539 246.178 348.988 245.965 349.579H249.744L249.461 350.417H245.776C245.753 350.606 245.741 350.811 245.741 351.031C245.741 351.157 245.749 351.338 245.765 351.574H249.059L248.788 352.413H245.942C246.146 353.027 246.477 353.495 246.934 353.818ZM259.962 348.835L263.221 352.094L259.974 355.353L259.407 354.786L261.651 352.531H255.723V351.657H261.651L259.395 349.413L259.962 348.835ZM268.738 355.164V348.244C268.226 348.717 267.572 349.024 266.777 349.165V348.209C267.628 348.028 268.336 347.591 268.903 346.898H269.753V355.164H268.738ZM270.966 355.164L270.954 354.231L274.06 351.551C274.981 350.755 275.441 350 275.441 349.283C275.441 348.819 275.296 348.449 275.004 348.173C274.721 347.898 274.339 347.76 273.859 347.76C273.284 347.76 272.843 347.949 272.536 348.327C272.229 348.697 272.107 349.189 272.17 349.803L271.131 349.732C271.068 348.866 271.288 348.162 271.792 347.618C272.304 347.075 272.993 346.804 273.859 346.804C274.67 346.804 275.319 347.032 275.807 347.488C276.303 347.937 276.551 348.535 276.551 349.283C276.551 349.787 276.406 350.279 276.114 350.759C275.823 351.24 275.358 351.747 274.721 352.283L272.477 354.196H276.551V355.164H270.966ZM280.401 355.259C279.52 355.259 278.803 355.034 278.252 354.585C277.709 354.137 277.437 353.538 277.437 352.791C277.437 352.31 277.579 351.881 277.862 351.503C278.146 351.126 278.524 350.862 278.996 350.712C278.626 350.547 278.331 350.307 278.11 349.992C277.89 349.677 277.78 349.338 277.78 348.976C277.78 348.331 278.016 347.807 278.488 347.406C278.968 347.004 279.606 346.804 280.401 346.804C281.173 346.804 281.795 347.004 282.267 347.406C282.739 347.807 282.976 348.331 282.976 348.976C282.976 349.338 282.865 349.681 282.645 350.004C282.424 350.319 282.129 350.555 281.759 350.712C282.232 350.862 282.609 351.126 282.893 351.503C283.176 351.881 283.318 352.31 283.318 352.791C283.318 353.531 283.046 354.129 282.503 354.585C281.968 355.034 281.267 355.259 280.401 355.259ZM280.401 350.311C280.858 350.311 281.224 350.193 281.499 349.956C281.775 349.72 281.917 349.405 281.925 349.012C281.932 348.618 281.795 348.303 281.511 348.067C281.236 347.831 280.866 347.713 280.401 347.713C279.913 347.713 279.527 347.831 279.244 348.067C278.961 348.303 278.823 348.618 278.831 349.012C278.839 349.405 278.984 349.72 279.268 349.956C279.551 350.193 279.929 350.311 280.401 350.311ZM280.389 354.326C280.948 354.326 281.393 354.184 281.724 353.901C282.062 353.617 282.232 353.243 282.232 352.779C282.232 352.314 282.062 351.94 281.724 351.657C281.393 351.373 280.948 351.232 280.389 351.232C279.823 351.232 279.37 351.373 279.031 351.657C278.693 351.94 278.524 352.314 278.524 352.779C278.524 353.243 278.693 353.617 279.031 353.901C279.37 354.184 279.823 354.326 280.389 354.326ZM284.584 353.936H285.741V355.164H284.584V353.936ZM290.197 349.626C291.047 349.626 291.744 349.89 292.287 350.417C292.838 350.944 293.114 351.618 293.114 352.436C293.114 353.263 292.83 353.94 292.264 354.467C291.705 354.995 290.988 355.259 290.114 355.259C289.193 355.259 288.449 354.916 287.883 354.231C287.324 353.538 287.044 352.621 287.044 351.48C287.044 350 287.394 348.85 288.095 348.032C288.804 347.213 289.729 346.804 290.87 346.804C291.736 346.804 292.488 347.055 293.126 347.559L292.582 348.398C292.086 347.973 291.512 347.76 290.858 347.76C290.063 347.76 289.398 348.055 288.863 348.646C288.335 349.228 288.064 349.968 288.048 350.866C288.237 350.488 288.524 350.189 288.91 349.968C289.304 349.74 289.733 349.626 290.197 349.626ZM288.756 353.759C289.119 354.113 289.575 354.29 290.126 354.29C290.677 354.29 291.13 354.113 291.484 353.759C291.838 353.405 292.02 352.952 292.027 352.401C292.027 351.858 291.846 351.413 291.484 351.066C291.13 350.712 290.677 350.535 290.126 350.535C289.575 350.535 289.119 350.712 288.756 351.066C288.402 351.413 288.225 351.858 288.225 352.401C288.225 352.952 288.402 353.405 288.756 353.759ZM295.642 355.164V348.244C295.13 348.717 294.476 349.024 293.681 349.165V348.209C294.532 348.028 295.24 347.591 295.807 346.898H296.657V355.164H295.642ZM304.178 353.818C304.642 354.133 305.189 354.29 305.819 354.29C306.449 354.29 306.965 354.133 307.366 353.818C307.776 353.503 308.051 353.058 308.193 352.483L309.267 352.708C309.055 353.495 308.645 354.117 308.039 354.574C307.433 355.03 306.693 355.259 305.819 355.259C304.945 355.259 304.158 355.014 303.458 354.526C302.765 354.038 302.296 353.334 302.052 352.413H300.848V351.574H301.899C301.883 351.338 301.875 351.157 301.875 351.031C301.875 350.826 301.887 350.622 301.911 350.417H300.848V349.579H302.064C302.324 348.681 302.796 347.996 303.481 347.524C304.174 347.044 304.953 346.804 305.819 346.804C306.717 346.804 307.473 347.04 308.087 347.512C308.708 347.977 309.102 348.61 309.267 349.413L308.205 349.649C308.079 349.051 307.807 348.587 307.39 348.256C306.973 347.925 306.449 347.76 305.819 347.76C305.205 347.76 304.67 347.917 304.213 348.232C303.757 348.539 303.422 348.988 303.21 349.579H306.988L306.705 350.417H303.021C302.997 350.606 302.985 350.811 302.985 351.031C302.985 351.157 302.993 351.338 303.009 351.574H306.303L306.032 352.413H303.186C303.391 353.027 303.721 353.495 304.178 353.818Z" fill="#6B7280"/>
<path d="M233.421 306.041V297.826H236.543C237.318 297.826 237.936 298.014 238.397 298.389C238.867 298.757 239.101 299.273 239.101 299.938C239.101 300.298 239 300.627 238.796 300.924C238.593 301.214 238.35 301.421 238.069 301.546C238.499 301.703 238.843 301.957 239.101 302.309C239.36 302.653 239.489 303.091 239.489 303.623C239.489 304.375 239.234 304.965 238.726 305.396C238.225 305.826 237.544 306.041 236.684 306.041H233.421ZM234.794 301.1H236.461C237.345 301.1 237.787 300.744 237.787 300.032C237.787 299.313 237.341 298.953 236.449 298.953H234.794V301.1ZM234.794 304.832H236.52C237.607 304.832 238.151 304.41 238.151 303.565C238.151 302.712 237.607 302.286 236.52 302.286H234.794V304.832ZM246.155 302.861C246.155 303.072 246.147 303.248 246.132 303.389H241.613C241.668 303.897 241.848 304.3 242.153 304.598C242.466 304.895 242.857 305.043 243.327 305.043C243.718 305.043 244.043 304.957 244.301 304.785C244.559 304.605 244.727 304.355 244.806 304.034L246.014 304.339C245.858 304.91 245.541 305.353 245.064 305.665C244.586 305.978 244 306.135 243.303 306.135C242.404 306.135 241.688 305.838 241.156 305.243C240.624 304.641 240.358 303.921 240.358 303.084C240.358 302.239 240.612 301.519 241.121 300.924C241.637 300.33 242.345 300.032 243.245 300.032C244.152 300.032 244.864 300.31 245.381 300.866C245.897 301.421 246.155 302.086 246.155 302.861ZM241.672 302.415H244.794C244.755 302 244.598 301.667 244.324 301.417C244.058 301.167 243.698 301.042 243.245 301.042C242.838 301.042 242.497 301.163 242.224 301.405C241.95 301.64 241.766 301.977 241.672 302.415ZM247.345 306.041V297.732H248.624V301.147C249.039 300.404 249.684 300.032 250.56 300.032C251.233 300.032 251.769 300.228 252.168 300.619C252.575 301.002 252.778 301.515 252.778 302.156V306.041H251.499V302.45C251.499 302.059 251.382 301.75 251.147 301.523C250.92 301.296 250.607 301.182 250.208 301.182C249.715 301.182 249.328 301.386 249.046 301.793C248.765 302.2 248.624 302.763 248.624 303.483V306.041H247.345ZM256.532 300.032C257.298 300.032 257.913 300.24 258.374 300.654C258.836 301.061 259.067 301.628 259.067 302.356V306.041H257.811V305.137C257.639 305.435 257.384 305.677 257.048 305.865C256.712 306.045 256.348 306.135 255.957 306.135C255.37 306.135 254.893 305.971 254.525 305.642C254.157 305.313 253.973 304.895 253.973 304.386C253.973 303.26 254.881 302.602 256.696 302.415L257.811 302.297V302.215C257.811 301.855 257.694 301.57 257.459 301.358C257.232 301.147 256.923 301.042 256.532 301.042C256.172 301.042 255.874 301.143 255.64 301.347C255.405 301.542 255.268 301.816 255.229 302.168L254.079 301.957C254.173 301.378 254.447 300.912 254.9 300.56C255.354 300.208 255.898 300.032 256.532 300.032ZM256.215 305.149C256.708 305.149 257.095 304.997 257.377 304.691C257.658 304.386 257.803 303.987 257.811 303.494V303.248L256.684 303.377C255.714 303.487 255.229 303.811 255.229 304.351C255.229 304.586 255.319 304.777 255.499 304.926C255.679 305.075 255.917 305.149 256.215 305.149ZM261.867 306.041L259.707 300.126H261.01L262.477 304.551L263.944 300.126H265.258L263.099 306.041H261.867ZM266.763 299.14C266.528 299.14 266.332 299.062 266.176 298.906C266.019 298.741 265.941 298.546 265.941 298.319C265.941 298.084 266.019 297.889 266.176 297.732C266.332 297.568 266.528 297.486 266.763 297.486C267.005 297.486 267.205 297.568 267.361 297.732C267.525 297.889 267.607 298.084 267.607 298.319C267.607 298.546 267.525 298.741 267.361 298.906C267.205 299.062 267.005 299.14 266.763 299.14ZM266.129 306.041V300.126H267.408V306.041H266.129ZM271.66 306.135C270.768 306.135 270.036 305.849 269.465 305.278C268.894 304.699 268.608 303.968 268.608 303.084C268.608 302.2 268.894 301.472 269.465 300.901C270.036 300.322 270.768 300.032 271.66 300.032C272.544 300.032 273.271 300.322 273.842 300.901C274.421 301.472 274.711 302.2 274.711 303.084C274.711 303.968 274.421 304.699 273.842 305.278C273.271 305.849 272.544 306.135 271.66 306.135ZM270.38 304.48C270.709 304.84 271.135 305.02 271.66 305.02C272.184 305.02 272.606 304.84 272.927 304.48C273.256 304.12 273.42 303.655 273.42 303.084C273.42 302.512 273.256 302.047 272.927 301.687C272.606 301.327 272.184 301.147 271.66 301.147C271.135 301.147 270.709 301.327 270.38 301.687C270.06 302.047 269.899 302.512 269.899 303.084C269.899 303.655 270.06 304.12 270.38 304.48ZM281.257 300.126V306.041H279.977V305.055C279.774 305.384 279.504 305.646 279.168 305.842C278.831 306.037 278.456 306.135 278.041 306.135C277.399 306.135 276.879 305.943 276.48 305.56C276.089 305.169 275.893 304.656 275.893 304.022V300.126H277.172V303.729C277.172 304.105 277.282 304.41 277.501 304.644C277.72 304.871 278.017 304.985 278.393 304.985C278.886 304.985 279.273 304.785 279.555 304.386C279.837 303.987 279.977 303.432 279.977 302.72V300.126H281.257ZM286.443 301.37C286.232 301.276 285.977 301.229 285.68 301.229C285.211 301.229 284.82 301.448 284.507 301.887C284.201 302.317 284.049 302.966 284.049 303.835V306.041H282.77V300.126H284.049V301.253C284.205 300.901 284.456 300.611 284.8 300.384C285.144 300.15 285.496 300.032 285.856 300.032C286.114 300.032 286.333 300.068 286.513 300.138L286.443 301.37Z" fill="#374151"/>
<path fill-rule="evenodd" clip-rule="evenodd" d="M380.036 325.928C379.851 325.743 379.747 325.493 379.747 325.232C379.747 324.971 379.851 324.721 380.036 324.536L383.977 320.6C384.161 320.416 384.412 320.312 384.673 320.312C384.935 320.312 385.185 320.416 385.37 320.6L389.311 324.536C389.491 324.722 389.59 324.971 389.588 325.229C389.585 325.487 389.482 325.733 389.299 325.916C389.116 326.098 388.869 326.202 388.611 326.204C388.353 326.206 388.104 326.107 387.918 325.928L385.659 323.671V331.136C385.659 331.397 385.555 331.648 385.37 331.832C385.185 332.017 384.935 332.12 384.673 332.12C384.412 332.12 384.161 332.017 383.977 331.832C383.792 331.648 383.688 331.397 383.688 331.136V323.671L381.429 325.928C381.244 326.112 380.993 326.216 380.732 326.216C380.471 326.216 380.22 326.112 380.036 325.928Z" fill="#111827"/>
<path d="M399.122 330.327C397.919 330.327 396.982 329.881 396.312 328.99C395.641 328.099 395.306 326.901 395.306 325.394C395.306 323.888 395.641 322.69 396.312 321.799C396.982 320.908 397.919 320.462 399.122 320.462C400.316 320.462 401.249 320.908 401.919 321.799C402.599 322.69 402.939 323.888 402.939 325.394C402.939 326.901 402.599 328.099 401.919 328.99C401.249 329.881 400.316 330.327 399.122 330.327ZM399.122 328.908C399.82 328.908 400.358 328.6 400.734 327.984C401.12 327.36 401.313 326.497 401.313 325.394C401.313 324.292 401.12 323.429 400.734 322.804C400.358 322.18 399.82 321.868 399.122 321.868C398.415 321.868 397.873 322.18 397.497 322.804C397.12 323.429 396.932 324.292 396.932 325.394C396.932 326.497 397.12 327.36 397.497 327.984C397.873 328.6 398.415 328.908 399.122 328.908ZM406.023 330.051C405.839 330.235 405.605 330.327 405.32 330.327C405.036 330.327 404.801 330.235 404.618 330.051C404.434 329.867 404.342 329.638 404.342 329.362C404.342 329.087 404.434 328.857 404.618 328.673C404.801 328.49 405.036 328.398 405.32 328.398C405.605 328.398 405.839 328.49 406.023 328.673C406.207 328.857 406.298 329.087 406.298 329.362C406.298 329.638 406.207 329.867 406.023 330.051ZM411.54 330.327C410.337 330.327 409.4 329.881 408.73 328.99C408.059 328.099 407.724 326.901 407.724 325.394C407.724 323.888 408.059 322.69 408.73 321.799C409.4 320.908 410.337 320.462 411.54 320.462C412.734 320.462 413.667 320.908 414.337 321.799C415.017 322.69 415.356 323.888 415.356 325.394C415.356 326.901 415.017 328.099 414.337 328.99C413.667 329.881 412.734 330.327 411.54 330.327ZM411.54 328.908C412.238 328.908 412.776 328.6 413.152 327.984C413.538 327.36 413.731 326.497 413.731 325.394C413.731 324.292 413.538 323.429 413.152 322.804C412.776 322.18 412.238 321.868 411.54 321.868C410.833 321.868 410.291 322.18 409.915 322.804C409.538 323.429 409.35 324.292 409.35 325.394C409.35 326.497 409.538 327.36 409.915 327.984C410.291 328.6 410.833 328.908 411.54 328.908ZM419.915 327.061C418.923 327.061 418.106 326.754 417.463 326.138C416.829 325.514 416.512 324.724 416.512 323.769C416.512 322.804 416.847 322.015 417.518 321.399C418.197 320.775 419.061 320.462 420.108 320.462C421.201 320.462 422.083 320.876 422.753 321.702C423.423 322.52 423.759 323.594 423.759 324.926C423.759 326.644 423.332 327.975 422.477 328.921C421.632 329.858 420.553 330.327 419.24 330.327C418.175 330.327 417.261 330.014 416.498 329.39L417.27 328.191C417.821 328.669 418.473 328.908 419.226 328.908C420.08 328.908 420.788 328.618 421.348 328.04C421.908 327.452 422.211 326.699 422.257 325.78C422.027 326.175 421.701 326.487 421.279 326.717C420.866 326.947 420.411 327.061 419.915 327.061ZM421.486 322.432C421.118 322.056 420.65 321.868 420.08 321.868C419.511 321.868 419.042 322.056 418.675 322.432C418.308 322.8 418.124 323.268 418.124 323.838C418.115 324.398 418.294 324.862 418.661 325.229C419.038 325.587 419.511 325.766 420.08 325.766C420.65 325.766 421.118 325.587 421.486 325.229C421.862 324.862 422.05 324.398 422.05 323.838C422.05 323.268 421.862 322.8 421.486 322.432ZM433.92 328.908C434.582 328.908 435.133 328.738 435.573 328.398C436.014 328.049 436.304 327.571 436.441 326.965L438.067 327.309C437.828 328.246 437.341 328.986 436.607 329.527C435.881 330.06 434.986 330.327 433.92 330.327C432.873 330.327 431.941 330.046 431.124 329.486C430.315 328.917 429.76 328.108 429.457 327.061H428.106V325.959H429.264C429.245 325.72 429.236 325.532 429.236 325.394C429.236 325.238 429.245 325.032 429.264 324.774H428.106V323.659H429.484C429.787 322.63 430.343 321.84 431.151 321.289C431.969 320.738 432.892 320.462 433.92 320.462C435.022 320.462 435.945 320.747 436.689 321.317C437.443 321.877 437.906 322.639 438.081 323.603L436.483 323.948C436.354 323.296 436.06 322.786 435.601 322.419C435.151 322.051 434.591 321.868 433.92 321.868C433.287 321.868 432.731 322.019 432.253 322.322C431.776 322.625 431.417 323.071 431.179 323.659H435.201L434.857 324.774H430.903C430.885 325.032 430.876 325.238 430.876 325.394C430.876 325.532 430.885 325.72 430.903 325.959H434.43L434.099 327.061H431.151C431.381 327.668 431.739 328.127 432.226 328.439C432.712 328.751 433.277 328.908 433.92 328.908Z" fill="#065F46"/>
<path d="M343.12 355.259C342.325 355.259 341.655 355.054 341.112 354.644C340.577 354.227 340.254 353.672 340.144 352.979L341.148 352.802C341.226 353.259 341.439 353.621 341.785 353.889C342.14 354.156 342.577 354.29 343.096 354.29C343.647 354.29 344.084 354.121 344.407 353.782C344.738 353.436 344.903 352.983 344.903 352.424C344.903 351.85 344.73 351.397 344.383 351.066C344.045 350.736 343.576 350.57 342.978 350.57C342.191 350.57 341.581 350.901 341.148 351.562L340.368 351.397L341.018 346.898H345.422V347.855H341.809L341.455 350.334C341.667 350.13 341.927 349.964 342.234 349.838C342.549 349.712 342.856 349.649 343.155 349.649C344.013 349.649 344.702 349.905 345.222 350.417C345.749 350.921 346.013 351.59 346.013 352.424C346.013 353.283 345.749 353.971 345.222 354.491C344.702 355.003 344.001 355.259 343.12 355.259ZM347.315 353.936H348.472V355.164H347.315V353.936ZM350.335 355.164V348.244C349.823 348.717 349.17 349.024 348.374 349.165V348.209C349.225 348.028 349.933 347.591 350.5 346.898H351.35V355.164H350.335ZM352.563 355.164L352.551 354.231L355.657 351.551C356.578 350.755 357.038 350 357.038 349.283C357.038 348.819 356.893 348.449 356.601 348.173C356.318 347.898 355.936 347.76 355.456 347.76C354.881 347.76 354.44 347.949 354.133 348.327C353.826 348.697 353.704 349.189 353.767 349.803L352.728 349.732C352.665 348.866 352.885 348.162 353.389 347.618C353.901 347.075 354.59 346.804 355.456 346.804C356.267 346.804 356.916 347.032 357.404 347.488C357.9 347.937 358.148 348.535 358.148 349.283C358.148 349.787 358.003 350.279 357.711 350.759C357.42 351.24 356.956 351.747 356.318 352.283L354.074 354.196H358.148V355.164H352.563ZM361.143 350.96C360.576 350.96 360.111 350.763 359.749 350.37C359.387 349.976 359.206 349.48 359.206 348.882C359.206 348.284 359.387 347.788 359.749 347.394C360.111 347 360.576 346.804 361.143 346.804C361.701 346.804 362.162 347 362.524 347.394C362.886 347.788 363.067 348.284 363.067 348.882C363.067 349.48 362.886 349.976 362.524 350.37C362.162 350.763 361.701 350.96 361.143 350.96ZM360.41 355.164L365.937 346.898H366.822L361.296 355.164H360.41ZM361.143 350.204C361.465 350.204 361.721 350.086 361.91 349.85C362.107 349.606 362.205 349.283 362.205 348.882C362.205 348.48 362.107 348.162 361.91 347.925C361.721 347.681 361.465 347.559 361.143 347.559C360.812 347.559 360.548 347.681 360.351 347.925C360.155 348.162 360.056 348.48 360.056 348.882C360.056 349.283 360.155 349.606 360.351 349.85C360.548 350.086 360.812 350.204 361.143 350.204ZM366.138 355.259C365.571 355.259 365.106 355.062 364.744 354.668C364.382 354.274 364.201 353.779 364.201 353.18C364.201 352.582 364.382 352.086 364.744 351.692C365.106 351.299 365.571 351.102 366.138 351.102C366.697 351.102 367.157 351.299 367.519 351.692C367.881 352.086 368.062 352.582 368.062 353.18C368.062 353.779 367.881 354.274 367.519 354.668C367.157 355.062 366.697 355.259 366.138 355.259ZM366.138 354.503C366.46 354.503 366.716 354.385 366.905 354.149C367.102 353.904 367.2 353.582 367.2 353.18C367.2 352.779 367.102 352.46 366.905 352.224C366.716 351.98 366.46 351.858 366.138 351.858C365.807 351.858 365.543 351.98 365.346 352.224C365.15 352.46 365.051 352.779 365.051 353.18C365.051 353.582 365.15 353.904 365.346 354.149C365.543 354.385 365.807 354.503 366.138 354.503ZM378.83 348.835L382.089 352.094L378.842 355.353L378.275 354.786L380.519 352.531H374.591V351.657H380.519L378.263 349.413L378.83 348.835ZM388.763 355.259C387.968 355.259 387.299 355.054 386.755 354.644C386.22 354.227 385.897 353.672 385.787 352.979L386.791 352.802C386.87 353.259 387.082 353.621 387.429 353.889C387.783 354.156 388.22 354.29 388.739 354.29C389.29 354.29 389.727 354.121 390.05 353.782C390.381 353.436 390.546 352.983 390.546 352.424C390.546 351.85 390.373 351.397 390.026 351.066C389.688 350.736 389.22 350.57 388.621 350.57C387.834 350.57 387.224 350.901 386.791 351.562L386.012 351.397L386.661 346.898H391.066V347.855H387.452L387.098 350.334C387.31 350.13 387.57 349.964 387.877 349.838C388.192 349.712 388.499 349.649 388.798 349.649C389.656 349.649 390.345 349.905 390.865 350.417C391.392 350.921 391.656 351.59 391.656 352.424C391.656 353.283 391.392 353.971 390.865 354.491C390.345 355.003 389.645 355.259 388.763 355.259ZM392.958 353.936H394.115V355.164H392.958V353.936ZM395.978 355.164V348.244C395.466 348.717 394.813 349.024 394.018 349.165V348.209C394.868 348.028 395.576 347.591 396.143 346.898H396.993V355.164H395.978ZM401.099 355.259C400.288 355.259 399.611 355.042 399.068 354.609C398.533 354.176 398.226 353.597 398.147 352.873L399.162 352.72C399.218 353.2 399.422 353.582 399.776 353.865C400.131 354.149 400.572 354.29 401.099 354.29C401.674 354.29 402.13 354.133 402.469 353.818C402.815 353.503 402.988 353.086 402.988 352.566C402.988 352.031 402.827 351.614 402.504 351.314C402.181 351.015 401.733 350.866 401.158 350.866C400.827 350.866 400.524 350.952 400.249 351.126L399.788 350.441L402.398 347.855H398.383V346.898H403.662V347.831L401.312 350.122C402.13 350.043 402.799 350.232 403.319 350.689C403.839 351.145 404.098 351.779 404.098 352.59C404.098 353.393 403.823 354.038 403.272 354.526C402.729 355.014 402.004 355.259 401.099 355.259ZM406.924 350.96C406.357 350.96 405.893 350.763 405.531 350.37C405.169 349.976 404.988 349.48 404.988 348.882C404.988 348.284 405.169 347.788 405.531 347.394C405.893 347 406.357 346.804 406.924 346.804C407.483 346.804 407.944 347 408.306 347.394C408.668 347.788 408.849 348.284 408.849 348.882C408.849 349.48 408.668 349.976 408.306 350.37C407.944 350.763 407.483 350.96 406.924 350.96ZM406.192 355.164L411.718 346.898H412.604L407.078 355.164H406.192ZM406.924 350.204C407.247 350.204 407.503 350.086 407.692 349.85C407.888 349.606 407.987 349.283 407.987 348.882C407.987 348.48 407.888 348.162 407.692 347.925C407.503 347.681 407.247 347.559 406.924 347.559C406.593 347.559 406.33 347.681 406.133 347.925C405.936 348.162 405.838 348.48 405.838 348.882C405.838 349.283 405.936 349.606 406.133 349.85C406.33 350.086 406.593 350.204 406.924 350.204ZM411.919 355.259C411.352 355.259 410.888 355.062 410.526 354.668C410.164 354.274 409.983 353.779 409.983 353.18C409.983 352.582 410.164 352.086 410.526 351.692C410.888 351.299 411.352 351.102 411.919 351.102C412.478 351.102 412.939 351.299 413.301 351.692C413.663 352.086 413.844 352.582 413.844 353.18C413.844 353.779 413.663 354.274 413.301 354.668C412.939 355.062 412.478 355.259 411.919 355.259ZM411.919 354.503C412.242 354.503 412.498 354.385 412.687 354.149C412.884 353.904 412.982 353.582 412.982 353.18C412.982 352.779 412.884 352.46 412.687 352.224C412.498 351.98 412.242 351.858 411.919 351.858C411.589 351.858 411.325 351.98 411.128 352.224C410.931 352.46 410.833 352.779 410.833 353.18C410.833 353.582 410.931 353.904 411.128 354.149C411.325 354.385 411.589 354.503 411.919 354.503ZM422.743 354.396C422.177 354.971 421.452 355.259 420.571 355.259C419.689 355.259 418.965 354.971 418.398 354.396C417.831 353.814 417.548 353.078 417.548 352.188C417.548 351.299 417.831 350.567 418.398 349.992C418.965 349.409 419.689 349.118 420.571 349.118C421.452 349.118 422.177 349.409 422.743 349.992C423.318 350.567 423.606 351.299 423.606 352.188C423.606 353.078 423.318 353.814 422.743 354.396ZM419.13 353.759C419.5 354.16 419.98 354.361 420.571 354.361C421.161 354.361 421.641 354.16 422.011 353.759C422.381 353.349 422.566 352.826 422.566 352.188C422.566 351.551 422.381 351.031 422.011 350.63C421.641 350.22 421.161 350.015 420.571 350.015C419.98 350.015 419.5 350.22 419.13 350.63C418.76 351.031 418.575 351.551 418.575 352.188C418.575 352.826 418.76 353.349 419.13 353.759ZM425.319 355.164V350.098H424.303V349.212H425.319V348.657C425.319 348.02 425.48 347.528 425.803 347.181C426.126 346.827 426.551 346.65 427.078 346.65C427.393 346.65 427.661 346.682 427.881 346.744L427.834 347.642C427.63 347.563 427.421 347.524 427.208 347.524C426.941 347.524 426.724 347.622 426.559 347.819C426.401 348.008 426.323 348.26 426.323 348.575V349.212H427.846V350.098H426.323V355.164H425.319ZM433.897 355.259C433.236 355.259 432.693 355.089 432.267 354.751C431.85 354.412 431.567 354.003 431.417 353.523L432.279 353.145C432.547 353.987 433.086 354.408 433.897 354.408C434.251 354.408 434.539 354.322 434.759 354.149C434.987 353.967 435.102 353.751 435.102 353.499C435.102 353.224 434.983 353.007 434.747 352.85C434.511 352.692 434.224 352.574 433.885 352.495C433.555 352.417 433.22 352.33 432.881 352.236C432.551 352.133 432.267 351.956 432.031 351.704C431.795 351.452 431.677 351.118 431.677 350.7C431.677 350.228 431.866 349.846 432.244 349.555C432.622 349.264 433.129 349.118 433.767 349.118C434.295 349.118 434.763 349.256 435.172 349.531C435.582 349.799 435.849 350.149 435.975 350.582L435.137 350.948C435.058 350.649 434.885 350.409 434.617 350.228C434.358 350.039 434.066 349.945 433.744 349.945C433.405 349.945 433.137 350.012 432.941 350.145C432.744 350.271 432.645 350.452 432.645 350.689C432.645 350.885 432.728 351.047 432.893 351.173C433.066 351.299 433.279 351.389 433.531 351.444C433.791 351.492 434.07 351.562 434.369 351.657C434.669 351.743 434.944 351.842 435.196 351.952C435.448 352.062 435.657 352.251 435.822 352.519C435.995 352.779 436.082 353.101 436.082 353.487C436.082 354.007 435.881 354.432 435.479 354.763C435.078 355.093 434.55 355.259 433.897 355.259ZM439.576 349.118C440.308 349.118 440.899 349.319 441.347 349.72C441.796 350.122 442.02 350.665 442.02 351.35V355.164H441.028V354.149C440.855 354.487 440.588 354.759 440.225 354.963C439.871 355.16 439.478 355.259 439.045 355.259C438.454 355.259 437.97 355.097 437.592 354.774C437.222 354.444 437.037 354.019 437.037 353.499C437.037 352.381 437.982 351.728 439.871 351.539L441.028 351.409V351.291C441.028 350.881 440.895 350.559 440.627 350.323C440.367 350.078 440.017 349.956 439.576 349.956C439.167 349.956 438.828 350.071 438.56 350.299C438.293 350.527 438.139 350.842 438.1 351.244L437.167 351.066C437.254 350.476 437.517 350.004 437.958 349.649C438.407 349.295 438.946 349.118 439.576 349.118ZM439.198 354.432C439.773 354.432 440.222 354.255 440.544 353.901C440.867 353.546 441.028 353.07 441.028 352.472V352.188L439.871 352.318C438.651 352.452 438.041 352.842 438.041 353.487C438.041 353.763 438.147 353.991 438.36 354.172C438.58 354.345 438.86 354.432 439.198 354.432ZM443.652 355.164V349.212H444.656V350.334C444.995 349.523 445.593 349.118 446.451 349.118C446.939 349.118 447.356 349.228 447.703 349.449C448.057 349.669 448.285 349.976 448.388 350.37C448.553 350 448.805 349.701 449.143 349.472C449.49 349.236 449.879 349.118 450.312 349.118C450.95 349.118 451.454 349.303 451.824 349.673C452.202 350.043 452.391 350.543 452.391 351.173V355.164H451.387V351.373C451.387 350.956 451.273 350.626 451.045 350.382C450.816 350.13 450.497 350.004 450.088 350.004C449.592 350.004 449.206 350.204 448.931 350.606C448.655 351.007 448.518 351.531 448.518 352.176V355.164H447.514V351.373C447.514 350.956 447.4 350.626 447.171 350.382C446.951 350.13 446.636 350.004 446.227 350.004C445.731 350.004 445.345 350.204 445.069 350.606C444.794 351.007 444.656 351.531 444.656 352.176V355.164H443.652ZM454.02 357.313V349.212H455.023V350.075C455.189 349.799 455.448 349.571 455.803 349.39C456.165 349.209 456.558 349.118 456.983 349.118C457.873 349.118 458.57 349.405 459.074 349.98C459.577 350.547 459.829 351.283 459.829 352.188C459.829 353.086 459.574 353.822 459.062 354.396C458.55 354.971 457.849 355.259 456.96 355.259C456.582 355.259 456.216 355.176 455.862 355.011C455.507 354.837 455.228 354.613 455.023 354.337V357.313H454.02ZM456.865 354.361C457.456 354.361 457.928 354.164 458.282 353.771C458.637 353.369 458.814 352.842 458.814 352.188C458.814 351.535 458.637 351.011 458.282 350.618C457.928 350.216 457.456 350.015 456.865 350.015C456.283 350.015 455.814 350.216 455.46 350.618C455.114 351.011 454.941 351.535 454.941 352.188C454.941 352.842 455.114 353.369 455.46 353.771C455.814 354.164 456.283 354.361 456.865 354.361ZM461.112 355.164V346.804H462.115V355.164H461.112ZM469.126 351.917C469.126 352.082 469.118 352.236 469.102 352.377H464.402C464.434 352.976 464.623 353.46 464.969 353.83C465.323 354.192 465.768 354.373 466.303 354.373C466.76 354.373 467.138 354.271 467.437 354.066C467.736 353.861 467.929 353.574 468.016 353.204L468.96 353.428C468.811 354.003 468.5 354.452 468.027 354.774C467.563 355.097 466.988 355.259 466.303 355.259C465.43 355.259 464.725 354.963 464.19 354.373C463.662 353.782 463.398 353.054 463.398 352.188C463.398 351.314 463.658 350.586 464.178 350.004C464.705 349.413 465.406 349.118 466.28 349.118C467.138 349.118 467.827 349.39 468.346 349.933C468.866 350.468 469.126 351.129 469.126 351.917ZM464.461 351.539H468.063C468.016 351.066 467.835 350.685 467.52 350.393C467.205 350.102 466.791 349.956 466.28 349.956C465.815 349.956 465.422 350.098 465.099 350.382C464.776 350.657 464.564 351.043 464.461 351.539ZM472.356 355.259C471.695 355.259 471.151 355.089 470.726 354.751C470.309 354.412 470.026 354.003 469.876 353.523L470.738 353.145C471.006 353.987 471.545 354.408 472.356 354.408C472.71 354.408 472.997 354.322 473.218 354.149C473.446 353.967 473.56 353.751 473.56 353.499C473.56 353.224 473.442 353.007 473.206 352.85C472.97 352.692 472.683 352.574 472.344 352.495C472.013 352.417 471.679 352.33 471.34 352.236C471.01 352.133 470.726 351.956 470.49 351.704C470.254 351.452 470.136 351.118 470.136 350.7C470.136 350.228 470.325 349.846 470.703 349.555C471.081 349.264 471.588 349.118 472.226 349.118C472.753 349.118 473.222 349.256 473.631 349.531C474.041 349.799 474.308 350.149 474.434 350.582L473.596 350.948C473.517 350.649 473.344 350.409 473.076 350.228C472.816 350.039 472.525 349.945 472.202 349.945C471.864 349.945 471.596 350.012 471.399 350.145C471.203 350.271 471.104 350.452 471.104 350.689C471.104 350.885 471.187 351.047 471.352 351.173C471.525 351.299 471.738 351.389 471.99 351.444C472.25 351.492 472.529 351.562 472.828 351.657C473.127 351.743 473.403 351.842 473.655 351.952C473.907 352.062 474.115 352.251 474.281 352.519C474.454 352.779 474.54 353.101 474.54 353.487C474.54 354.007 474.34 354.432 473.938 354.763C473.537 355.093 473.009 355.259 472.356 355.259Z" fill="#6B7280"/>
<path d="M399.939 306.135C399.141 306.135 398.444 305.896 397.85 305.419C397.263 304.942 396.911 304.328 396.794 303.577L398.049 303.189C398.12 303.713 398.335 304.136 398.695 304.457C399.055 304.777 399.485 304.938 399.986 304.938C400.471 304.938 400.858 304.832 401.148 304.621C401.445 304.41 401.594 304.128 401.594 303.776C401.594 303.479 401.48 303.228 401.253 303.025C401.034 302.822 400.756 302.673 400.42 302.579C400.091 302.477 399.731 302.364 399.34 302.239C398.957 302.106 398.597 301.965 398.261 301.816C397.932 301.667 397.654 301.433 397.427 301.112C397.208 300.791 397.099 300.4 397.099 299.938C397.099 299.289 397.365 298.761 397.897 298.354C398.429 297.939 399.102 297.732 399.915 297.732C400.69 297.732 401.351 297.92 401.899 298.295C402.446 298.671 402.779 299.168 402.896 299.786L401.664 300.29C401.578 299.868 401.378 299.535 401.065 299.293C400.76 299.05 400.377 298.929 399.915 298.929C399.469 298.929 399.117 299.019 398.859 299.199C398.609 299.379 398.484 299.625 398.484 299.938C398.484 300.197 398.593 300.408 398.812 300.572C399.039 300.736 399.317 300.858 399.645 300.936C399.982 301.006 400.346 301.104 400.737 301.229C401.128 301.355 401.488 301.499 401.817 301.664C402.153 301.82 402.431 302.078 402.65 302.438C402.877 302.798 402.99 303.236 402.99 303.753C402.99 304.472 402.712 305.051 402.157 305.489C401.601 305.92 400.862 306.135 399.939 306.135ZM404.772 299.14C404.538 299.14 404.342 299.062 404.186 298.906C404.029 298.741 403.951 298.546 403.951 298.319C403.951 298.084 404.029 297.889 404.186 297.732C404.342 297.568 404.538 297.486 404.772 297.486C405.015 297.486 405.214 297.568 405.371 297.732C405.535 297.889 405.617 298.084 405.617 298.319C405.617 298.546 405.535 298.741 405.371 298.906C405.214 299.062 405.015 299.14 404.772 299.14ZM404.139 306.041V300.126H405.418V306.041H404.139ZM406.56 306.041V305.067L409.939 301.218H406.759V300.126H411.535V301.1L408.179 304.95H411.582V306.041H406.56ZM418.089 302.861C418.089 303.072 418.081 303.248 418.065 303.389H413.547C413.602 303.897 413.782 304.3 414.087 304.598C414.4 304.895 414.791 305.043 415.26 305.043C415.652 305.043 415.976 304.957 416.234 304.785C416.493 304.605 416.661 304.355 416.739 304.034L417.948 304.339C417.791 304.91 417.475 305.353 416.997 305.665C416.52 305.978 415.933 306.135 415.237 306.135C414.337 306.135 413.621 305.838 413.089 305.243C412.557 304.641 412.291 303.921 412.291 303.084C412.291 302.239 412.546 301.519 413.054 300.924C413.57 300.33 414.279 300.032 415.178 300.032C416.086 300.032 416.798 300.31 417.314 300.866C417.831 301.421 418.089 302.086 418.089 302.861ZM413.606 302.415H416.727C416.688 302 416.532 301.667 416.258 301.417C415.992 301.167 415.632 301.042 415.178 301.042C414.771 301.042 414.431 301.163 414.157 301.405C413.883 301.64 413.7 301.977 413.606 302.415Z" fill="#374151"/>
<defs>
<filter id="filter0_d_696_6926" x="0" y="0" width="556" height="464" filterUnits="userSpaceOnUse" color-interpolation-filters="sRGB">
<feFlood flood-opacity="0" result="BackgroundImageFix"/>
<feColorMatrix in="SourceAlpha" type="matrix" values="0 0 0 0 0 0 0 0 0 0 0 0 0 0 0 0 0 0 127 0" result="hardAlpha"/>
<feMorphology radius="22" operator="erode" in="SourceAlpha" result="effect1_dropShadow_696_6926"/>
<feOffset dy="25"/>
<feGaussianBlur stdDeviation="35"/>
<feColorMatrix type="matrix" values="0 0 0 0 0.486275 0 0 0 0 0.486275 0 0 0 0 0.615686 0 0 0 0.3 0"/>
<feBlend mode="normal" in2="BackgroundImageFix" result="effect1_dropShadow_696_6926"/>
<feBlend mode="normal" in="SourceGraphic" in2="effect1_dropShadow_696_6926" result="shape"/>
</filter>
<linearGradient id="paint0_linear_696_6926" x1="488.79" y1="157.589" x2="-25.0664" y2="182.397" gradientUnits="userSpaceOnUse">
<stop stop-color="#059669"/>
<stop offset="0.859375" stop-color="#059669" stop-opacity="0"/>
</linearGradient>
</defs>
</svg>
