<svg width="710" height="399" viewBox="0 0 710 399" fill="none" xmlns="http://www.w3.org/2000/svg">
<g filter="url(#filter0_d_1196_10078)">
<g filter="url(#filter1_dd_1196_10078)">
<path d="M45 82.0356C45 78.0979 48.1921 74.9058 52.1298 74.9058H657.274C661.211 74.9058 664.404 78.0979 664.404 82.0356V321.776C664.404 325.714 661.211 328.906 657.274 328.906H52.1298C48.1921 328.906 45 325.714 45 321.776V82.0356Z" fill="white"/>
</g>
<path d="M103.745 287.609H644.653" stroke="#111827" stroke-width="0.891228"/>
<path d="M103.745 246.554H644.653" stroke="#D1D5DB" stroke-width="0.891228"/>
<path d="M103.745 164.442H644.653" stroke="#D1D5DB" stroke-width="0.891228"/>
<path d="M103.745 123.387H644.653" stroke="#D1D5DB" stroke-width="0.891228"/>
<path d="M103.745 205.498H644.653" stroke="#D1D5DB" stroke-width="0.891228"/>
<rect x="103.745" y="111.07" width="132.404" height="34.8973" fill="white"/>
<path d="M106.494 119.726C107.157 119.726 107.691 119.908 108.098 120.272C108.504 120.635 108.707 121.127 108.707 121.748V125.202H107.809V124.282C107.652 124.589 107.41 124.835 107.082 125.02C106.761 125.198 106.404 125.288 106.012 125.288C105.478 125.288 105.039 125.141 104.697 124.849C104.362 124.55 104.194 124.165 104.194 123.694C104.194 122.682 105.05 122.09 106.761 121.919L107.809 121.801V121.694C107.809 121.323 107.688 121.031 107.445 120.817C107.21 120.596 106.893 120.486 106.494 120.486C106.123 120.486 105.816 120.589 105.574 120.796C105.331 121.003 105.192 121.288 105.157 121.651L104.312 121.491C104.39 120.956 104.629 120.528 105.028 120.208C105.435 119.887 105.923 119.726 106.494 119.726ZM106.151 124.539C106.672 124.539 107.078 124.379 107.371 124.058C107.663 123.737 107.809 123.305 107.809 122.764V122.507L106.761 122.625C105.656 122.746 105.103 123.099 105.103 123.683C105.103 123.933 105.2 124.14 105.392 124.304C105.592 124.461 105.845 124.539 106.151 124.539ZM111.377 125.202L109.409 119.812H110.339L111.837 124.143L113.345 119.812H114.286L112.307 125.202H111.377ZM119.867 122.261C119.867 122.411 119.859 122.55 119.845 122.678H115.589C115.617 123.22 115.788 123.658 116.102 123.994C116.423 124.321 116.826 124.485 117.31 124.485C117.724 124.485 118.066 124.393 118.337 124.207C118.608 124.022 118.783 123.762 118.861 123.427L119.717 123.63C119.581 124.15 119.3 124.557 118.872 124.849C118.451 125.141 117.931 125.288 117.31 125.288C116.519 125.288 115.881 125.02 115.396 124.485C114.918 123.951 114.68 123.291 114.68 122.507C114.68 121.716 114.915 121.056 115.385 120.528C115.863 119.994 116.498 119.726 117.289 119.726C118.066 119.726 118.69 119.972 119.161 120.464C119.631 120.949 119.867 121.548 119.867 122.261ZM115.642 121.919H118.904C118.861 121.491 118.697 121.145 118.412 120.881C118.127 120.618 117.753 120.486 117.289 120.486C116.868 120.486 116.512 120.614 116.22 120.871C115.927 121.12 115.735 121.47 115.642 121.919ZM124.192 120.7C123.992 120.614 123.76 120.571 123.497 120.571C123.04 120.571 122.666 120.792 122.374 121.234C122.088 121.669 121.946 122.307 121.946 123.149V125.202H121.037V119.812H121.946V120.903C122.103 120.561 122.338 120.279 122.652 120.058C122.965 119.837 123.29 119.726 123.625 119.726C123.86 119.726 124.067 119.758 124.245 119.823L124.192 120.7ZM126.954 119.726C127.617 119.726 128.151 119.908 128.558 120.272C128.964 120.635 129.167 121.127 129.167 121.748V125.202H128.269V124.282C128.112 124.589 127.87 124.835 127.542 125.02C127.221 125.198 126.864 125.288 126.472 125.288C125.938 125.288 125.499 125.141 125.157 124.849C124.822 124.55 124.654 124.165 124.654 123.694C124.654 122.682 125.51 122.09 127.221 121.919L128.269 121.801V121.694C128.269 121.323 128.148 121.031 127.905 120.817C127.67 120.596 127.353 120.486 126.954 120.486C126.583 120.486 126.276 120.589 126.034 120.796C125.791 121.003 125.652 121.288 125.617 121.651L124.772 121.491C124.85 120.956 125.089 120.528 125.488 120.208C125.895 119.887 126.383 119.726 126.954 119.726ZM126.611 124.539C127.132 124.539 127.538 124.379 127.83 124.058C128.123 123.737 128.269 123.305 128.269 122.764V122.507L127.221 122.625C126.116 122.746 125.563 123.099 125.563 123.683C125.563 123.933 125.659 124.14 125.852 124.304C126.052 124.461 126.305 124.539 126.611 124.539ZM134.624 119.812H135.522V124.945C135.522 125.623 135.287 126.172 134.816 126.592C134.353 127.02 133.75 127.234 133.009 127.234C132.381 127.234 131.847 127.081 131.405 126.774C130.963 126.475 130.702 126.083 130.624 125.598L131.501 125.448C131.529 125.747 131.683 125.99 131.961 126.175C132.246 126.368 132.595 126.464 133.009 126.464C133.487 126.464 133.875 126.332 134.175 126.068C134.474 125.804 134.624 125.462 134.624 125.042V124.293C134.503 124.521 134.282 124.707 133.961 124.849C133.64 124.992 133.287 125.063 132.902 125.063C132.096 125.063 131.465 124.817 131.009 124.325C130.56 123.826 130.335 123.184 130.335 122.4C130.335 121.609 130.56 120.967 131.009 120.475C131.458 119.976 132.082 119.726 132.881 119.726C133.237 119.726 133.576 119.805 133.897 119.962C134.217 120.111 134.46 120.304 134.624 120.539V119.812ZM131.736 123.748C132.05 124.083 132.467 124.25 132.988 124.25C133.508 124.25 133.922 124.083 134.228 123.748C134.542 123.412 134.699 122.963 134.699 122.4C134.699 121.837 134.542 121.388 134.228 121.052C133.922 120.71 133.508 120.539 132.988 120.539C132.46 120.539 132.039 120.71 131.726 121.052C131.419 121.388 131.266 121.837 131.266 122.4C131.266 122.963 131.423 123.412 131.736 123.748ZM141.872 122.261C141.872 122.411 141.865 122.55 141.851 122.678H137.594C137.623 123.22 137.794 123.658 138.108 123.994C138.428 124.321 138.831 124.485 139.316 124.485C139.73 124.485 140.072 124.393 140.343 124.207C140.614 124.022 140.788 123.762 140.867 123.427L141.722 123.63C141.587 124.15 141.305 124.557 140.878 124.849C140.457 125.141 139.936 125.288 139.316 125.288C138.525 125.288 137.887 125.02 137.402 124.485C136.924 123.951 136.685 123.291 136.685 122.507C136.685 121.716 136.921 121.056 137.391 120.528C137.869 119.994 138.503 119.726 139.295 119.726C140.072 119.726 140.696 119.972 141.166 120.464C141.637 120.949 141.872 121.548 141.872 122.261ZM137.648 121.919H140.91C140.867 121.491 140.703 121.145 140.418 120.881C140.133 120.618 139.758 120.486 139.295 120.486C138.874 120.486 138.518 120.614 138.225 120.871C137.933 121.12 137.74 121.47 137.648 121.919ZM142.561 125.993V125.202H147.395V125.993H142.561ZM151.053 125.288C150.661 125.288 150.301 125.206 149.973 125.042C149.645 124.878 149.42 124.671 149.299 124.421V125.202H148.39V117.63H149.299V120.582C149.47 120.325 149.716 120.118 150.037 119.962C150.365 119.805 150.707 119.726 151.064 119.726C151.876 119.726 152.511 119.987 152.967 120.507C153.424 121.02 153.652 121.687 153.652 122.507C153.652 123.327 153.42 123.997 152.957 124.518C152.5 125.031 151.866 125.288 151.053 125.288ZM149.695 123.94C150.015 124.297 150.44 124.475 150.967 124.475C151.495 124.475 151.919 124.297 152.24 123.94C152.561 123.576 152.721 123.099 152.721 122.507C152.721 121.915 152.561 121.441 152.24 121.085C151.919 120.721 151.495 120.539 150.967 120.539C150.44 120.539 150.015 120.721 149.695 121.085C149.381 121.441 149.224 121.915 149.224 122.507C149.224 123.099 149.381 123.576 149.695 123.94ZM156.771 119.726C157.434 119.726 157.969 119.908 158.376 120.272C158.782 120.635 158.985 121.127 158.985 121.748V125.202H158.087V124.282C157.93 124.589 157.688 124.835 157.36 125.02C157.039 125.198 156.682 125.288 156.29 125.288C155.755 125.288 155.317 125.141 154.975 124.849C154.64 124.55 154.472 124.165 154.472 123.694C154.472 122.682 155.328 122.09 157.039 121.919L158.087 121.801V121.694C158.087 121.323 157.966 121.031 157.723 120.817C157.488 120.596 157.171 120.486 156.771 120.486C156.401 120.486 156.094 120.589 155.852 120.796C155.609 121.003 155.47 121.288 155.435 121.651L154.59 121.491C154.668 120.956 154.907 120.528 155.306 120.208C155.713 119.887 156.201 119.726 156.771 119.726ZM156.429 124.539C156.95 124.539 157.356 124.379 157.648 124.058C157.941 123.737 158.087 123.305 158.087 122.764V122.507L157.039 122.625C155.934 122.746 155.381 123.099 155.381 123.683C155.381 123.933 155.477 124.14 155.67 124.304C155.869 124.461 156.123 124.539 156.429 124.539ZM162.271 125.288C161.672 125.288 161.18 125.134 160.795 124.828C160.417 124.521 160.16 124.15 160.025 123.715L160.805 123.373C161.048 124.136 161.536 124.518 162.271 124.518C162.591 124.518 162.852 124.439 163.051 124.282C163.258 124.118 163.361 123.922 163.361 123.694C163.361 123.445 163.255 123.248 163.041 123.106C162.827 122.963 162.567 122.856 162.26 122.785C161.96 122.714 161.657 122.635 161.351 122.55C161.051 122.457 160.795 122.297 160.581 122.068C160.367 121.84 160.26 121.537 160.26 121.159C160.26 120.732 160.431 120.386 160.773 120.122C161.116 119.858 161.575 119.726 162.153 119.726C162.631 119.726 163.055 119.851 163.426 120.101C163.796 120.343 164.039 120.66 164.153 121.052L163.394 121.384C163.322 121.113 163.165 120.896 162.923 120.732C162.688 120.561 162.424 120.475 162.132 120.475C161.825 120.475 161.583 120.536 161.404 120.657C161.226 120.771 161.137 120.935 161.137 121.149C161.137 121.327 161.212 121.473 161.362 121.587C161.518 121.701 161.711 121.783 161.939 121.833C162.174 121.876 162.427 121.94 162.698 122.026C162.969 122.104 163.219 122.193 163.447 122.293C163.675 122.393 163.864 122.564 164.014 122.806C164.171 123.042 164.249 123.334 164.249 123.683C164.249 124.154 164.067 124.539 163.704 124.838C163.34 125.138 162.862 125.288 162.271 125.288ZM169.072 125.202L167.04 122.55L166.323 123.202V125.202H165.403V117.63H166.323V122.004L168.815 119.812H170.023L167.713 121.94L170.205 125.202H169.072ZM175.711 122.261C175.711 122.411 175.704 122.55 175.69 122.678H171.433C171.462 123.22 171.633 123.658 171.946 123.994C172.267 124.321 172.67 124.485 173.155 124.485C173.568 124.485 173.911 124.393 174.182 124.207C174.453 124.022 174.627 123.762 174.706 123.427L175.561 123.63C175.426 124.15 175.144 124.557 174.716 124.849C174.296 125.141 173.775 125.288 173.155 125.288C172.364 125.288 171.725 125.02 171.241 124.485C170.763 123.951 170.524 123.291 170.524 122.507C170.524 121.716 170.759 121.056 171.23 120.528C171.708 119.994 172.342 119.726 173.134 119.726C173.911 119.726 174.535 119.972 175.005 120.464C175.476 120.949 175.711 121.548 175.711 122.261ZM171.487 121.919H174.748C174.706 121.491 174.542 121.145 174.257 120.881C173.971 120.618 173.597 120.486 173.134 120.486C172.713 120.486 172.356 120.614 172.064 120.871C171.772 121.12 171.579 121.47 171.487 121.919ZM179.674 125.159C179.439 125.245 179.157 125.288 178.83 125.288C178.345 125.288 177.956 125.149 177.664 124.87C177.379 124.585 177.236 124.158 177.236 123.587V120.614H176.231V119.812H177.236V118.176H178.145V119.812H179.589V120.614H178.145V123.619C178.145 123.897 178.216 124.108 178.359 124.25C178.502 124.393 178.694 124.464 178.936 124.464C179.2 124.464 179.425 124.418 179.61 124.325L179.674 125.159ZM180.254 125.993V125.202H185.088V125.993H180.254ZM187.451 125.202L185.484 119.812H186.414L187.911 124.143L189.419 119.812H190.36L188.382 125.202H187.451ZM193.085 119.726C193.749 119.726 194.283 119.908 194.69 120.272C195.096 120.635 195.299 121.127 195.299 121.748V125.202H194.401V124.282C194.244 124.589 194.002 124.835 193.674 125.02C193.353 125.198 192.996 125.288 192.604 125.288C192.069 125.288 191.631 125.141 191.289 124.849C190.954 124.55 190.786 124.165 190.786 123.694C190.786 122.682 191.642 122.09 193.353 121.919L194.401 121.801V121.694C194.401 121.323 194.28 121.031 194.037 120.817C193.802 120.596 193.485 120.486 193.085 120.486C192.715 120.486 192.408 120.589 192.166 120.796C191.923 121.003 191.784 121.288 191.749 121.651L190.904 121.491C190.982 120.956 191.221 120.528 191.62 120.208C192.027 119.887 192.515 119.726 193.085 119.726ZM192.743 124.539C193.264 124.539 193.67 124.379 193.962 124.058C194.255 123.737 194.401 123.305 194.401 122.764V122.507L193.353 122.625C192.248 122.746 191.695 123.099 191.695 123.683C191.695 123.933 191.791 124.14 191.984 124.304C192.184 124.461 192.437 124.539 192.743 124.539ZM196.777 125.202V117.63H197.686V125.202H196.777ZM203.843 119.812V125.202H202.934V124.186C202.741 124.521 202.485 124.788 202.164 124.988C201.843 125.188 201.483 125.288 201.084 125.288C200.52 125.288 200.057 125.113 199.693 124.764C199.337 124.414 199.159 123.954 199.159 123.384V119.812H200.068V123.213C200.068 123.584 200.178 123.887 200.399 124.122C200.62 124.35 200.916 124.464 201.287 124.464C201.793 124.464 202.192 124.261 202.485 123.854C202.784 123.441 202.934 122.881 202.934 122.175V119.812H203.843ZM210.197 122.261C210.197 122.411 210.19 122.55 210.176 122.678H205.919C205.948 123.22 206.119 123.658 206.433 123.994C206.754 124.321 207.156 124.485 207.641 124.485C208.055 124.485 208.397 124.393 208.668 124.207C208.939 124.022 209.114 123.762 209.192 123.427L210.048 123.63C209.912 124.15 209.631 124.557 209.203 124.849C208.782 125.141 208.262 125.288 207.641 125.288C206.85 125.288 206.212 125.02 205.727 124.485C205.249 123.951 205.01 123.291 205.01 122.507C205.01 121.716 205.246 121.056 205.716 120.528C206.194 119.994 206.828 119.726 207.62 119.726C208.397 119.726 209.021 119.972 209.491 120.464C209.962 120.949 210.197 121.548 210.197 122.261ZM205.973 121.919H209.235C209.192 121.491 209.028 121.145 208.743 120.881C208.458 120.618 208.083 120.486 207.62 120.486C207.199 120.486 206.843 120.614 206.55 120.871C206.258 121.12 206.066 121.47 205.973 121.919ZM213.947 127.148V119.812H214.856V120.593C215.006 120.343 215.241 120.136 215.562 119.972C215.89 119.808 216.247 119.726 216.632 119.726C217.437 119.726 218.068 119.987 218.525 120.507C218.981 121.02 219.209 121.687 219.209 122.507C219.209 123.32 218.977 123.986 218.514 124.507C218.051 125.027 217.416 125.288 216.61 125.288C216.268 125.288 215.937 125.213 215.616 125.063C215.295 124.906 215.042 124.703 214.856 124.453V127.148H213.947ZM216.525 124.475C217.06 124.475 217.487 124.297 217.808 123.94C218.129 123.576 218.289 123.099 218.289 122.507C218.289 121.915 218.129 121.441 217.808 121.085C217.487 120.721 217.06 120.539 216.525 120.539C215.997 120.539 215.573 120.721 215.252 121.085C214.938 121.441 214.782 121.915 214.782 122.507C214.782 123.099 214.938 123.576 215.252 123.94C215.573 124.297 215.997 124.475 216.525 124.475ZM225.247 122.261C225.247 122.411 225.24 122.55 225.226 122.678H220.969C220.998 123.22 221.169 123.658 221.483 123.994C221.804 124.321 222.206 124.485 222.691 124.485C223.105 124.485 223.447 124.393 223.718 124.207C223.989 124.022 224.164 123.762 224.242 123.427L225.098 123.63C224.962 124.15 224.68 124.557 224.253 124.849C223.832 125.141 223.312 125.288 222.691 125.288C221.9 125.288 221.262 125.02 220.777 124.485C220.299 123.951 220.06 123.291 220.06 122.507C220.06 121.716 220.296 121.056 220.766 120.528C221.244 119.994 221.878 119.726 222.67 119.726C223.447 119.726 224.071 119.972 224.541 120.464C225.012 120.949 225.247 121.548 225.247 122.261ZM221.023 121.919H224.285C224.242 121.491 224.078 121.145 223.793 120.881C223.508 120.618 223.133 120.486 222.67 120.486C222.249 120.486 221.893 120.614 221.6 120.871C221.308 121.12 221.116 121.47 221.023 121.919ZM229.573 120.7C229.373 120.614 229.141 120.571 228.877 120.571C228.421 120.571 228.047 120.792 227.754 121.234C227.469 121.669 227.327 122.307 227.327 123.149V125.202H226.418V119.812H227.327V120.903C227.483 120.561 227.719 120.279 228.032 120.058C228.346 119.837 228.671 119.726 229.006 119.726C229.241 119.726 229.448 119.758 229.626 119.823L229.573 120.7ZM106.772 135.288C105.959 135.288 105.321 135.031 104.857 134.518C104.401 133.997 104.173 133.327 104.173 132.507C104.173 131.687 104.401 131.02 104.857 130.507C105.314 129.987 105.948 129.726 106.761 129.726C107.117 129.726 107.456 129.805 107.777 129.962C108.105 130.118 108.354 130.325 108.526 130.582V127.63H109.435V135.202H108.526V134.421C108.404 134.671 108.18 134.878 107.852 135.042C107.524 135.206 107.164 135.288 106.772 135.288ZM105.585 133.94C105.905 134.297 106.33 134.475 106.857 134.475C107.385 134.475 107.809 134.297 108.13 133.94C108.451 133.576 108.611 133.099 108.611 132.507C108.611 131.915 108.451 131.441 108.13 131.085C107.809 130.721 107.385 130.539 106.857 130.539C106.33 130.539 105.905 130.721 105.585 131.085C105.264 131.441 105.103 131.915 105.103 132.507C105.103 133.099 105.264 133.576 105.585 133.94ZM112.917 129.726C113.58 129.726 114.114 129.908 114.521 130.272C114.927 130.635 115.13 131.127 115.13 131.748V135.202H114.232V134.282C114.075 134.589 113.833 134.835 113.505 135.02C113.184 135.198 112.828 135.288 112.435 135.288C111.901 135.288 111.462 135.141 111.12 134.849C110.785 134.55 110.617 134.165 110.617 133.694C110.617 132.682 111.473 132.09 113.184 131.919L114.232 131.801V131.694C114.232 131.323 114.111 131.031 113.869 130.817C113.633 130.596 113.316 130.486 112.917 130.486C112.546 130.486 112.239 130.589 111.997 130.796C111.755 131.003 111.615 131.288 111.58 131.651L110.735 131.491C110.813 130.956 111.052 130.528 111.452 130.208C111.858 129.887 112.346 129.726 112.917 129.726ZM112.574 134.539C113.095 134.539 113.501 134.379 113.794 134.058C114.086 133.737 114.232 133.305 114.232 132.764V132.507L113.184 132.625C112.079 132.746 111.526 133.099 111.526 133.683C111.526 133.933 111.623 134.14 111.815 134.304C112.015 134.461 112.268 134.539 112.574 134.539ZM119.982 129.812H120.912L118.089 137.148H117.158L117.939 135.127L115.832 129.812H116.816L118.399 133.94L119.982 129.812ZM124.304 127.63H125.352V128.785H124.304V127.63ZM124.368 135.202V129.812H125.278V135.202H124.368ZM126.75 135.202V129.812H127.659V130.828C127.851 130.493 128.108 130.225 128.429 130.026C128.75 129.826 129.11 129.726 129.509 129.726C130.072 129.726 130.532 129.901 130.889 130.25C131.252 130.6 131.434 131.06 131.434 131.63V135.202H130.525V131.801C130.525 131.43 130.414 131.131 130.193 130.903C129.972 130.667 129.677 130.55 129.306 130.55C128.8 130.55 128.397 130.757 128.097 131.17C127.805 131.577 127.659 132.133 127.659 132.838V135.202H126.75ZM138.208 133.983C138.629 134.268 139.124 134.411 139.694 134.411C140.265 134.411 140.732 134.268 141.095 133.983C141.466 133.698 141.716 133.295 141.844 132.774L142.817 132.978C142.625 133.691 142.254 134.254 141.705 134.667C141.156 135.081 140.486 135.288 139.694 135.288C138.903 135.288 138.19 135.067 137.556 134.625C136.928 134.182 136.504 133.544 136.283 132.71H135.192V131.951H136.144C136.13 131.737 136.122 131.573 136.122 131.459C136.122 131.273 136.133 131.088 136.155 130.903H135.192V130.143H136.294C136.529 129.331 136.957 128.71 137.577 128.283C138.204 127.848 138.91 127.63 139.694 127.63C140.507 127.63 141.192 127.844 141.748 128.272C142.311 128.692 142.668 129.266 142.817 129.994L141.855 130.208C141.741 129.666 141.495 129.245 141.117 128.946C140.739 128.646 140.265 128.496 139.694 128.496C139.138 128.496 138.654 128.639 138.24 128.924C137.826 129.202 137.523 129.609 137.331 130.143H140.753L140.497 130.903H137.16C137.138 131.074 137.128 131.259 137.128 131.459C137.128 131.573 137.135 131.737 137.149 131.951H140.133L139.887 132.71H137.31C137.495 133.266 137.794 133.691 138.208 133.983Z" fill="#4B5563"/>
<path d="M406.854 271.009C405.834 271.009 404.968 270.674 404.255 270.003C403.542 269.333 403.185 268.392 403.185 267.18C403.185 265.968 403.549 265.027 404.276 264.357C405.011 263.686 405.902 263.351 406.95 263.351C407.848 263.351 408.597 263.572 409.196 264.014C409.795 264.456 410.166 265.066 410.308 265.843L408.875 266.143C408.782 265.672 408.561 265.298 408.212 265.02C407.863 264.742 407.438 264.603 406.939 264.603C406.255 264.603 405.702 264.831 405.282 265.287C404.861 265.743 404.651 266.374 404.651 267.18C404.651 267.978 404.861 268.606 405.282 269.062C405.702 269.519 406.248 269.747 406.918 269.747C407.481 269.747 407.941 269.597 408.297 269.297C408.654 268.991 408.85 268.592 408.886 268.1H406.661V266.923H410.233V270.923H408.918V270.014C408.754 270.313 408.483 270.556 408.105 270.741C407.727 270.92 407.31 271.009 406.854 271.009ZM414.981 266.838C414.789 266.752 414.561 266.709 414.297 266.709C413.883 266.709 413.537 266.895 413.259 267.265C412.988 267.629 412.853 268.189 412.853 268.945V270.923H411.505V265.533H412.853V266.517C412.988 266.21 413.209 265.957 413.516 265.758C413.83 265.551 414.151 265.447 414.479 265.447C414.7 265.447 414.896 265.476 415.067 265.533L414.981 266.838ZM420.207 270.228C419.68 270.748 419.006 271.009 418.186 271.009C417.366 271.009 416.692 270.748 416.165 270.228C415.637 269.7 415.373 269.034 415.373 268.228C415.373 267.422 415.637 266.759 416.165 266.239C416.692 265.711 417.366 265.447 418.186 265.447C419.006 265.447 419.68 265.711 420.207 266.239C420.735 266.759 420.999 267.422 420.999 268.228C420.999 269.034 420.735 269.7 420.207 270.228ZM417.127 269.404C417.398 269.697 417.751 269.843 418.186 269.843C418.621 269.843 418.97 269.693 419.234 269.394C419.505 269.094 419.641 268.706 419.641 268.228C419.641 267.75 419.505 267.362 419.234 267.062C418.97 266.763 418.621 266.613 418.186 266.613C417.751 266.613 417.398 266.763 417.127 267.062C416.864 267.355 416.732 267.743 416.732 268.228C416.732 268.713 416.864 269.105 417.127 269.404ZM427.039 265.533V270.923H425.691V270.11C425.513 270.381 425.274 270.599 424.975 270.763C424.682 270.927 424.351 271.009 423.98 271.009C423.395 271.009 422.921 270.83 422.558 270.474C422.194 270.117 422.012 269.647 422.012 269.062V265.533H423.36V268.741C423.36 269.062 423.452 269.322 423.638 269.522C423.823 269.715 424.073 269.811 424.386 269.811C424.8 269.811 425.121 269.643 425.349 269.308C425.577 268.973 425.691 268.503 425.691 267.896V265.533H427.039ZM428.352 272.87V265.533H429.699V266.153C429.856 265.939 430.074 265.768 430.352 265.64C430.637 265.512 430.954 265.447 431.303 265.447C432.073 265.447 432.683 265.704 433.132 266.217C433.581 266.724 433.806 267.394 433.806 268.228C433.806 269.055 433.567 269.725 433.089 270.239C432.619 270.752 431.991 271.009 431.207 271.009C430.537 271.009 430.034 270.802 429.699 270.388V272.87H428.352ZM431.047 269.843C431.475 269.843 431.817 269.697 432.073 269.404C432.337 269.105 432.469 268.713 432.469 268.228C432.469 267.743 432.337 267.355 432.073 267.062C431.817 266.763 431.475 266.613 431.047 266.613C430.612 266.613 430.262 266.763 429.999 267.062C429.742 267.355 429.614 267.743 429.614 268.228C429.614 268.713 429.742 269.105 429.999 269.404C430.262 269.697 430.612 269.843 431.047 269.843ZM437.45 270.923V263.437H440.391C441.097 263.437 441.663 263.608 442.091 263.95C442.526 264.285 442.744 264.756 442.744 265.362C442.744 265.69 442.655 265.986 442.476 266.249C442.298 266.513 442.084 266.709 441.835 266.838C442.212 266.98 442.519 267.208 442.754 267.522C442.99 267.836 443.107 268.228 443.107 268.699C443.107 269.39 442.868 269.936 442.391 270.335C441.92 270.727 441.289 270.923 440.498 270.923H437.45ZM438.904 266.356H440.284C441.018 266.356 441.385 266.064 441.385 265.479C441.385 264.895 441.011 264.603 440.262 264.603H438.904V266.356ZM438.904 269.661H440.348C441.268 269.661 441.728 269.319 441.728 268.634C441.728 267.936 441.268 267.586 440.348 267.586H438.904V269.661Z" fill="#3142BE"/>
<path d="M352.959 116.024C351.94 116.024 351.073 115.689 350.36 115.018C349.647 114.348 349.291 113.407 349.291 112.195C349.291 110.983 349.655 110.042 350.382 109.372C351.116 108.701 352.007 108.366 353.055 108.366C353.954 108.366 354.702 108.587 355.301 109.029C355.9 109.471 356.271 110.081 356.414 110.858L354.98 111.158C354.888 110.687 354.667 110.313 354.317 110.035C353.968 109.757 353.544 109.618 353.045 109.618C352.36 109.618 351.808 109.846 351.387 110.302C350.966 110.758 350.756 111.389 350.756 112.195C350.756 112.993 350.966 113.621 351.387 114.077C351.808 114.534 352.353 114.762 353.023 114.762C353.587 114.762 354.046 114.612 354.403 114.313C354.759 114.006 354.956 113.607 354.991 113.115H352.767V111.938H356.339V115.938H355.023V115.029C354.859 115.329 354.588 115.571 354.21 115.756C353.833 115.935 353.415 116.024 352.959 116.024ZM361.087 111.853C360.894 111.767 360.666 111.724 360.402 111.724C359.989 111.724 359.643 111.91 359.365 112.281C359.094 112.644 358.958 113.204 358.958 113.96V115.938H357.611V110.548H358.958V111.532C359.094 111.225 359.315 110.972 359.622 110.773C359.935 110.566 360.256 110.462 360.584 110.462C360.805 110.462 361.001 110.491 361.172 110.548L361.087 111.853ZM366.313 115.243C365.785 115.763 365.112 116.024 364.292 116.024C363.472 116.024 362.798 115.763 362.27 115.243C361.743 114.715 361.479 114.049 361.479 113.243C361.479 112.437 361.743 111.774 362.27 111.254C362.798 110.726 363.472 110.462 364.292 110.462C365.112 110.462 365.785 110.726 366.313 111.254C366.841 111.774 367.104 112.437 367.104 113.243C367.104 114.049 366.841 114.715 366.313 115.243ZM363.233 114.419C363.504 114.712 363.857 114.858 364.292 114.858C364.727 114.858 365.076 114.708 365.34 114.409C365.611 114.109 365.746 113.721 365.746 113.243C365.746 112.765 365.611 112.377 365.34 112.077C365.076 111.778 364.727 111.628 364.292 111.628C363.857 111.628 363.504 111.778 363.233 112.077C362.969 112.37 362.837 112.758 362.837 113.243C362.837 113.728 362.969 114.12 363.233 114.419ZM373.144 110.548V115.938H371.797V115.125C371.618 115.396 371.38 115.614 371.08 115.778C370.788 115.942 370.456 116.024 370.085 116.024C369.501 116.024 369.027 115.845 368.663 115.489C368.299 115.132 368.118 114.662 368.118 114.077V110.548H369.465V113.756C369.465 114.077 369.558 114.337 369.743 114.537C369.929 114.73 370.178 114.826 370.492 114.826C370.905 114.826 371.226 114.658 371.454 114.323C371.683 113.988 371.797 113.518 371.797 112.911V110.548H373.144ZM374.457 117.885V110.548H375.805V111.168C375.962 110.954 376.179 110.783 376.457 110.655C376.742 110.527 377.06 110.462 377.409 110.462C378.179 110.462 378.789 110.719 379.238 111.232C379.687 111.739 379.912 112.409 379.912 113.243C379.912 114.07 379.673 114.74 379.195 115.254C378.724 115.767 378.097 116.024 377.313 116.024C376.642 116.024 376.14 115.817 375.805 115.403V117.885H374.457ZM377.152 114.858C377.58 114.858 377.922 114.712 378.179 114.419C378.443 114.12 378.575 113.728 378.575 113.243C378.575 112.758 378.443 112.37 378.179 112.077C377.922 111.778 377.58 111.628 377.152 111.628C376.717 111.628 376.368 111.778 376.104 112.077C375.848 112.37 375.719 112.758 375.719 113.243C375.719 113.728 375.848 114.12 376.104 114.419C376.368 114.712 376.717 114.858 377.152 114.858ZM388.539 115.938L387.929 114.28H385.031L384.422 115.938H382.924L385.801 108.452H387.159L390.036 115.938H388.539ZM385.491 113.051H387.48L386.486 110.355L385.491 113.051Z" fill="#1E3A8A"/>
<path d="M99.6967 306.873L99.686 306.028L102.499 303.601C103.333 302.881 103.75 302.196 103.75 301.547C103.75 301.127 103.618 300.792 103.354 300.542C103.098 300.292 102.752 300.168 102.317 300.168C101.796 300.168 101.397 300.339 101.119 300.681C100.841 301.016 100.731 301.462 100.788 302.018L99.8464 301.954C99.7894 301.169 99.989 300.531 100.445 300.039C100.909 299.547 101.533 299.301 102.317 299.301C103.051 299.301 103.639 299.508 104.082 299.922C104.531 300.328 104.755 300.87 104.755 301.547C104.755 302.004 104.623 302.449 104.36 302.884C104.096 303.319 103.675 303.779 103.098 304.264L101.066 305.996H104.755V306.873H99.6967ZM108.978 306.873V305.044H105.031V304.168L108.828 299.387H109.951V304.168H111.031V305.044H109.951V306.873H108.978ZM106.079 304.168H108.978V300.499L106.079 304.168ZM111.884 305.761H112.932V306.873H111.884V305.761ZM116.521 305.986C116.692 306.043 116.877 306.071 117.077 306.071C117.448 306.071 117.719 305.971 117.89 305.772C118.061 305.572 118.146 305.233 118.146 304.756V299.387H119.098V304.724C119.098 305.465 118.927 306.021 118.585 306.392C118.243 306.756 117.776 306.937 117.184 306.937C116.97 306.937 116.749 306.909 116.521 306.852V305.986ZM122.605 301.398C123.268 301.398 123.803 301.579 124.209 301.943C124.616 302.307 124.819 302.799 124.819 303.419V306.873H123.921V305.954C123.764 306.26 123.521 306.506 123.193 306.691C122.873 306.87 122.516 306.959 122.124 306.959C121.589 306.959 121.151 306.813 120.809 306.52C120.473 306.221 120.306 305.836 120.306 305.365C120.306 304.353 121.161 303.761 122.873 303.59L123.921 303.472V303.365C123.921 302.995 123.799 302.702 123.557 302.488C123.322 302.267 123.005 302.157 122.605 302.157C122.234 302.157 121.928 302.26 121.685 302.467C121.443 302.674 121.304 302.959 121.268 303.323L120.424 303.162C120.502 302.627 120.741 302.2 121.14 301.879C121.546 301.558 122.035 301.398 122.605 301.398ZM122.263 306.21C122.783 306.21 123.19 306.05 123.482 305.729C123.775 305.408 123.921 304.977 123.921 304.435V304.178L122.873 304.296C121.767 304.417 121.215 304.77 121.215 305.355C121.215 305.604 121.311 305.811 121.504 305.975C121.703 306.132 121.956 306.21 122.263 306.21ZM126.297 306.873V301.483H127.206V302.499C127.399 302.164 127.655 301.897 127.976 301.697C128.297 301.497 128.657 301.398 129.056 301.398C129.62 301.398 130.079 301.572 130.436 301.922C130.8 302.271 130.981 302.731 130.981 303.301V306.873H130.072V303.472C130.072 303.102 129.962 302.802 129.741 302.574C129.52 302.339 129.224 302.221 128.853 302.221C128.347 302.221 127.944 302.428 127.645 302.841C127.352 303.248 127.206 303.804 127.206 304.51V306.873H126.297Z" fill="#4B5563"/>
<path d="M176.998 305.996H178.848V306.873H173.864V305.996H176.068V300.606C175.611 301.034 175.023 301.312 174.303 301.44V300.574C175.073 300.41 175.715 300.014 176.228 299.387H176.998V305.996ZM182.146 305.761H183.194V306.873H182.146V305.761ZM190.399 306.873V299.387H195.191V300.253H191.373V302.542H194.495V303.419H191.373V306.873H190.399ZM200.518 303.932C200.518 304.082 200.511 304.221 200.497 304.349H196.24C196.269 304.891 196.44 305.33 196.754 305.665C197.074 305.993 197.477 306.157 197.962 306.157C198.376 306.157 198.718 306.064 198.989 305.879C199.26 305.693 199.434 305.433 199.513 305.098L200.368 305.301C200.233 305.822 199.951 306.228 199.523 306.52C199.103 306.813 198.582 306.959 197.962 306.959C197.171 306.959 196.532 306.691 196.048 306.157C195.57 305.622 195.331 304.962 195.331 304.178C195.331 303.387 195.566 302.727 196.037 302.2C196.515 301.665 197.149 301.398 197.941 301.398C198.718 301.398 199.342 301.644 199.812 302.136C200.283 302.62 200.518 303.219 200.518 303.932ZM196.294 303.59H199.556C199.513 303.162 199.349 302.816 199.064 302.553C198.778 302.289 198.404 302.157 197.941 302.157C197.52 302.157 197.163 302.285 196.871 302.542C196.579 302.791 196.386 303.141 196.294 303.59ZM204.351 306.959C203.959 306.959 203.599 306.877 203.271 306.713C202.943 306.549 202.719 306.342 202.597 306.093V306.873H201.688V299.301H202.597V302.253C202.769 301.996 203.015 301.79 203.335 301.633C203.663 301.476 204.006 301.398 204.362 301.398C205.175 301.398 205.809 301.658 206.266 302.178C206.722 302.692 206.95 303.358 206.95 304.178C206.95 304.998 206.718 305.668 206.255 306.189C205.799 306.702 205.164 306.959 204.351 306.959ZM202.993 305.611C203.314 305.968 203.738 306.146 204.266 306.146C204.793 306.146 205.218 305.968 205.538 305.611C205.859 305.248 206.02 304.77 206.02 304.178C206.02 303.586 205.859 303.112 205.538 302.756C205.218 302.392 204.793 302.21 204.266 302.21C203.738 302.21 203.314 302.392 202.993 302.756C202.679 303.112 202.523 303.586 202.523 304.178C202.523 304.77 202.679 305.248 202.993 305.611Z" fill="#4B5563"/>
<path d="M258.096 306.959C257.298 306.959 256.649 306.756 256.15 306.349C255.658 305.943 255.412 305.401 255.412 304.724C255.412 304.289 255.54 303.9 255.797 303.558C256.054 303.216 256.396 302.977 256.824 302.841C256.489 302.692 256.221 302.474 256.022 302.189C255.822 301.904 255.722 301.597 255.722 301.269C255.722 300.685 255.936 300.21 256.364 299.847C256.799 299.483 257.376 299.301 258.096 299.301C258.795 299.301 259.358 299.483 259.786 299.847C260.214 300.21 260.428 300.685 260.428 301.269C260.428 301.597 260.328 301.907 260.128 302.2C259.929 302.485 259.661 302.699 259.326 302.841C259.754 302.977 260.096 303.216 260.353 303.558C260.61 303.9 260.738 304.289 260.738 304.724C260.738 305.394 260.492 305.936 260 306.349C259.515 306.756 258.881 306.959 258.096 306.959ZM258.096 302.478C258.51 302.478 258.841 302.371 259.091 302.157C259.34 301.943 259.469 301.658 259.476 301.301C259.483 300.945 259.358 300.66 259.102 300.446C258.852 300.232 258.517 300.125 258.096 300.125C257.654 300.125 257.305 300.232 257.048 300.446C256.792 300.66 256.667 300.945 256.674 301.301C256.681 301.658 256.813 301.943 257.07 302.157C257.326 302.371 257.669 302.478 258.096 302.478ZM258.086 306.114C258.592 306.114 258.995 305.986 259.294 305.729C259.601 305.472 259.754 305.134 259.754 304.713C259.754 304.292 259.601 303.954 259.294 303.697C258.995 303.44 258.592 303.312 258.086 303.312C257.572 303.312 257.162 303.44 256.856 303.697C256.549 303.954 256.396 304.292 256.396 304.713C256.396 305.134 256.549 305.472 256.856 305.729C257.162 305.986 257.572 306.114 258.086 306.114ZM261.885 305.761H262.933V306.873H261.885V305.761ZM267.035 306.873V299.387H271.826V300.253H268.008V302.542H271.131V303.419H268.008V306.873H267.035ZM277.153 303.932C277.153 304.082 277.146 304.221 277.132 304.349H272.875C272.904 304.891 273.075 305.33 273.389 305.665C273.71 305.993 274.112 306.157 274.597 306.157C275.011 306.157 275.353 306.064 275.624 305.879C275.895 305.693 276.07 305.433 276.148 305.098L277.004 305.301C276.868 305.822 276.586 306.228 276.159 306.52C275.738 306.813 275.217 306.959 274.597 306.959C273.806 306.959 273.168 306.691 272.683 306.157C272.205 305.622 271.966 304.962 271.966 304.178C271.966 303.387 272.202 302.727 272.672 302.2C273.15 301.665 273.784 301.398 274.576 301.398C275.353 301.398 275.977 301.644 276.447 302.136C276.918 302.62 277.153 303.219 277.153 303.932ZM272.929 303.59H276.191C276.148 303.162 275.984 302.816 275.699 302.553C275.414 302.289 275.039 302.157 274.576 302.157C274.155 302.157 273.799 302.285 273.506 302.542C273.214 302.791 273.022 303.141 272.929 303.59ZM280.987 306.959C280.594 306.959 280.234 306.877 279.906 306.713C279.578 306.549 279.354 306.342 279.233 306.093V306.873H278.324V299.301H279.233V302.253C279.404 301.996 279.65 301.79 279.971 301.633C280.299 301.476 280.641 301.398 280.997 301.398C281.81 301.398 282.445 301.658 282.901 302.178C283.357 302.692 283.585 303.358 283.585 304.178C283.585 304.998 283.354 305.668 282.89 306.189C282.434 306.702 281.799 306.959 280.987 306.959ZM279.628 305.611C279.949 305.968 280.373 306.146 280.901 306.146C281.429 306.146 281.853 305.968 282.174 305.611C282.495 305.248 282.655 304.77 282.655 304.178C282.655 303.586 282.495 303.112 282.174 302.756C281.853 302.392 281.429 302.21 280.901 302.21C280.373 302.21 279.949 302.392 279.628 302.756C279.315 303.112 279.158 303.586 279.158 304.178C279.158 304.77 279.315 305.248 279.628 305.611Z" fill="#4B5563"/>
<path d="M344.883 306.873V300.606C344.419 301.034 343.828 301.312 343.107 301.44V300.574C343.877 300.41 344.519 300.014 345.032 299.387H345.802V306.873H344.883ZM349.874 301.857C350.644 301.857 351.275 302.096 351.767 302.574C352.266 303.052 352.515 303.661 352.515 304.403C352.515 305.151 352.259 305.765 351.745 306.242C351.239 306.72 350.59 306.959 349.799 306.959C348.965 306.959 348.291 306.649 347.778 306.028C347.271 305.401 347.018 304.57 347.018 303.537C347.018 302.196 347.336 301.155 347.97 300.414C348.612 299.672 349.45 299.301 350.483 299.301C351.268 299.301 351.949 299.53 352.526 299.986L352.034 300.745C351.585 300.36 351.064 300.168 350.473 300.168C349.753 300.168 349.15 300.435 348.665 300.97C348.188 301.497 347.942 302.168 347.927 302.98C348.098 302.638 348.359 302.367 348.708 302.168C349.064 301.961 349.453 301.857 349.874 301.857ZM348.569 305.601C348.897 305.921 349.31 306.082 349.81 306.082C350.309 306.082 350.719 305.921 351.039 305.601C351.36 305.28 351.524 304.87 351.531 304.371C351.531 303.879 351.367 303.476 351.039 303.162C350.719 302.841 350.309 302.681 349.81 302.681C349.31 302.681 348.897 302.841 348.569 303.162C348.248 303.476 348.088 303.879 348.088 304.371C348.088 304.87 348.248 305.28 348.569 305.601ZM353.636 305.761H354.684V306.873H353.636V305.761ZM358.786 306.873V299.387H363.578V300.253H359.76V302.542H362.882V303.419H359.76V306.873H358.786ZM368.905 303.932C368.905 304.082 368.898 304.221 368.884 304.349H364.627C364.656 304.891 364.827 305.33 365.14 305.665C365.461 305.993 365.864 306.157 366.349 306.157C366.763 306.157 367.105 306.064 367.376 305.879C367.647 305.693 367.821 305.433 367.9 305.098L368.755 305.301C368.62 305.822 368.338 306.228 367.91 306.52C367.49 306.813 366.969 306.959 366.349 306.959C365.558 306.959 364.919 306.691 364.435 306.157C363.957 305.622 363.718 304.962 363.718 304.178C363.718 303.387 363.953 302.727 364.424 302.2C364.902 301.665 365.536 301.398 366.328 301.398C367.105 301.398 367.729 301.644 368.199 302.136C368.67 302.62 368.905 303.219 368.905 303.932ZM364.681 303.59H367.942C367.9 303.162 367.736 302.816 367.451 302.553C367.165 302.289 366.791 302.157 366.328 302.157C365.907 302.157 365.55 302.285 365.258 302.542C364.966 302.791 364.773 303.141 364.681 303.59ZM372.738 306.959C372.346 306.959 371.986 306.877 371.658 306.713C371.33 306.549 371.106 306.342 370.984 306.093V306.873H370.075V299.301H370.984V302.253C371.156 301.996 371.401 301.79 371.722 301.633C372.05 301.476 372.393 301.398 372.749 301.398C373.562 301.398 374.196 301.658 374.653 302.178C375.109 302.692 375.337 303.358 375.337 304.178C375.337 304.998 375.105 305.668 374.642 306.189C374.186 306.702 373.551 306.959 372.738 306.959ZM371.38 305.611C371.701 305.968 372.125 306.146 372.653 306.146C373.18 306.146 373.605 305.968 373.925 305.611C374.246 305.248 374.407 304.77 374.407 304.178C374.407 303.586 374.246 303.112 373.925 302.756C373.605 302.392 373.18 302.21 372.653 302.21C372.125 302.21 371.701 302.392 371.38 302.756C371.066 303.112 370.91 303.586 370.91 304.178C370.91 304.77 371.066 305.248 371.38 305.611Z" fill="#4B5563"/>
<path d="M417.247 306.873L417.237 306.028L420.049 303.601C420.884 302.881 421.301 302.196 421.301 301.547C421.301 301.127 421.169 300.792 420.905 300.542C420.648 300.292 420.303 300.168 419.868 300.168C419.347 300.168 418.948 300.339 418.67 300.681C418.392 301.016 418.281 301.462 418.338 302.018L417.397 301.954C417.34 301.169 417.54 300.531 417.996 300.039C418.459 299.547 419.083 299.301 419.868 299.301C420.602 299.301 421.19 299.508 421.632 299.922C422.081 300.328 422.306 300.87 422.306 301.547C422.306 302.004 422.174 302.449 421.91 302.884C421.646 303.319 421.226 303.779 420.648 304.264L418.616 305.996H422.306V306.873H417.247ZM426.528 306.873V305.044H422.582V304.168L426.379 299.387H427.502V304.168H428.582V305.044H427.502V306.873H426.528ZM423.63 304.168H426.528V300.499L423.63 304.168ZM429.435 305.761H430.483V306.873H429.435V305.761ZM434.585 306.873V299.387H439.376V300.253H435.558V302.542H438.681V303.419H435.558V306.873H434.585ZM444.704 303.932C444.704 304.082 444.696 304.221 444.682 304.349H440.426C440.454 304.891 440.625 305.33 440.939 305.665C441.26 305.993 441.663 306.157 442.148 306.157C442.561 306.157 442.903 306.064 443.174 305.879C443.445 305.693 443.62 305.433 443.698 305.098L444.554 305.301C444.418 305.822 444.137 306.228 443.709 306.52C443.288 306.813 442.768 306.959 442.148 306.959C441.356 306.959 440.718 306.691 440.233 306.157C439.756 305.622 439.517 304.962 439.517 304.178C439.517 303.387 439.752 302.727 440.223 302.2C440.7 301.665 441.335 301.398 442.126 301.398C442.903 301.398 443.527 301.644 443.998 302.136C444.468 302.62 444.704 303.219 444.704 303.932ZM440.479 303.59H443.741C443.698 303.162 443.534 302.816 443.249 302.553C442.964 302.289 442.59 302.157 442.126 302.157C441.706 302.157 441.349 302.285 441.057 302.542C440.764 302.791 440.572 303.141 440.479 303.59ZM448.537 306.959C448.145 306.959 447.785 306.877 447.457 306.713C447.129 306.549 446.904 306.342 446.783 306.093V306.873H445.874V299.301H446.783V302.253C446.954 301.996 447.2 301.79 447.521 301.633C447.849 301.476 448.191 301.398 448.548 301.398C449.36 301.398 449.995 301.658 450.451 302.178C450.908 302.692 451.136 303.358 451.136 304.178C451.136 304.998 450.904 305.668 450.441 306.189C449.984 306.702 449.35 306.959 448.537 306.959ZM447.179 305.611C447.5 305.968 447.924 306.146 448.451 306.146C448.979 306.146 449.403 305.968 449.724 305.611C450.045 305.248 450.205 304.77 450.205 304.178C450.205 303.586 450.045 303.112 449.724 302.756C449.403 302.392 448.979 302.21 448.451 302.21C447.924 302.21 447.5 302.392 447.179 302.756C446.865 303.112 446.708 303.586 446.708 304.178C446.708 304.77 446.865 305.248 447.179 305.611Z" fill="#4B5563"/>
<path d="M504.584 306.873V300.606C504.12 301.034 503.528 301.312 502.808 301.44V300.574C503.578 300.41 504.22 300.014 504.733 299.387H505.503V306.873H504.584ZM507.019 305.761H508.067V306.873H507.019V305.761ZM512.169 306.873V299.387H513.345L515.869 305.462L518.393 299.387H519.569V306.873H518.607V301.226L516.275 306.873H515.463L513.12 301.226V306.873H512.169ZM523.087 301.398C523.75 301.398 524.285 301.579 524.691 301.943C525.098 302.307 525.301 302.799 525.301 303.419V306.873H524.402V305.954C524.246 306.26 524.003 306.506 523.675 306.691C523.354 306.87 522.998 306.959 522.606 306.959C522.071 306.959 521.633 306.813 521.29 306.52C520.955 306.221 520.788 305.836 520.788 305.365C520.788 304.353 521.643 303.761 523.354 303.59L524.402 303.472V303.365C524.402 302.995 524.281 302.702 524.039 302.488C523.804 302.267 523.486 302.157 523.087 302.157C522.716 302.157 522.41 302.26 522.167 302.467C521.925 302.674 521.786 302.959 521.75 303.323L520.905 303.162C520.984 302.627 521.223 302.2 521.622 301.879C522.028 301.558 522.517 301.398 523.087 301.398ZM522.745 306.21C523.265 306.21 523.672 306.05 523.964 305.729C524.256 305.408 524.402 304.977 524.402 304.435V304.178L523.354 304.296C522.249 304.417 521.697 304.77 521.697 305.355C521.697 305.604 521.793 305.811 521.985 305.975C522.185 306.132 522.438 306.21 522.745 306.21ZM529.934 302.371C529.734 302.285 529.502 302.242 529.239 302.242C528.782 302.242 528.408 302.463 528.116 302.906C527.831 303.34 527.688 303.979 527.688 304.82V306.873H526.779V301.483H527.688V302.574C527.845 302.232 528.08 301.95 528.394 301.729C528.707 301.508 529.032 301.398 529.367 301.398C529.602 301.398 529.809 301.43 529.987 301.494L529.934 302.371Z" fill="#4B5563"/>
<path d="M586.558 306.959C585.76 306.959 585.111 306.756 584.612 306.349C584.12 305.943 583.874 305.401 583.874 304.724C583.874 304.289 584.002 303.9 584.259 303.558C584.516 303.216 584.858 302.977 585.286 302.841C584.951 302.692 584.683 302.474 584.484 302.189C584.284 301.904 584.184 301.597 584.184 301.269C584.184 300.685 584.398 300.21 584.826 299.847C585.261 299.483 585.838 299.301 586.558 299.301C587.257 299.301 587.82 299.483 588.248 299.847C588.676 300.21 588.89 300.685 588.89 301.269C588.89 301.597 588.79 301.907 588.59 302.2C588.391 302.485 588.123 302.699 587.788 302.841C588.216 302.977 588.558 303.216 588.815 303.558C589.072 303.9 589.2 304.289 589.2 304.724C589.2 305.394 588.954 305.936 588.462 306.349C587.977 306.756 587.343 306.959 586.558 306.959ZM586.558 302.478C586.972 302.478 587.303 302.371 587.553 302.157C587.803 301.943 587.931 301.658 587.938 301.301C587.945 300.945 587.82 300.66 587.564 300.446C587.314 300.232 586.979 300.125 586.558 300.125C586.116 300.125 585.767 300.232 585.51 300.446C585.254 300.66 585.129 300.945 585.136 301.301C585.143 301.658 585.275 301.943 585.532 302.157C585.788 302.371 586.131 302.478 586.558 302.478ZM586.548 306.114C587.054 306.114 587.457 305.986 587.756 305.729C588.063 305.472 588.216 305.134 588.216 304.713C588.216 304.292 588.063 303.954 587.756 303.697C587.457 303.44 587.054 303.312 586.548 303.312C586.034 303.312 585.624 303.44 585.318 303.697C585.011 303.954 584.858 304.292 584.858 304.713C584.858 305.134 585.011 305.472 585.318 305.729C585.624 305.986 586.034 306.114 586.548 306.114ZM590.347 305.761H591.395V306.873H590.347V305.761ZM595.497 306.873V299.387H596.673L599.197 305.462L601.721 299.387H602.897V306.873H601.935V301.226L599.603 306.873H598.791L596.448 301.226V306.873H595.497ZM606.415 301.398C607.078 301.398 607.613 301.579 608.019 301.943C608.426 302.307 608.629 302.799 608.629 303.419V306.873H607.73V305.954C607.574 306.26 607.331 306.506 607.003 306.691C606.682 306.87 606.326 306.959 605.934 306.959C605.399 306.959 604.961 306.813 604.618 306.52C604.283 306.221 604.116 305.836 604.116 305.365C604.116 304.353 604.971 303.761 606.682 303.59L607.73 303.472V303.365C607.73 302.995 607.609 302.702 607.367 302.488C607.132 302.267 606.814 302.157 606.415 302.157C606.044 302.157 605.738 302.26 605.495 302.467C605.253 302.674 605.114 302.959 605.078 303.323L604.233 303.162C604.312 302.627 604.551 302.2 604.95 301.879C605.356 301.558 605.845 301.398 606.415 301.398ZM606.073 306.21C606.593 306.21 607 306.05 607.292 305.729C607.584 305.408 607.73 304.977 607.73 304.435V304.178L606.682 304.296C605.577 304.417 605.025 304.77 605.025 305.355C605.025 305.604 605.121 305.811 605.313 305.975C605.513 306.132 605.766 306.21 606.073 306.21ZM613.262 302.371C613.062 302.285 612.83 302.242 612.567 302.242C612.11 302.242 611.736 302.463 611.444 302.906C611.158 303.34 611.016 303.979 611.016 304.82V306.873H610.107V301.483H611.016V302.574C611.173 302.232 611.408 301.95 611.722 301.729C612.035 301.508 612.36 301.398 612.695 301.398C612.93 301.398 613.137 301.43 613.315 301.494L613.262 302.371Z" fill="#4B5563"/>
<path d="M80.0896 126.229V119.962C79.6261 120.389 79.0344 120.667 78.3143 120.796V119.929C79.0843 119.765 79.726 119.37 80.2393 118.742H81.0093V126.229H80.0896ZM84.8453 126.314C84.1252 126.314 83.5192 126.129 83.0272 125.758C82.5424 125.38 82.2501 124.878 82.1502 124.25L83.0593 124.09C83.1306 124.503 83.3231 124.831 83.6368 125.074C83.9577 125.316 84.3534 125.437 84.8239 125.437C85.323 125.437 85.7187 125.284 86.011 124.977C86.3105 124.664 86.4602 124.254 86.4602 123.747C86.4602 123.227 86.3034 122.817 85.9897 122.518C85.6831 122.218 85.2588 122.068 84.717 122.068C84.004 122.068 83.4514 122.368 83.0593 122.967L82.3534 122.817L82.9417 118.742H86.9308V119.609H83.6582L83.3374 121.854C83.5299 121.669 83.7651 121.519 84.0432 121.405C84.3284 121.291 84.6065 121.234 84.8774 121.234C85.6545 121.234 86.2784 121.466 86.749 121.929C87.2267 122.386 87.4655 122.992 87.4655 123.747C87.4655 124.525 87.2267 125.148 86.749 125.619C86.2784 126.082 85.6439 126.314 84.8453 126.314ZM91.2115 126.314C90.2918 126.314 89.5824 125.972 89.0833 125.288C88.5913 124.596 88.3453 123.662 88.3453 122.485C88.3453 121.309 88.5913 120.379 89.0833 119.694C89.5824 119.003 90.2918 118.657 91.2115 118.657C92.1241 118.657 92.83 119.003 93.3291 119.694C93.8282 120.386 94.0777 121.316 94.0777 122.485C94.0777 123.655 93.8282 124.585 93.3291 125.277C92.83 125.968 92.1241 126.314 91.2115 126.314ZM91.2115 125.437C91.8033 125.437 92.2596 125.173 92.5804 124.646C92.9084 124.118 93.0724 123.398 93.0724 122.485C93.0724 121.573 92.9084 120.853 92.5804 120.325C92.2596 119.79 91.8033 119.523 91.2115 119.523C90.6055 119.523 90.142 119.787 89.8212 120.314C89.5004 120.842 89.3399 121.566 89.3399 122.485C89.3399 123.398 89.5004 124.118 89.8212 124.646C90.142 125.173 90.6055 125.437 91.2115 125.437Z" fill="#9CA3AF"/>
<path d="M80.8102 167.284V161.017C80.3468 161.445 79.755 161.723 79.0349 161.851V160.985C79.8049 160.821 80.4466 160.426 80.9599 159.798H81.73V167.284H80.8102ZM82.8281 167.284L82.8174 166.44L85.6301 164.012C86.4643 163.292 86.8814 162.607 86.8814 161.958C86.8814 161.538 86.7495 161.203 86.4857 160.953C86.229 160.704 85.8832 160.579 85.4483 160.579C84.9278 160.579 84.5286 160.75 84.2505 161.092C83.9724 161.427 83.8619 161.873 83.919 162.429L82.9778 162.365C82.9208 161.581 83.1204 160.942 83.5767 160.45C84.0402 159.959 84.664 159.713 85.4483 159.713C86.1827 159.713 86.7709 159.919 87.2129 160.333C87.6621 160.739 87.8867 161.281 87.8867 161.958C87.8867 162.415 87.7548 162.86 87.491 163.295C87.2272 163.73 86.8065 164.19 86.229 164.675L84.197 166.407H87.8867V167.284H82.8281ZM91.446 167.37C90.7259 167.37 90.1198 167.185 89.6279 166.814C89.143 166.436 88.8507 165.933 88.7509 165.306L89.6599 165.145C89.7312 165.559 89.9238 165.887 90.2375 166.129C90.5583 166.372 90.954 166.493 91.4246 166.493C91.9237 166.493 92.3194 166.34 92.6117 166.033C92.9111 165.719 93.0609 165.309 93.0609 164.803C93.0609 164.283 92.904 163.873 92.5903 163.573C92.2837 163.274 91.8595 163.124 91.3176 163.124C90.6047 163.124 90.0521 163.424 89.6599 164.023L88.9541 163.873L89.5423 159.798H93.5314V160.664H90.2589L89.938 162.91C90.1305 162.725 90.3658 162.575 90.6439 162.461C90.9291 162.347 91.2071 162.29 91.4781 162.29C92.2552 162.29 92.8791 162.522 93.3496 162.985C93.8273 163.441 94.0662 164.047 94.0662 164.803C94.0662 165.58 93.8273 166.204 93.3496 166.675C92.8791 167.138 92.2445 167.37 91.446 167.37Z" fill="#9CA3AF"/>
<path d="M79.6092 208.34V202.073C79.1457 202.501 78.5539 202.779 77.8338 202.907V202.041C78.6039 201.877 79.2455 201.481 79.7589 200.854H80.5289V208.34H79.6092ZM84.6109 208.426C83.6911 208.426 82.9817 208.083 82.4826 207.399C81.9907 206.707 81.7447 205.773 81.7447 204.597C81.7447 203.421 81.9907 202.49 82.4826 201.806C82.9817 201.114 83.6911 200.768 84.6109 200.768C85.5235 200.768 86.2293 201.114 86.7284 201.806C87.2275 202.497 87.4771 203.428 87.4771 204.597C87.4771 205.766 87.2275 206.697 86.7284 207.388C86.2293 208.08 85.5235 208.426 84.6109 208.426ZM84.6109 207.549C85.2026 207.549 85.659 207.285 85.9798 206.757C86.3078 206.23 86.4718 205.51 86.4718 204.597C86.4718 203.684 86.3078 202.964 85.9798 202.437C85.659 201.902 85.2026 201.634 84.6109 201.634C84.0048 201.634 83.5414 201.898 83.2206 202.426C82.8997 202.954 82.7393 203.677 82.7393 204.597C82.7393 205.51 82.8997 206.23 83.2206 206.757C83.5414 207.285 84.0048 207.549 84.6109 207.549ZM91.2115 208.426C90.2918 208.426 89.5824 208.083 89.0833 207.399C88.5913 206.707 88.3453 205.773 88.3453 204.597C88.3453 203.421 88.5913 202.49 89.0833 201.806C89.5824 201.114 90.2918 200.768 91.2115 200.768C92.1241 200.768 92.83 201.114 93.3291 201.806C93.8282 202.497 94.0777 203.428 94.0777 204.597C94.0777 205.766 93.8282 206.697 93.3291 207.388C92.83 208.08 92.1241 208.426 91.2115 208.426ZM91.2115 207.549C91.8033 207.549 92.2596 207.285 92.5805 206.757C92.9084 206.23 93.0724 205.51 93.0724 204.597C93.0724 203.684 92.9084 202.964 92.5805 202.437C92.2596 201.902 91.8033 201.634 91.2115 201.634C90.6055 201.634 90.1421 201.898 89.8212 202.426C89.5004 202.954 89.3399 203.677 89.3399 204.597C89.3399 205.51 89.5004 206.23 89.8212 206.757C90.1421 207.285 90.6055 207.549 91.2115 207.549Z" fill="#9CA3AF"/>
<path d="M84.1022 249.395C84.3232 247.47 85.4319 245.264 87.4283 242.775H83.2252V241.909H88.4336V242.775C86.3659 245.442 85.2537 247.648 85.0968 249.395H84.1022ZM91.446 249.481C90.7259 249.481 90.1198 249.295 89.6279 248.925C89.143 248.547 88.8507 248.044 88.7509 247.417L89.66 247.256C89.7312 247.67 89.9238 247.998 90.2375 248.24C90.5583 248.483 90.954 248.604 91.4246 248.604C91.9237 248.604 92.3194 248.451 92.6117 248.144C92.9112 247.83 93.0609 247.42 93.0609 246.914C93.0609 246.394 92.904 245.984 92.5903 245.684C92.2837 245.385 91.8595 245.235 91.3176 245.235C90.6047 245.235 90.0521 245.534 89.66 246.133L88.9541 245.984L89.5423 241.909H93.5314V242.775H90.2589L89.938 245.021C90.1305 244.836 90.3658 244.686 90.6439 244.572C90.9291 244.458 91.2071 244.401 91.4781 244.401C92.2552 244.401 92.8791 244.633 93.3496 245.096C93.8273 245.552 94.0662 246.158 94.0662 246.914C94.0662 247.691 93.8273 248.315 93.3496 248.786C92.8791 249.249 92.2445 249.481 91.446 249.481Z" fill="#9CA3AF"/>
<path d="M645.679 192.776L634.64 214.124L623.601 209.809L612.562 190.118L601.523 201.239L590.484 228.887L579.444 217.337L568.405 192.555L557.366 226.366L546.327 220.316L535.288 246.554L524.249 171.06L513.21 188.147L502.17 110.557L491.131 172.04L480.092 166.633L469.053 153.106L458.014 205.049L446.975 188.762L435.936 182.624L424.896 179.564L413.857 229.392L402.818 98.7535L391.779 186.23L380.74 201.81L369.701 204.273L358.662 217.937L347.622 206.403L336.583 211.999L325.544 196.478L314.505 226.678L303.466 145.096L292.427 145.88L281.388 176.581L270.348 233.454L259.309 192.014L248.27 218.12L237.231 177.628L226.192 211.61L215.153 160.967L204.113 158.764L193.074 185.776L182.035 171.254L170.996 152.46L159.957 209.214L148.918 230.41L137.879 234.249L126.839 228.086L115.8 216.045L104.771 231.964" stroke="#B6BCE8" stroke-width="1.78246" stroke-linecap="round" stroke-linejoin="round"/>
<path d="M645.669 211.883L634.63 244.593L623.591 256.164L612.552 232.567L601.513 238.405L590.474 257.282L579.435 232.399L568.396 224.971L557.358 230.671L546.319 265.006L535.28 211.463L524.241 254.637L513.202 209.246L502.163 222.361L491.124 216.992L480.085 252.683L469.046 199.34L457.193 222.544L446.968 228.462L435.929 251.637L424.89 239.168L413.851 247.272L402.812 222.544L391.773 226.511L380.735 200.632L369.696 235.986L358.657 223.805L347.618 249.179L336.579 266.85L325.54 219.699L314.501 218.307L303.462 255.704L292.423 252.446L281.384 273.9L270.345 248.055L259.306 239.95L248.267 243.92L237.228 261.552L226.189 237.809L215.151 239.799L204.112 234.559L193.073 232.686L182.034 231.901L170.995 237.032L159.956 224.754L148.917 246.731L137.878 252.477L126.839 207.465L115.8 225.082L104.771 233.254" stroke="#3142BE" stroke-width="1.78246" stroke-linecap="round" stroke-linejoin="round"/>
<circle cx="402.425" cy="101.833" r="8.21113" fill="#F3FECE"/>
<circle cx="402.425" cy="101.832" r="4.10556" fill="#D6FC5C"/>
<circle cx="402.425" cy="222.946" r="8.21113" fill="#F3FECE"/>
<circle cx="402.425" cy="222.947" r="4.10556" fill="#D6FC5C"/>
<circle cx="535.855" cy="246.554" r="4.10556" fill="#D6FC5C"/>
<circle cx="535.855" cy="210.63" r="4.10556" fill="#D6FC5C"/>
<circle cx="292.601" cy="145.967" r="4.10556" fill="#D6FC5C"/>
<circle cx="292.601" cy="254.765" r="4.10556" fill="#D6FC5C"/>
<path d="M116.062 290.689V287.609" stroke="black" stroke-width="0.891228"/>
<path d="M187.909 290.689V287.609" stroke="black" stroke-width="0.891228"/>
<path d="M270.02 290.689V287.609" stroke="black" stroke-width="0.891228"/>
<path d="M352.132 290.689V287.609" stroke="black" stroke-width="0.891228"/>
<path d="M434.243 290.689V287.609" stroke="black" stroke-width="0.891228"/>
<path d="M516.354 290.689V287.609" stroke="black" stroke-width="0.891228"/>
<path d="M598.465 290.689V287.609" stroke="black" stroke-width="0.891228"/>
</g>
<g filter="url(#filter2_d_1196_10078)">
<g filter="url(#filter3_dd_1196_10078)">
<path d="M426.759 23.1058H597.982C600.75 23.1058 602.994 25.3497 602.994 28.1176V97.1764C602.994 99.9443 600.75 102.188 597.982 102.188H426.759V23.1058Z" fill="#F3F4F6"/>
<path d="M469.671 50.9764V43.7378H467.063V42.7906H473.331V43.7378H470.735V50.9764H469.671ZM478.073 50.2163C477.512 50.7854 476.795 51.07 475.922 51.07C475.048 51.07 474.331 50.7854 473.77 50.2163C473.209 49.6394 472.928 48.9105 472.928 48.0295C472.928 47.1486 473.209 46.4235 473.77 45.8544C474.331 45.2775 475.048 44.9891 475.922 44.9891C476.795 44.9891 477.512 45.2775 478.073 45.8544C478.642 46.4235 478.927 47.1486 478.927 48.0295C478.927 48.9105 478.642 49.6394 478.073 50.2163ZM474.495 49.5848C474.861 49.9824 475.337 50.1812 475.922 50.1812C476.506 50.1812 476.982 49.9824 477.348 49.5848C477.715 49.1794 477.898 48.661 477.898 48.0295C477.898 47.398 477.715 46.8835 477.348 46.4859C476.982 46.0805 476.506 45.8778 475.922 45.8778C475.337 45.8778 474.861 46.0805 474.495 46.4859C474.129 46.8835 473.945 47.398 473.945 48.0295C473.945 48.661 474.129 49.1794 474.495 49.5848ZM483.253 50.9297C482.996 51.0232 482.688 51.07 482.329 51.07C481.799 51.07 481.374 50.918 481.055 50.6139C480.743 50.3021 480.587 49.8343 480.587 49.2106V45.9597H479.488V45.0826H480.587V43.2934H481.581V45.0826H483.16V45.9597H481.581V49.2457C481.581 49.5498 481.659 49.7797 481.815 49.9357C481.971 50.0916 482.181 50.1695 482.446 50.1695C482.735 50.1695 482.98 50.1189 483.183 50.0175L483.253 50.9297ZM486.509 44.9891C487.234 44.9891 487.818 45.1879 488.263 45.5855C488.707 45.9831 488.929 46.521 488.929 47.1992V50.9764H487.947V49.9707C487.776 50.306 487.511 50.5749 487.152 50.7776C486.801 50.9725 486.411 51.07 485.982 51.07C485.398 51.07 484.918 50.9102 484.544 50.5905C484.178 50.2631 483.994 49.8421 483.994 49.3276C483.994 48.2205 484.93 47.5735 486.801 47.3863L487.947 47.2577V47.1408C487.947 46.7354 487.815 46.4157 487.549 46.1819C487.292 45.9402 486.945 45.8193 486.509 45.8193C486.103 45.8193 485.768 45.9324 485.503 46.1585C485.238 46.3846 485.086 46.6964 485.047 47.094L484.123 46.9186C484.209 46.3339 484.47 45.8661 484.907 45.5153C485.351 45.1645 485.885 44.9891 486.509 44.9891ZM486.135 50.2514C486.704 50.2514 487.148 50.076 487.468 49.7252C487.787 49.3743 487.947 48.9027 487.947 48.3102V48.0295L486.801 48.1582C485.593 48.2907 484.988 48.6766 484.988 49.3159C484.988 49.5887 485.094 49.8148 485.304 49.9941C485.523 50.1656 485.799 50.2514 486.135 50.2514ZM490.546 50.9764V42.697H491.54V50.9764H490.546ZM498.554 51.07C497.681 51.07 496.976 50.7932 496.438 50.2397C495.9 49.6784 495.631 48.9417 495.631 48.0295C495.631 47.1174 495.9 46.3846 496.438 45.831C496.976 45.2697 497.681 44.9891 498.554 44.9891C499.241 44.9891 499.814 45.1645 500.274 45.5153C500.741 45.8583 501.03 46.3222 501.139 46.9069L500.157 47.1057C500.094 46.7471 499.919 46.4547 499.63 46.2286C499.342 45.9947 498.991 45.8778 498.578 45.8778C498.001 45.8778 497.537 46.0766 497.186 46.4742C496.843 46.864 496.672 47.3824 496.672 48.0295C496.672 48.6766 496.843 49.1989 497.186 49.5965C497.537 49.9863 498.001 50.1812 498.578 50.1812C498.999 50.1812 499.35 50.0721 499.63 49.8538C499.919 49.6355 500.102 49.3315 500.18 48.9417L501.151 49.1405C501.026 49.7486 500.73 50.2241 500.262 50.5671C499.802 50.9024 499.233 51.07 498.554 51.07ZM502.388 50.9764V42.697H503.382V46.2403C503.811 45.4061 504.481 44.9891 505.394 44.9891C506.064 44.9891 506.598 45.1801 506.996 45.5621C507.401 45.9441 507.604 46.4547 507.604 47.094V50.9764H506.61V47.2811C506.61 46.8445 506.481 46.5054 506.224 46.2637C505.974 46.0142 505.624 45.8895 505.171 45.8895C504.626 45.8895 504.189 46.1195 503.862 46.5795C503.542 47.0394 503.382 47.6631 503.382 48.4505V50.9764H502.388ZM511.416 44.9891C512.141 44.9891 512.726 45.1879 513.17 45.5855C513.614 45.9831 513.837 46.521 513.837 47.1992V50.9764H512.854V49.9707C512.683 50.306 512.418 50.5749 512.059 50.7776C511.708 50.9725 511.318 51.07 510.89 51.07C510.305 51.07 509.825 50.9102 509.451 50.5905C509.085 50.2631 508.902 49.8421 508.902 49.3276C508.902 48.2205 509.837 47.5735 511.708 47.3863L512.854 47.2577V47.1408C512.854 46.7354 512.722 46.4157 512.457 46.1819C512.199 45.9402 511.852 45.8193 511.416 45.8193C511.01 45.8193 510.675 45.9324 510.41 46.1585C510.145 46.3846 509.993 46.6964 509.954 47.094L509.03 46.9186C509.116 46.3339 509.377 45.8661 509.814 45.5153C510.258 45.1645 510.792 44.9891 511.416 44.9891ZM511.042 50.2514C511.611 50.2514 512.055 50.076 512.375 49.7252C512.694 49.3743 512.854 48.9027 512.854 48.3102V48.0295L511.708 48.1582C510.5 48.2907 509.896 48.6766 509.896 49.3159C509.896 49.5887 510.001 49.8148 510.211 49.9941C510.43 50.1656 510.706 50.2514 511.042 50.2514ZM515.453 50.9764V45.0826H516.447V46.1935C516.657 45.8271 516.938 45.5348 517.289 45.3165C517.639 45.0982 518.033 44.9891 518.47 44.9891C519.086 44.9891 519.588 45.1801 519.978 45.5621C520.376 45.9441 520.575 46.4469 520.575 47.0706V50.9764H519.581V47.2577C519.581 46.8523 519.46 46.5249 519.218 46.2754C518.976 46.0181 518.653 45.8895 518.248 45.8895C517.694 45.8895 517.254 46.1156 516.926 46.5678C516.606 47.0121 516.447 47.6202 516.447 48.392V50.9764H515.453ZM526.541 45.0826H527.523V50.6958C527.523 51.4364 527.266 52.0367 526.751 52.4967C526.244 52.9644 525.586 53.1983 524.775 53.1983C524.089 53.1983 523.504 53.0307 523.021 52.6955C522.537 52.368 522.253 51.9393 522.167 51.4091L523.126 51.2454C523.157 51.5728 523.325 51.8379 523.629 52.0406C523.941 52.2511 524.323 52.3563 524.775 52.3563C525.297 52.3563 525.722 52.2121 526.05 51.9237C526.377 51.6352 526.541 51.261 526.541 50.801V49.9824C526.408 50.2319 526.166 50.4346 525.816 50.5905C525.465 50.7465 525.079 50.8244 524.658 50.8244C523.777 50.8244 523.087 50.5555 522.588 50.0175C522.097 49.4718 521.851 48.7702 521.851 47.9126C521.851 47.0472 522.097 46.3456 522.588 45.8076C523.079 45.2619 523.761 44.9891 524.635 44.9891C525.024 44.9891 525.395 45.0748 525.746 45.2463C526.096 45.41 526.361 45.6205 526.541 45.8778V45.0826ZM523.383 49.386C523.726 49.7525 524.182 49.9357 524.752 49.9357C525.321 49.9357 525.773 49.7525 526.108 49.386C526.451 49.0196 526.623 48.5285 526.623 47.9126C526.623 47.2967 526.451 46.8055 526.108 46.4391C525.773 46.0649 525.321 45.8778 524.752 45.8778C524.175 45.8778 523.715 46.0649 523.372 46.4391C523.036 46.8055 522.869 47.2967 522.869 47.9126C522.869 48.5285 523.04 49.0196 523.383 49.386ZM534.466 47.7606C534.466 47.9243 534.459 48.0763 534.443 48.2166H529.789C529.82 48.8091 530.007 49.2886 530.35 49.655C530.701 50.0136 531.141 50.1929 531.671 50.1929C532.124 50.1929 532.498 50.0916 532.794 49.8889C533.09 49.6862 533.281 49.4016 533.367 49.0352L534.303 49.2574C534.155 49.8265 533.847 50.2709 533.379 50.5905C532.919 50.9102 532.35 51.07 531.671 51.07C530.806 51.07 530.108 50.7776 529.578 50.1929C529.056 49.6082 528.795 48.8871 528.795 48.0295C528.795 47.1642 529.052 46.443 529.567 45.8661C530.089 45.2814 530.783 44.9891 531.648 44.9891C532.498 44.9891 533.18 45.258 533.695 45.7959C534.209 46.3261 534.466 46.981 534.466 47.7606ZM529.847 47.3863H533.414C533.367 46.9186 533.188 46.5405 532.876 46.252C532.564 45.9636 532.155 45.8193 531.648 45.8193C531.188 45.8193 530.798 45.9597 530.479 46.2403C530.159 46.5132 529.949 46.8952 529.847 47.3863Z" fill="#6B7280"/>
<path d="M546.433 49.7038H545.876V47.4764H545.32M545.876 45.2489H545.882M550.888 47.4764C550.888 50.2443 548.644 52.4881 545.876 52.4881C543.109 52.4881 540.865 50.2443 540.865 47.4764C540.865 44.7084 543.109 42.4646 545.876 42.4646C548.644 42.4646 550.888 44.7084 550.888 47.4764Z" stroke="#D1D5DB" stroke-width="1.67059" stroke-linecap="round" stroke-linejoin="round"/>
<path d="M471.029 71.147L476.876 65.2999M476.876 65.2999L482.724 71.147M476.876 65.2999V80.3352" stroke="#10B981" stroke-width="1.67059" stroke-linecap="round" stroke-linejoin="round"/>
<path d="M492.366 79.3176C492.794 75.9364 494.718 72.0405 498.14 67.6302H490.843V65.2847H500.946V67.6302C497.298 72.5618 495.353 76.4576 495.113 79.3176H492.366ZM501.446 79.478C501.005 79.478 500.631 79.331 500.323 79.037C500.029 78.7429 499.882 78.3754 499.882 77.9344C499.882 77.4933 500.029 77.1258 500.323 76.8318C500.631 76.5378 501.005 76.3908 501.446 76.3908C501.9 76.3908 502.275 76.5378 502.569 76.8318C502.863 77.1258 503.01 77.4933 503.01 77.9344C503.01 78.3754 502.863 78.7429 502.569 79.037C502.275 79.331 501.9 79.478 501.446 79.478ZM509.701 79.478C508.324 79.478 507.161 79.1238 506.212 78.4155C505.264 77.7072 504.696 76.765 504.508 75.5889L506.974 75.1278C507.108 75.7426 507.409 76.2304 507.876 76.5912C508.344 76.9387 508.919 77.1125 509.6 77.1125C510.335 77.1125 510.93 76.8853 511.385 76.4309C511.839 75.9765 512.066 75.375 512.066 74.6266C512.066 73.8515 511.826 73.2434 511.344 72.8023C510.877 72.3479 510.242 72.1207 509.44 72.1207C508.331 72.1207 507.455 72.5952 506.814 73.5441L504.849 73.1231L506.012 65.2847H513.75V67.6302H507.997L507.475 70.9781C508.21 70.3098 509.092 69.9757 510.122 69.9757C511.512 69.9757 512.634 70.4101 513.489 71.2788C514.358 72.1341 514.793 73.2501 514.793 74.6266C514.793 76.0967 514.325 77.2728 513.389 78.1549C512.467 79.037 511.238 79.478 509.701 79.478ZM522.011 69.8554C523.441 69.8554 524.617 70.3098 525.539 71.2186C526.474 72.1141 526.942 73.2634 526.942 74.6667C526.942 76.07 526.441 77.2261 525.439 78.1349C524.436 79.0303 523.16 79.478 521.61 79.478C520.019 79.478 518.723 78.8766 517.721 77.6738C516.718 76.4576 516.217 74.8805 516.217 72.9427C516.217 70.4435 516.852 68.5189 518.121 67.1691C519.391 65.8059 520.968 65.1243 522.853 65.1243C524.456 65.1243 525.826 65.5988 526.962 66.5477L525.719 68.5323C524.891 67.824 523.955 67.4698 522.913 67.4698C521.763 67.4698 520.808 67.8507 520.046 68.6125C519.284 69.3609 518.863 70.3299 518.783 71.5193C519.104 70.9981 519.545 70.5905 520.106 70.2965C520.681 70.0024 521.316 69.8554 522.011 69.8554ZM521.69 77.1125C522.438 77.1125 523.053 76.8719 523.534 76.3908C524.015 75.8963 524.256 75.2748 524.256 74.5264C524.269 73.7913 524.029 73.1832 523.534 72.7021C523.053 72.2076 522.438 71.9604 521.69 71.9604C520.928 71.9604 520.3 72.2009 519.805 72.6821C519.324 73.1632 519.084 73.778 519.084 74.5264C519.084 75.2748 519.324 75.8963 519.805 76.3908C520.3 76.8719 520.928 77.1125 521.69 77.1125Z" fill="#6B7280"/>
<rect x="531.582" y="63.4823" width="51.3647" height="18.6706" rx="9.33529" fill="#E5E7EB"/>
<path d="M541.609 77.2464C540.822 77.2464 540.159 77.0437 539.621 76.6383C539.091 76.2251 538.771 75.6755 538.662 74.9894L539.656 74.814C539.734 75.2662 539.945 75.6248 540.288 75.8899C540.639 76.1549 541.071 76.2875 541.586 76.2875C542.132 76.2875 542.564 76.1199 542.884 75.7846C543.211 75.4416 543.375 74.9933 543.375 74.4398C543.375 73.8707 543.203 73.4224 542.86 73.095C542.525 72.7675 542.061 72.6038 541.469 72.6038C540.689 72.6038 540.085 72.9313 539.656 73.5861L538.884 73.4224L539.528 68.9669H543.89V69.9142H540.311L539.96 72.3699C540.171 72.1672 540.428 72.0035 540.732 71.8788C541.044 71.754 541.348 71.6917 541.644 71.6917C542.494 71.6917 543.176 71.9451 543.691 72.4518C544.213 72.9507 544.474 73.6134 544.474 74.4398C544.474 75.2896 544.213 75.9717 543.691 76.4863C543.176 76.993 542.482 77.2464 541.609 77.2464ZM545.753 77.1528C545.995 75.0479 547.207 72.635 549.39 69.9142H544.794V68.9669H550.489V69.9142C548.228 72.8299 547.012 75.2428 546.84 77.1528H545.753ZM550.035 75.9366H551.181V77.1528H550.035V75.9366ZM556.084 77.1528V75.1531H551.769V74.1942L555.92 68.9669H557.148V74.1942H558.329V75.1531H557.148V77.1528H556.084ZM552.915 74.1942H556.084V70.1831L552.915 74.1942ZM562.297 77.2464C561.291 77.2464 560.516 76.8722 559.97 76.1237C559.432 75.3675 559.163 74.3462 559.163 73.0599C559.163 71.7735 559.432 70.7561 559.97 70.0077C560.516 69.2515 561.291 68.8734 562.297 68.8734C563.295 68.8734 564.067 69.2515 564.613 70.0077C565.158 70.7639 565.431 71.7813 565.431 73.0599C565.431 74.3384 565.158 75.3558 564.613 76.1121C564.067 76.8683 563.295 77.2464 562.297 77.2464ZM562.297 76.2875C562.944 76.2875 563.443 75.999 563.794 75.4221C564.153 74.8452 564.332 74.0578 564.332 73.0599C564.332 72.062 564.153 71.2746 563.794 70.6977C563.443 70.113 562.944 69.8206 562.297 69.8206C561.635 69.8206 561.128 70.1091 560.777 70.686C560.426 71.2629 560.251 72.0542 560.251 73.0599C560.251 74.0578 560.426 74.8452 560.777 75.4221C561.128 75.999 561.635 76.2875 562.297 76.2875ZM568.205 72.9897C567.644 72.9897 567.184 72.7948 566.825 72.405C566.466 72.0152 566.287 71.5241 566.287 70.9316C566.287 70.3391 566.466 69.8479 566.825 69.4581C567.184 69.0683 567.644 68.8734 568.205 68.8734C568.758 68.8734 569.215 69.0683 569.573 69.4581C569.932 69.8479 570.111 70.3391 570.111 70.9316C570.111 71.5241 569.932 72.0152 569.573 72.405C569.215 72.7948 568.758 72.9897 568.205 72.9897ZM567.48 77.1528L572.953 68.9669H573.83L568.357 77.1528H567.48ZM568.205 72.2413C568.525 72.2413 568.778 72.1244 568.965 71.8905C569.16 71.6488 569.257 71.3292 569.257 70.9316C569.257 70.534 569.16 70.2182 568.965 69.9843C568.778 69.7427 568.525 69.6218 568.205 69.6218C567.877 69.6218 567.616 69.7427 567.421 69.9843C567.227 70.2182 567.129 70.534 567.129 70.9316C567.129 71.3292 567.227 71.6488 567.421 71.8905C567.616 72.1244 567.877 72.2413 568.205 72.2413ZM573.152 77.2464C572.59 77.2464 572.13 77.0515 571.772 76.6617C571.413 76.2719 571.234 75.7807 571.234 75.1882C571.234 74.5957 571.413 74.1046 571.772 73.7148C572.13 73.325 572.59 73.1301 573.152 73.1301C573.705 73.1301 574.161 73.325 574.52 73.7148C574.878 74.1046 575.058 74.5957 575.058 75.1882C575.058 75.7807 574.878 76.2719 574.52 76.6617C574.161 77.0515 573.705 77.2464 573.152 77.2464ZM573.152 76.498C573.471 76.498 573.725 76.381 573.912 76.1471C574.107 75.9055 574.204 75.5858 574.204 75.1882C574.204 74.7906 574.107 74.4749 573.912 74.241C573.725 73.9993 573.471 73.8785 573.152 73.8785C572.824 73.8785 572.563 73.9993 572.368 74.241C572.173 74.4749 572.076 74.7906 572.076 75.1882C572.076 75.5858 572.173 75.9055 572.368 76.1471C572.563 76.381 572.824 76.498 573.152 76.498Z" fill="#6B7280"/>
<path d="M428.424 23.3882L451.812 62.647L428.424 101.906V23.3882Z" fill="#E5E7EB"/>
<path d="M427.588 23.3882L450.976 62.647L427.588 101.906V23.3882Z" fill="white"/>
<path d="M105.629 28.1176C105.629 25.3497 107.873 23.1058 110.641 23.1058H256.724V102.188H110.641C107.873 102.188 105.629 99.9443 105.629 97.1764V28.1176Z" fill="white"/>
<path d="M126.998 50.9764C127.24 48.8715 128.452 46.4586 130.635 43.7378H126.039V42.7906H131.734V43.7378C129.473 46.6535 128.257 49.0664 128.085 50.9764H126.998ZM135.78 50.9764V42.7906H141.019V43.7378H136.845V46.2403H140.259V47.1992H136.845V50.9764H135.78ZM146.845 47.7606C146.845 47.9243 146.837 48.0763 146.821 48.2166H142.167C142.198 48.8091 142.385 49.2886 142.728 49.655C143.079 50.0136 143.52 50.1929 144.05 50.1929C144.502 50.1929 144.876 50.0916 145.172 49.8889C145.469 49.6862 145.66 49.4016 145.745 49.0352L146.681 49.2574C146.533 49.8265 146.225 50.2709 145.757 50.5905C145.297 50.9102 144.728 51.07 144.05 51.07C143.184 51.07 142.487 50.7776 141.956 50.1929C141.434 49.6082 141.173 48.8871 141.173 48.0295C141.173 47.1642 141.43 46.443 141.945 45.8661C142.467 45.2814 143.161 44.9891 144.026 44.9891C144.876 44.9891 145.558 45.258 146.073 45.7959C146.587 46.3261 146.845 46.981 146.845 47.7606ZM142.225 47.3863H145.792C145.745 46.9186 145.566 46.5405 145.254 46.252C144.942 45.9636 144.533 45.8193 144.026 45.8193C143.566 45.8193 143.177 45.9597 142.857 46.2403C142.537 46.5132 142.327 46.8952 142.225 47.3863ZM151.036 51.07C150.607 51.07 150.214 50.9803 149.855 50.801C149.496 50.6217 149.251 50.3956 149.118 50.1228V50.9764H148.124V42.697H149.118V45.9246C149.305 45.6439 149.574 45.4178 149.925 45.2463C150.284 45.0748 150.658 44.9891 151.048 44.9891C151.937 44.9891 152.63 45.2736 153.129 45.8427C153.628 46.404 153.878 47.133 153.878 48.0295C153.878 48.9261 153.624 49.6589 153.118 50.228C152.619 50.7893 151.925 51.07 151.036 51.07ZM149.551 49.5965C149.902 49.9863 150.366 50.1812 150.943 50.1812C151.52 50.1812 151.983 49.9863 152.334 49.5965C152.685 49.1989 152.86 48.6766 152.86 48.0295C152.86 47.3824 152.685 46.864 152.334 46.4742C151.983 46.0766 151.52 45.8778 150.943 45.8778C150.366 45.8778 149.902 46.0766 149.551 46.4742C149.208 46.864 149.036 47.3824 149.036 48.0295C149.036 48.6766 149.208 49.1989 149.551 49.5965ZM154.314 52.216L154.992 49.7603H156.326L155.016 52.216H154.314ZM160.162 50.9764L160.15 50.0526L163.226 47.398C164.138 46.6106 164.594 45.8622 164.594 45.1528C164.594 44.6928 164.45 44.3264 164.161 44.0535C163.88 43.7807 163.502 43.6442 163.027 43.6442C162.458 43.6442 162.021 43.8313 161.717 44.2055C161.413 44.572 161.292 45.0592 161.355 45.6673L160.325 45.5971C160.263 44.7396 160.481 44.0418 160.98 43.5039C161.487 42.966 162.169 42.697 163.027 42.697C163.83 42.697 164.473 42.9231 164.956 43.3753C165.448 43.8196 165.693 44.4121 165.693 45.1528C165.693 45.6517 165.549 46.139 165.26 46.6145C164.972 47.0901 164.512 47.5929 163.88 48.1231L161.659 50.0175H165.693V50.9764H160.162ZM166.705 50.9764L166.694 50.0526L169.769 47.398C170.681 46.6106 171.138 45.8622 171.138 45.1528C171.138 44.6928 170.993 44.3264 170.705 44.0535C170.424 43.7807 170.046 43.6442 169.571 43.6442C169.001 43.6442 168.565 43.8313 168.261 44.2055C167.957 44.572 167.836 45.0592 167.898 45.6673L166.869 45.5971C166.807 44.7396 167.025 44.0418 167.524 43.5039C168.031 42.966 168.713 42.697 169.571 42.697C170.374 42.697 171.017 42.9231 171.5 43.3753C171.991 43.8196 172.237 44.4121 172.237 45.1528C172.237 45.6517 172.093 46.139 171.804 46.6145C171.516 47.0901 171.056 47.5929 170.424 48.1231L168.202 50.0175H172.237V50.9764H166.705ZM176 48.0412V47.1642H181.285V48.0412H176ZM186.585 50.9764V44.1237C186.079 44.5915 185.432 44.8955 184.644 45.0358V44.0886C185.486 43.9093 186.188 43.4766 186.749 42.7906H187.591V50.9764H186.585ZM191.657 51.07C190.854 51.07 190.183 50.8556 189.645 50.4268C189.115 49.998 188.811 49.425 188.733 48.7078L189.739 48.5558C189.794 49.0313 189.996 49.4094 190.347 49.6901C190.698 49.9707 191.135 50.1111 191.657 50.1111C192.226 50.1111 192.678 49.9552 193.013 49.6433C193.356 49.3315 193.528 48.9183 193.528 48.4037C193.528 47.8736 193.368 47.4604 193.048 47.1642C192.729 46.8679 192.284 46.7198 191.715 46.7198C191.388 46.7198 191.088 46.8055 190.815 46.9771L190.359 46.2988L192.943 43.7378H188.967V42.7906H194.194V43.7144L191.867 45.9831C192.678 45.9051 193.341 46.0922 193.855 46.5444C194.37 46.9965 194.627 47.6241 194.627 48.4271C194.627 49.2223 194.354 49.8616 193.809 50.345C193.271 50.8283 192.553 51.07 191.657 51.07ZM198.796 50.9764V42.7906H204.035V43.7378H199.86V46.2403H203.275V47.1992H199.86V50.9764H198.796ZM209.86 47.7606C209.86 47.9243 209.853 48.0763 209.837 48.2166H205.183C205.214 48.8091 205.401 49.2886 205.744 49.655C206.095 50.0136 206.535 50.1929 207.066 50.1929C207.518 50.1929 207.892 50.0916 208.188 49.8889C208.484 49.6862 208.675 49.4016 208.761 49.0352L209.697 49.2574C209.549 49.8265 209.241 50.2709 208.773 50.5905C208.313 50.9102 207.744 51.07 207.066 51.07C206.2 51.07 205.502 50.7776 204.972 50.1929C204.45 49.6082 204.189 48.8871 204.189 48.0295C204.189 47.1642 204.446 46.443 204.961 45.8661C205.483 45.2814 206.177 44.9891 207.042 44.9891C207.892 44.9891 208.574 45.258 209.089 45.7959C209.603 46.3261 209.86 46.981 209.86 47.7606ZM205.241 47.3863H208.808C208.761 46.9186 208.582 46.5405 208.27 46.252C207.958 45.9636 207.549 45.8193 207.042 45.8193C206.582 45.8193 206.192 45.9597 205.873 46.2403C205.553 46.5132 205.343 46.8952 205.241 47.3863ZM214.052 51.07C213.623 51.07 213.229 50.9803 212.871 50.801C212.512 50.6217 212.267 50.3956 212.134 50.1228V50.9764H211.14V42.697H212.134V45.9246C212.321 45.6439 212.59 45.4178 212.941 45.2463C213.3 45.0748 213.674 44.9891 214.064 44.9891C214.952 44.9891 215.646 45.2736 216.145 45.8427C216.644 46.404 216.894 47.133 216.894 48.0295C216.894 48.9261 216.64 49.6589 216.133 50.228C215.635 50.7893 214.941 51.07 214.052 51.07ZM212.567 49.5965C212.918 49.9863 213.381 50.1812 213.958 50.1812C214.535 50.1812 214.999 49.9863 215.35 49.5965C215.701 49.1989 215.876 48.6766 215.876 48.0295C215.876 47.3824 215.701 46.864 215.35 46.4742C214.999 46.0766 214.535 45.8778 213.958 45.8778C213.381 45.8778 212.918 46.0766 212.567 46.4742C212.224 46.864 212.052 47.3824 212.052 48.0295C212.052 48.6766 212.224 49.1989 212.567 49.5965ZM217.33 52.216L218.008 49.7603H219.341L218.032 52.216H217.33ZM223.178 50.9764L223.166 50.0526L226.241 47.398C227.154 46.6106 227.61 45.8622 227.61 45.1528C227.61 44.6928 227.465 44.3264 227.177 44.0535C226.896 43.7807 226.518 43.6442 226.043 43.6442C225.473 43.6442 225.037 43.8313 224.733 44.2055C224.429 44.572 224.308 45.0592 224.37 45.6673L223.341 45.5971C223.279 44.7396 223.497 44.0418 223.996 43.5039C224.503 42.966 225.185 42.697 226.043 42.697C226.846 42.697 227.489 42.9231 227.972 43.3753C228.463 43.8196 228.709 44.4121 228.709 45.1528C228.709 45.6517 228.565 46.139 228.276 46.6145C227.988 47.0901 227.528 47.5929 226.896 48.1231L224.674 50.0175H228.709V50.9764H223.178ZM229.721 50.9764L229.71 50.0526L232.785 47.398C233.697 46.6106 234.153 45.8622 234.153 45.1528C234.153 44.6928 234.009 44.3264 233.721 44.0535C233.44 43.7807 233.062 43.6442 232.586 43.6442C232.017 43.6442 231.581 43.8313 231.277 44.2055C230.972 44.572 230.852 45.0592 230.914 45.6673L229.885 45.5971C229.823 44.7396 230.041 44.0418 230.54 43.5039C231.047 42.966 231.729 42.697 232.586 42.697C233.389 42.697 234.032 42.9231 234.516 43.3753C235.007 43.8196 235.253 44.4121 235.253 45.1528C235.253 45.6517 235.108 46.139 234.82 46.6145C234.531 47.0901 234.071 47.5929 233.44 48.1231L231.218 50.0175H235.253V50.9764H229.721Z" fill="#111827"/>
<path d="M131.51 79.478C130.134 79.478 128.971 79.1238 128.022 78.4155C127.073 77.7072 126.505 76.765 126.318 75.5889L128.784 75.1278C128.917 75.7426 129.218 76.2304 129.686 76.5912C130.154 76.9387 130.728 77.1125 131.41 77.1125C132.145 77.1125 132.74 76.8853 133.194 76.4309C133.648 75.9765 133.876 75.375 133.876 74.6266C133.876 73.8515 133.635 73.2434 133.154 72.8023C132.686 72.3479 132.051 72.1207 131.25 72.1207C130.14 72.1207 129.265 72.5952 128.623 73.5441L126.659 73.1231L127.821 65.2847H135.56V67.6302H129.806L129.285 70.9781C130.02 70.3098 130.902 69.9757 131.931 69.9757C133.321 69.9757 134.444 70.4101 135.299 71.2788C136.168 72.1341 136.602 73.2501 136.602 74.6266C136.602 76.0967 136.134 77.2728 135.199 78.1549C134.277 79.037 133.047 79.478 131.51 79.478ZM138.588 79.3176C139.016 75.9364 140.941 72.0405 144.362 67.6302H137.065V65.2847H147.169V67.6302C143.52 72.5618 141.575 76.4576 141.335 79.3176H138.588ZM147.668 79.478C147.227 79.478 146.853 79.331 146.546 79.037C146.252 78.7429 146.105 78.3754 146.105 77.9344C146.105 77.4933 146.252 77.1258 146.546 76.8318C146.853 76.5378 147.227 76.3908 147.668 76.3908C148.123 76.3908 148.497 76.5378 148.791 76.8318C149.085 77.1258 149.232 77.4933 149.232 77.9344C149.232 78.3754 149.085 78.7429 148.791 79.037C148.497 79.331 148.123 79.478 147.668 79.478ZM157.216 79.3176V76.3908H150.139V74.0252L156.995 65.2847H159.942V74.0252H161.726V76.3908H159.942V79.3176H157.216ZM152.946 74.0252H157.216V68.5323L152.946 74.0252ZM172.89 77.5334C171.874 78.8298 170.484 79.478 168.72 79.478C166.956 79.478 165.566 78.8298 164.55 77.5334C163.534 76.2371 163.027 74.493 163.027 72.3012C163.027 70.1093 163.534 68.3653 164.55 67.0689C165.566 65.7725 166.956 65.1243 168.72 65.1243C170.484 65.1243 171.874 65.7725 172.89 67.0689C173.905 68.3653 174.413 70.1093 174.413 72.3012C174.413 74.493 173.905 76.2371 172.89 77.5334ZM166.535 75.8495C167.043 76.6915 167.771 77.1125 168.72 77.1125C169.669 77.1125 170.397 76.6915 170.905 75.8495C171.426 75.0075 171.687 73.8247 171.687 72.3012C171.687 70.7776 171.426 69.5948 170.905 68.7528C170.397 67.8975 169.669 67.4698 168.72 67.4698C167.771 67.4698 167.043 67.8975 166.535 68.7528C166.027 69.5948 165.773 70.7776 165.773 72.3012C165.773 73.8247 166.027 75.0075 166.535 75.8495Z" fill="#0D21B2"/>
<rect width="152.094" height="79.0824" transform="translate(276.365 23.1058)" fill="white"/>
<path d="M297.733 50.9764C297.975 48.8715 299.187 46.4586 301.37 43.7378H296.774V42.7906H302.469V43.7378C300.208 46.6535 298.992 49.0664 298.821 50.9764H297.733ZM306.516 50.9764V42.7906H307.802L310.562 49.4328L313.322 42.7906H314.608V50.9764H313.556V44.8019L311.006 50.9764H310.117L307.556 44.8019V50.9764H306.516ZM318.454 44.9891C319.179 44.9891 319.764 45.1879 320.208 45.5855C320.653 45.9831 320.875 46.521 320.875 47.1992V50.9764H319.893V49.9707C319.721 50.306 319.456 50.5749 319.098 50.7776C318.747 50.9725 318.357 51.07 317.928 51.07C317.343 51.07 316.864 50.9102 316.49 50.5905C316.123 50.2631 315.94 49.8421 315.94 49.3276C315.94 48.2205 316.876 47.5735 318.747 47.3863L319.893 47.2577V47.1408C319.893 46.7354 319.76 46.4157 319.495 46.1819C319.238 45.9402 318.891 45.8193 318.454 45.8193C318.049 45.8193 317.714 45.9324 317.449 46.1585C317.184 46.3846 317.032 46.6964 316.993 47.094L316.069 46.9186C316.154 46.3339 316.416 45.8661 316.852 45.5153C317.297 45.1645 317.831 44.9891 318.454 44.9891ZM318.08 50.2514C318.649 50.2514 319.094 50.076 319.413 49.7252C319.733 49.3743 319.893 48.9027 319.893 48.3102V48.0295L318.747 48.1582C317.538 48.2907 316.934 48.6766 316.934 49.3159C316.934 49.5887 317.039 49.8148 317.25 49.9941C317.468 50.1656 317.745 50.2514 318.08 50.2514ZM325.941 46.0532C325.723 45.9597 325.469 45.9129 325.181 45.9129C324.682 45.9129 324.273 46.1546 323.953 46.6379C323.641 47.1135 323.485 47.8112 323.485 48.7312V50.9764H322.491V45.0826H323.485V46.2754C323.657 45.9012 323.914 45.5932 324.257 45.3516C324.6 45.1099 324.955 44.9891 325.321 44.9891C325.578 44.9891 325.805 45.0241 325.999 45.0943L325.941 46.0532ZM325.552 52.216L326.23 49.7603H327.563L326.254 52.216H325.552ZM331.4 50.9764L331.388 50.0526L334.463 47.398C335.376 46.6106 335.832 45.8622 335.832 45.1528C335.832 44.6928 335.687 44.3264 335.399 44.0535C335.118 43.7807 334.74 43.6442 334.265 43.6442C333.695 43.6442 333.259 43.8313 332.955 44.2055C332.651 44.572 332.53 45.0592 332.592 45.6673L331.563 45.5971C331.501 44.7396 331.719 44.0418 332.218 43.5039C332.725 42.966 333.407 42.697 334.265 42.697C335.068 42.697 335.711 42.9231 336.194 43.3753C336.685 43.8196 336.931 44.4121 336.931 45.1528C336.931 45.6517 336.787 46.139 336.498 46.6145C336.21 47.0901 335.75 47.5929 335.118 48.1231L332.896 50.0175H336.931V50.9764H331.4ZM337.943 50.9764L337.932 50.0526L341.007 47.398C341.919 46.6106 342.375 45.8622 342.375 45.1528C342.375 44.6928 342.231 44.3264 341.943 44.0535C341.662 43.7807 341.284 43.6442 340.808 43.6442C340.239 43.6442 339.803 43.8313 339.499 44.2055C339.194 44.572 339.074 45.0592 339.136 45.6673L338.107 45.5971C338.045 44.7396 338.263 44.0418 338.762 43.5039C339.269 42.966 339.951 42.697 340.808 42.697C341.611 42.697 342.254 42.9231 342.738 43.3753C343.229 43.8196 343.475 44.4121 343.475 45.1528C343.475 45.6517 343.33 46.139 343.042 46.6145C342.753 47.0901 342.293 47.5929 341.662 48.1231L339.44 50.0175H343.475V50.9764H337.943ZM347.237 48.0412V47.1642H352.523V48.0412H347.237ZM357.823 50.9764V44.1237C357.316 44.5915 356.669 44.8955 355.882 45.0358V44.0886C356.724 43.9093 357.426 43.4766 357.987 42.7906H358.829V50.9764H357.823ZM362.895 51.07C362.092 51.07 361.421 50.8556 360.883 50.4268C360.353 49.998 360.049 49.425 359.971 48.7078L360.977 48.5558C361.031 49.0313 361.234 49.4094 361.585 49.6901C361.936 49.9707 362.372 50.1111 362.895 50.1111C363.464 50.1111 363.916 49.9552 364.251 49.6433C364.594 49.3315 364.766 48.9183 364.766 48.4037C364.766 47.8736 364.606 47.4604 364.286 47.1642C363.967 46.8679 363.522 46.7198 362.953 46.7198C362.626 46.7198 362.326 46.8055 362.053 46.9771L361.597 46.2988L364.181 43.7378H360.205V42.7906H365.432V43.7144L363.105 45.9831C363.916 45.9051 364.579 46.0922 365.093 46.5444C365.608 46.9965 365.865 47.6241 365.865 48.4271C365.865 49.2223 365.592 49.8616 365.046 50.345C364.508 50.8283 363.791 51.07 362.895 51.07ZM370.034 50.9764V42.7906H371.32L374.08 49.4328L376.84 42.7906H378.126V50.9764H377.074V44.8019L374.524 50.9764H373.636L371.075 44.8019V50.9764H370.034ZM381.973 44.9891C382.698 44.9891 383.282 45.1879 383.727 45.5855C384.171 45.9831 384.393 46.521 384.393 47.1992V50.9764H383.411V49.9707C383.239 50.306 382.974 50.5749 382.616 50.7776C382.265 50.9725 381.875 51.07 381.446 51.07C380.862 51.07 380.382 50.9102 380.008 50.5905C379.642 50.2631 379.458 49.8421 379.458 49.3276C379.458 48.2205 380.394 47.5735 382.265 47.3863L383.411 47.2577V47.1408C383.411 46.7354 383.278 46.4157 383.013 46.1819C382.756 45.9402 382.409 45.8193 381.973 45.8193C381.567 45.8193 381.232 45.9324 380.967 46.1585C380.702 46.3846 380.55 46.6964 380.511 47.094L379.587 46.9186C379.673 46.3339 379.934 45.8661 380.37 45.5153C380.815 45.1645 381.349 44.9891 381.973 44.9891ZM381.598 50.2514C382.167 50.2514 382.612 50.076 382.931 49.7252C383.251 49.3743 383.411 48.9027 383.411 48.3102V48.0295L382.265 48.1582C381.057 48.2907 380.452 48.6766 380.452 49.3159C380.452 49.5887 380.558 49.8148 380.768 49.9941C380.986 50.1656 381.263 50.2514 381.598 50.2514ZM389.459 46.0532C389.241 45.9597 388.988 45.9129 388.699 45.9129C388.2 45.9129 387.791 46.1546 387.471 46.6379C387.159 47.1135 387.003 47.8112 387.003 48.7312V50.9764H386.009V45.0826H387.003V46.2754C387.175 45.9012 387.432 45.5932 387.775 45.3516C388.118 45.1099 388.473 44.9891 388.839 44.9891C389.097 44.9891 389.323 45.0241 389.518 45.0943L389.459 46.0532ZM389.07 52.216L389.748 49.7603H391.082L389.772 52.216H389.07ZM394.918 50.9764L394.906 50.0526L397.982 47.398C398.894 46.6106 399.35 45.8622 399.35 45.1528C399.35 44.6928 399.206 44.3264 398.917 44.0535C398.637 43.7807 398.258 43.6442 397.783 43.6442C397.214 43.6442 396.777 43.8313 396.473 44.2055C396.169 44.572 396.048 45.0592 396.111 45.6673L395.082 45.5971C395.019 44.7396 395.237 44.0418 395.736 43.5039C396.243 42.966 396.925 42.697 397.783 42.697C398.586 42.697 399.229 42.9231 399.712 43.3753C400.204 43.8196 400.449 44.4121 400.449 45.1528C400.449 45.6517 400.305 46.139 400.016 46.6145C399.728 47.0901 399.268 47.5929 398.637 48.1231L396.415 50.0175H400.449V50.9764H394.918ZM401.461 50.9764L401.45 50.0526L404.525 47.398C405.437 46.6106 405.894 45.8622 405.894 45.1528C405.894 44.6928 405.749 44.3264 405.461 44.0535C405.18 43.7807 404.802 43.6442 404.327 43.6442C403.757 43.6442 403.321 43.8313 403.017 44.2055C402.713 44.572 402.592 45.0592 402.654 45.6673L401.625 45.5971C401.563 44.7396 401.781 44.0418 402.28 43.5039C402.787 42.966 403.469 42.697 404.327 42.697C405.13 42.697 405.773 42.9231 406.256 43.3753C406.747 43.8196 406.993 44.4121 406.993 45.1528C406.993 45.6517 406.849 46.139 406.56 46.6145C406.272 47.0901 405.812 47.5929 405.18 48.1231L402.958 50.0175H406.993V50.9764H401.461Z" fill="#111827"/>
<path d="M302.907 69.8554C304.337 69.8554 305.513 70.3098 306.435 71.2186C307.371 72.1141 307.839 73.2634 307.839 74.6667C307.839 76.07 307.337 77.2261 306.335 78.1349C305.333 79.0303 304.056 79.478 302.506 79.478C300.916 79.478 299.619 78.8766 298.617 77.6738C297.615 76.4576 297.113 74.8805 297.113 72.9427C297.113 70.4435 297.748 68.5189 299.018 67.1691C300.288 65.8059 301.865 65.1243 303.749 65.1243C305.353 65.1243 306.723 65.5988 307.859 66.5477L306.616 68.5323C305.787 67.824 304.852 67.4698 303.809 67.4698C302.66 67.4698 301.704 67.8507 300.942 68.6125C300.181 69.3609 299.76 70.3299 299.679 71.5193C300 70.9981 300.441 70.5905 301.003 70.2965C301.577 70.0024 302.212 69.8554 302.907 69.8554ZM302.586 77.1125C303.335 77.1125 303.949 76.8719 304.431 76.3908C304.912 75.8963 305.152 75.2748 305.152 74.5264C305.166 73.7913 304.925 73.1832 304.431 72.7021C303.949 72.2076 303.335 71.9604 302.586 71.9604C301.824 71.9604 301.196 72.2009 300.702 72.6821C300.221 73.1632 299.98 73.778 299.98 74.5264C299.98 75.2748 300.221 75.8963 300.702 76.3908C301.196 76.8719 301.824 77.1125 302.586 77.1125ZM316.185 79.3176V76.3908H309.109V74.0252L315.965 65.2847H318.912V74.0252H320.696V76.3908H318.912V79.3176H316.185ZM311.915 74.0252H316.185V68.5323L311.915 74.0252ZM323.689 79.478C323.248 79.478 322.874 79.331 322.567 79.037C322.273 78.7429 322.126 78.3754 322.126 77.9344C322.126 77.4933 322.273 77.1258 322.567 76.8318C322.874 76.5378 323.248 76.3908 323.689 76.3908C324.144 76.3908 324.518 76.5378 324.812 76.8318C325.106 77.1258 325.253 77.4933 325.253 77.9344C325.253 78.3754 325.106 78.7429 324.812 79.037C324.518 79.331 324.144 79.478 323.689 79.478ZM332.436 74.7469C331.006 74.7469 329.823 74.2992 328.888 73.4037C327.965 72.4949 327.504 71.3389 327.504 69.9356C327.504 68.5323 328.005 67.3829 329.008 66.4875C330.01 65.5787 331.286 65.1243 332.837 65.1243C334.427 65.1243 335.724 65.7324 336.726 66.9486C337.728 68.1514 338.229 69.7218 338.229 71.6597C338.229 74.1589 337.595 76.0901 336.325 77.4533C335.055 78.8031 333.478 79.478 331.594 79.478C329.99 79.478 328.62 79.0036 327.484 78.0547L328.727 76.07C329.529 76.765 330.465 77.1125 331.534 77.1125C332.683 77.1125 333.639 76.7382 334.4 75.9898C335.162 75.2414 335.583 74.2725 335.663 73.083C335.343 73.6042 334.895 74.0118 334.32 74.3059C333.759 74.5999 333.131 74.7469 332.436 74.7469ZM332.757 67.4698C332.008 67.4698 331.393 67.7171 330.912 68.2116C330.431 68.7061 330.191 69.3275 330.191 70.0759C330.177 70.811 330.411 71.4258 330.892 71.9203C331.387 72.4014 332.008 72.642 332.757 72.642C333.518 72.642 334.14 72.4014 334.621 71.9203C335.115 71.4391 335.363 70.8244 335.363 70.0759C335.363 69.3275 335.115 68.7061 334.621 68.2116C334.14 67.7171 333.518 67.4698 332.757 67.4698ZM340.197 79.3176C340.625 75.9364 342.549 72.0405 345.971 67.6302H338.673V65.2847H348.777V67.6302C345.129 72.5618 343.184 76.4576 342.943 79.3176H340.197Z" fill="#0D21B2"/>
<rect width="20.0471" height="78.5176" transform="translate(256.353 23.3882)" fill="white"/>
<path d="M268.047 56.7999L273.894 62.647M273.894 62.647L268.047 68.494M273.894 62.647L258.859 62.647" stroke="#6B7280" stroke-width="1.67059" stroke-linecap="round" stroke-linejoin="round"/>
</g>
</g>
<defs>
<filter id="filter0_d_1196_10078" x="0" y="54.9058" width="709.404" height="344" filterUnits="userSpaceOnUse" color-interpolation-filters="sRGB">
<feFlood flood-opacity="0" result="BackgroundImageFix"/>
<feColorMatrix in="SourceAlpha" type="matrix" values="0 0 0 0 0 0 0 0 0 0 0 0 0 0 0 0 0 0 127 0" result="hardAlpha"/>
<feMorphology radius="5" operator="erode" in="SourceAlpha" result="effect1_dropShadow_1196_10078"/>
<feOffset dy="25"/>
<feGaussianBlur stdDeviation="25"/>
<feColorMatrix type="matrix" values="0 0 0 0 0.486275 0 0 0 0 0.486275 0 0 0 0 0.615686 0 0 0 0.3 0"/>
<feBlend mode="normal" in2="BackgroundImageFix" result="effect1_dropShadow_1196_10078"/>
<feBlend mode="normal" in="SourceGraphic" in2="effect1_dropShadow_1196_10078" result="shape"/>
</filter>
<filter id="filter1_dd_1196_10078" x="42" y="72.9058" width="625.404" height="260" filterUnits="userSpaceOnUse" color-interpolation-filters="sRGB">
<feFlood flood-opacity="0" result="BackgroundImageFix"/>
<feColorMatrix in="SourceAlpha" type="matrix" values="0 0 0 0 0 0 0 0 0 0 0 0 0 0 0 0 0 0 127 0" result="hardAlpha"/>
<feOffset dy="1"/>
<feGaussianBlur stdDeviation="1"/>
<feColorMatrix type="matrix" values="0 0 0 0 0 0 0 0 0 0 0 0 0 0 0 0 0 0 0.06 0"/>
<feBlend mode="normal" in2="BackgroundImageFix" result="effect1_dropShadow_1196_10078"/>
<feColorMatrix in="SourceAlpha" type="matrix" values="0 0 0 0 0 0 0 0 0 0 0 0 0 0 0 0 0 0 127 0" result="hardAlpha"/>
<feOffset dy="1"/>
<feGaussianBlur stdDeviation="1.5"/>
<feColorMatrix type="matrix" values="0 0 0 0 0 0 0 0 0 0 0 0 0 0 0 0 0 0 0.1 0"/>
<feBlend mode="normal" in2="effect1_dropShadow_1196_10078" result="effect2_dropShadow_1196_10078"/>
<feBlend mode="normal" in="SourceGraphic" in2="effect2_dropShadow_1196_10078" result="shape"/>
</filter>
<filter id="filter2_d_1196_10078" x="71.6294" y="-20" width="565.371" height="170.188" filterUnits="userSpaceOnUse" color-interpolation-filters="sRGB">
<feFlood flood-opacity="0" result="BackgroundImageFix"/>
<feColorMatrix in="SourceAlpha" type="matrix" values="0 0 0 0 0 0 0 0 0 0 0 0 0 0 0 0 0 0 127 0" result="hardAlpha"/>
<feOffset dy="14"/>
<feGaussianBlur stdDeviation="17"/>
<feComposite in2="hardAlpha" operator="out"/>
<feColorMatrix type="matrix" values="0 0 0 0 0.486275 0 0 0 0 0.486275 0 0 0 0 0.615686 0 0 0 0.3 0"/>
<feBlend mode="normal" in2="BackgroundImageFix" result="effect1_dropShadow_1196_10078"/>
<feBlend mode="normal" in="SourceGraphic" in2="effect1_dropShadow_1196_10078" result="shape"/>
</filter>
<filter id="filter3_dd_1196_10078" x="101.453" y="22.2705" width="505.718" height="89.1059" filterUnits="userSpaceOnUse" color-interpolation-filters="sRGB">
<feFlood flood-opacity="0" result="BackgroundImageFix"/>
<feColorMatrix in="SourceAlpha" type="matrix" values="0 0 0 0 0 0 0 0 0 0 0 0 0 0 0 0 0 0 127 0" result="hardAlpha"/>
<feMorphology radius="4.17647" operator="erode" in="SourceAlpha" result="effect1_dropShadow_1196_10078"/>
<feOffset dy="5.01176"/>
<feGaussianBlur stdDeviation="4.17647"/>
<feColorMatrix type="matrix" values="0 0 0 0 0 0 0 0 0 0 0 0 0 0 0 0 0 0 0.04 0"/>
<feBlend mode="normal" in2="BackgroundImageFix" result="effect1_dropShadow_1196_10078"/>
<feColorMatrix in="SourceAlpha" type="matrix" values="0 0 0 0 0 0 0 0 0 0 0 0 0 0 0 0 0 0 127 0" result="hardAlpha"/>
<feOffset/>
<feGaussianBlur stdDeviation="0.417647"/>
<feComposite in2="hardAlpha" operator="out"/>
<feColorMatrix type="matrix" values="0 0 0 0 0 0 0 0 0 0 0 0 0 0 0 0 0 0 0.5 0"/>
<feBlend mode="normal" in2="effect1_dropShadow_1196_10078" result="effect2_dropShadow_1196_10078"/>
<feBlend mode="normal" in="SourceGraphic" in2="effect2_dropShadow_1196_10078" result="shape"/>
</filter>
</defs>
</svg>
