<svg width="1440" height="825" viewBox="0 0 1440 825" fill="none" xmlns="http://www.w3.org/2000/svg">
<rect width="1440" height="825" fill="white"/>
<rect x="578" y="29" width="284" height="766" stroke="#BCFA30" stroke-width="4"/>
<text fill="black" xml:space="preserve" style="white-space: pre" font-family="Matter" font-size="38" font-weight="bold" letter-spacing="0em"><tspan x="625.761" y="87.78">Diagnostic </tspan><tspan x="640.901" y="133.78">analytics </tspan><tspan x="686.88" y="179.78">gap</tspan></text>
<rect x="310" y="217" width="244" height="101" fill="#0B1DAB"/>
<rect x="310" y="318" width="244" height="101" fill="#F3F4F6"/>
<text fill="white" xml:space="preserve" style="white-space: pre" font-family="Matter" font-size="28" font-weight="bold" letter-spacing="0em"><tspan x="355.035" y="259.274">Descriptive </tspan><tspan x="368.611" y="294.274">Analytics</tspan></text>
<text fill="black" xml:space="preserve" style="white-space: pre" font-family="Matter" font-size="28" font-weight="bold" letter-spacing="0em"><tspan x="393.385" y="359.086">What </tspan><tspan x="355.541" y="394.086">happened?</tspan></text>
<rect x="598" y="217" width="244" height="101" fill="#0B1DAB"/>
<rect x="598" y="318" width="244" height="101" fill="#F3F4F6"/>
<text fill="white" xml:space="preserve" style="white-space: pre" font-family="Matter" font-size="28" font-weight="bold" letter-spacing="0em"><tspan x="647.561" y="259.274">Diagnostic </tspan><tspan x="656.611" y="294.274">Analytics</tspan></text>
<text fill="black" xml:space="preserve" style="white-space: pre" font-family="Matter" font-size="28" font-weight="bold" letter-spacing="0em"><tspan x="650.527" y="359.086">Why did it </tspan><tspan x="660.467" y="394.086">happen?</tspan></text>
<rect x="886" y="217" width="244" height="101" fill="#0B1DAB"/>
<rect x="886" y="318" width="244" height="101" fill="#F3F4F6"/>
<text fill="white" xml:space="preserve" style="white-space: pre" font-family="Matter" font-size="28" font-weight="bold" letter-spacing="0em"><tspan x="938.855" y="259.274">Predictive </tspan><tspan x="944.611" y="294.274">Analytics</tspan></text>
<text fill="black" xml:space="preserve" style="white-space: pre" font-family="Matter" font-size="28" font-weight="bold" letter-spacing="0em"><tspan x="938.514" y="359.086">What may </tspan><tspan x="948.467" y="394.086">happen?</tspan></text>
<rect x="1174" y="217" width="244" height="101" fill="#0B1DAB"/>
<rect x="1174" y="318" width="244" height="101" fill="#F3F4F6"/>
<text fill="white" xml:space="preserve" style="white-space: pre" font-family="Matter" font-size="28" font-weight="bold" letter-spacing="0em"><tspan x="1214.65" y="259.274">Prescriptive </tspan><tspan x="1232.61" y="294.274">Analytics</tspan></text>
<text fill="black" xml:space="preserve" style="white-space: pre" font-family="Matter" font-size="28" font-weight="bold" letter-spacing="0em"><tspan x="1212.77" y="359.086">What action </tspan><tspan x="1240.4" y="394.086">to take?</tspan></text>
<text fill="black" xml:space="preserve" style="white-space: pre" font-family="Matter" font-size="28" font-weight="bold" letter-spacing="0em"><tspan x="40" y="586.18">People&#10;</tspan><tspan x="40" y="641.18">Tools&#10;</tspan><tspan x="40" y="696.18">Processes&#10;</tspan><tspan x="40" y="751.18">Culture</tspan></text>
<text fill="black" xml:space="preserve" style="white-space: pre" font-family="Matter" font-size="28" letter-spacing="0em"><tspan x="310" y="586.18">Self-service&#10;</tspan><tspan x="310" y="641.18">Dashboards&#10;</tspan><tspan x="310" y="696.18">Data team&#10;</tspan><tspan x="310" y="751.18">Self-service</tspan></text>
<text fill="black" xml:space="preserve" style="white-space: pre" font-family="Matter" font-size="28" letter-spacing="0em"><tspan x="598" y="586.18">Data &#38; Business&#10;</tspan><tspan x="598" y="641.18">Depends&#10;</tspan><tspan x="598" y="696.18">Unclear&#10;</tspan><tspan x="598" y="751.18">Depends</tspan></text>
<text fill="black" xml:space="preserve" style="white-space: pre" font-family="Matter" font-size="28" letter-spacing="0em"><tspan x="892" y="615.68">Data products managed by the </tspan><tspan x="892" y="650.68">data team with clear processes and </tspan><tspan x="892" y="685.68">outputs (e.g. forecasting models, </tspan><tspan x="892" y="720.68">recommendation systems).</tspan></text>
<path d="M310 449H647L671 484L647 519H310L334 484L310 449Z" fill="#F3F4F6"/>
<text fill="black" xml:space="preserve" style="white-space: pre" font-family="Matter" font-size="32" letter-spacing="0em"><tspan x="403.125" y="494.42">Information</tspan></text>
<path d="M683 449H1020L1044 484L1020 519H683L707 484L683 449Z" fill="#F3F4F6"/>
<text fill="black" xml:space="preserve" style="white-space: pre" font-family="Matter" font-size="32" letter-spacing="0em"><tspan x="811.125" y="494.42">Insight</tspan></text>
<path d="M1057 449H1394L1418 484L1394 519H1057L1081 484L1057 449Z" fill="#F3F4F6"/>
<text fill="black" xml:space="preserve" style="white-space: pre" font-family="Matter" font-size="32" letter-spacing="0em"><tspan x="1142.14" y="494.42">Optimization</tspan></text>
<path d="M40 602.5H862.5" stroke="#E7E6E6"/>
<path d="M40 549H1418" stroke="#E7E6E6"/>
<path d="M40 657H862.5" stroke="#E7E6E6"/>
<path d="M40 712H862.5" stroke="#E7E6E6"/>
<path d="M40 770H1418" stroke="#E7E6E6"/>
</svg>
