<svg viewBox="0 0 122 102" fill="none"
  xmlns="http://www.w3.org/2000/svg">
  <g opacity="0.5">
    <path fill-rule="evenodd" clip-rule="evenodd" d="M11.3588 38.9288C4.89212 49.6804 1.95763 65.6188 10.8339 77.7599C18.4942 88.241 31.0965 91.8399 41.3016 93.82C51.5467 95.8098 61.76 95.644 71.7637 94.3107C88.6823 92.0596 119.809 84.7239 117.393 56.1096C116.009 39.7101 104.423 23.2413 93.087 15.1278C79.4276 5.35156 63.853 6.12573 50.0598 9.92649C36.0565 13.7834 22.9418 21.7454 14.7875 36.3502C8.18926 48.1686 3.49553 67.6255 13.153 81.1673C21.6851 93.132 36.7708 94.3139 47.6822 93.2426C60.9015 91.9436 74.0375 89.7204 86.4262 84.7438C97.7912 80.176 109.691 72.6481 114.725 58.5226C118.3 48.4839 117.319 37.3097 109.612 29.364C101.715 21.22 90.6367 18.5068 81.2427 16.7421C70.9146 14.8025 60.9011 14.6234 50.8334 16.0373C48.4281 16.3765 46.0204 16.7113 43.6122 17.026C42.5379 17.1677 43.0482 19.2694 44.1123 19.1282C50.8188 18.2482 57.4383 16.9622 64.2774 17.1182C69.0806 17.2296 73.9114 17.6914 78.7342 18.4373C88.7484 19.9883 100.274 22.7144 108.797 31.1196C119.036 41.2217 114.986 57.4544 108.338 66.5896C99.2619 79.0635 84.4251 84.0588 71.2156 87.3061C58.6843 90.3869 44.6787 93.1894 31.4906 90.2905C25.1004 88.8854 18.4549 85.5775 13.8619 79.1362C8.55636 71.6971 8.80843 61.6205 10.4716 53.333C14.5528 33.0206 28.2294 20.473 43.4454 14.4011C58.0849 8.56287 75.3442 6.30273 90.6718 15.8179C98.3096 20.5572 104.567 28.2812 109.337 37.1333C113.134 44.1826 116.103 52.237 115.807 60.4373C115.3 74.4518 103.936 81.8375 94.8335 85.9337C84.1988 90.7162 72.3974 92.6539 60.8081 93.1339C49.9944 93.5808 38.7374 92.1563 28.025 87.8667C22.0491 85.4712 15.9948 81.8342 11.5749 75.789C6.62389 69.0145 6.05367 59.975 7.83048 52.213C10.2058 41.8406 16.623 33.6042 23.1869 27.3809C29.684 21.2194 37.8826 16.2446 46.5298 15.9995C47.6079 15.9693 47.5676 13.837 46.4793 13.8676C32.2894 14.2687 19.2997 25.7246 11.3588 38.9288Z" fill="#D6FC5C"/>
  </g>
</svg>
